<?xml version="1.0" encoding="utf-8"?>
<!-- Generator: Adobe Illustrator 19.0.0, SVG Export Plug-In . SVG Version: 6.00 Build 0)  -->
<svg version="1.1" id="Layer_1" xmlns="http://www.w3.org/2000/svg" xmlns:xlink="http://www.w3.org/1999/xlink" x="0px" y="0px"
	 viewBox="0 0 1612 652" style="enable-background:new 0 0 1612 652;" xml:space="preserve">
<style type="text/css">
	.st0{fill:#F59222;}
	.st1{fill:#DD4A29;}
	.st2{fill:#F36F23;}
	.st3{fill:#9D9D36;}
	.st4{fill:#F59121;}
	.st5{fill:#528E40;}
</style>
<g id="XMLID_13_">
	<g id="XMLID_2_">
		<polygon id="XMLID_4_" class="st0" points="1034.9,249.6 1612,588.5 1612,1 1476.3,1 		"/>
		<polyline id="XMLID_1_" class="st1" points="1181,294.8 1181,377 1113,335.9 		"/>
	</g>
	<path id="XMLID_3_" class="st2" d="M987.5,74c13.5,0,24.5,11,24.5,24.5s-11,24.5-24.5,24.5S963,112,963,98.5S974,74,987.5,74
		 M987.5,70C971.8,70,959,82.8,959,98.5s12.8,28.5,28.5,28.5s28.5-12.8,28.5-28.5S1003.2,70,987.5,70L987.5,70z"/>
	<path id="XMLID_6_" class="st3" d="M722.7,81c4.5,0,8.1,3.6,8.1,8.1s-3.6,8.1-8.1,8.1c-4.5,0-8.1-3.6-8.1-8.1S718.2,81,722.7,81
		 M722.7,79c-5.6,0-10.1,4.5-10.1,10.1s4.5,10.1,10.1,10.1s10.1-4.5,10.1-10.1S728.3,79,722.7,79L722.7,79z"/>
	<g id="XMLID_7_">
		<g id="XMLID_45_">
			<path id="XMLID_46_" class="st4" d="M15.1,458.1C6.8,458.1,0,451.3,0,443s6.8-15.1,15.1-15.1s15.1,6.8,15.1,15.1
				S23.4,458.1,15.1,458.1z M15.1,429.9C7.9,429.9,2,435.8,2,443s5.9,13.1,13.1,13.1s13.1-5.9,13.1-13.1S22.3,429.9,15.1,429.9z"/>
		</g>
	</g>
	<g id="XMLID_11_">
		<rect id="XMLID_5_" x="1083.7" y="474.7" class="st3" width="26.7" height="26.7"/>
		<rect id="XMLID_17_" x="1110.3" y="501.3" class="st5" width="26.7" height="26.7"/>
	</g>
</g>
</svg>
