<?xml version="1.0" encoding="utf-8"?>
<!-- Generator: Adobe Illustrator 19.0.0, SVG Export Plug-In . SVG Version: 6.00 Build 0)  -->
<svg version="1.1" id="Layer_1" xmlns="http://www.w3.org/2000/svg" xmlns:xlink="http://www.w3.org/1999/xlink" x="0px" y="0px"
	 viewBox="-655 157 300 340" style="enable-background:new -655 157 300 340;" xml:space="preserve">
<style type="text/css">
	.st0{fill:#8E8B2F;}
	.st1{fill:#EBBC29;}
	.st2{fill:#F5F5F7;}
	.st3{fill:#716D2D;}
	.st4{fill:#3B391D;}
	.st5{fill:#525126;}
	.st6{fill:#9F9E36;}
	.st7{fill:#3A3A42;}
	.st8{opacity:0.5;}
	.st9{fill:#5E5E5E;}
	.st10{fill:#F5F5D9;}
	.st11{fill:#249AD1;}
	.st12{fill:#65657B;}
	.st13{fill:#85BB41;}
	.st14{fill:#78A640;}
	.st15{fill:#3F454D;}
	.st16{fill:#FFFFFF;}
	.st17{clip-path:url(#SVGID_2_);fill:#F04F23;}
	.st18{clip-path:url(#SVGID_4_);fill:#F04F23;}
	.st19{clip-path:url(#SVGID_6_);fill:#F04E23;}
	.st20{clip-path:url(#SVGID_8_);fill:#F04D23;}
	.st21{clip-path:url(#SVGID_10_);fill:#F04C23;}
	.st22{clip-path:url(#SVGID_12_);fill:#F04B23;}
	.st23{clip-path:url(#SVGID_14_);fill:#F04A23;}
	.st24{clip-path:url(#SVGID_16_);fill:#F04923;}
	.st25{clip-path:url(#SVGID_18_);fill:#EF4823;}
	.st26{clip-path:url(#SVGID_20_);fill:#EF4823;}
	.st27{clip-path:url(#SVGID_22_);fill:#EF4623;}
	.st28{clip-path:url(#SVGID_24_);fill:#EF4523;}
	.st29{clip-path:url(#SVGID_26_);fill:#EF4323;}
	.st30{clip-path:url(#SVGID_28_);fill:#EF4323;}
	.st31{clip-path:url(#SVGID_30_);fill:#EF4223;}
	.st32{clip-path:url(#SVGID_32_);fill:#EF4123;}
	.st33{clip-path:url(#SVGID_34_);fill:#EF4023;}
	.st34{clip-path:url(#SVGID_36_);fill:#EF4023;}
	.st35{clip-path:url(#SVGID_38_);fill:#EF4023;}
	.st36{fill:#FCBD50;}
	.st37{fill:#E2E43C;}
	.st38{fill:#15A152;}
	.st39{fill:#41B6E9;}
	.st40{fill:#3C499D;}
	.st41{fill:#AB2F73;}
	.st42{fill:#EE3F88;}
	.st43{fill:#CFC2A8;}
	.st44{fill:#FCEA22;}
	.st45{fill:#FCF8C2;}
	.st46{fill:#EABB28;}
	.st47{fill:#63636C;}
	.st48{fill:#E99839;}
	.st49{fill:#4E525F;}
	.st50{opacity:0.52;}
	.st51{fill:#B3A9BE;}
	.st52{fill:#CAD633;}
	.st53{fill:#FBAC48;}
	.st54{fill:#555867;}
	.st55{opacity:0.47;}
	.st56{fill:#282830;}
	.st57{fill:#9AC45F;}
	.st58{fill:#FFC949;}
	.st59{fill:#FFEABD;}
	.st60{fill:#7C7829;}
	.st61{fill:#262623;}
	.st62{opacity:0.57;}
	.st63{fill:#F9C3D1;}
	.st64{fill:#E0E0DC;}
	.st65{fill:#403F3B;}
</style>
<g>
	<g id="XMLID_707_">
		<g>
			<circle id="XMLID_12_" class="st0" cx="-524.9" cy="367" r="130.1"/>
		</g>
	</g>
	<g id="XMLID_696_">
		<g id="XMLID_724_">
			<path id="XMLID_1106_" class="st1" d="M-478.5,273.4l-1.8-2l-0.5,7.6c-0.1,1.1,1,1.4,1.3,0.2L-478.5,273.4z"/>
		</g>
		<g id="XMLID_723_">
			<path id="XMLID_1104_" class="st1" d="M-457.4,276.9l2.3-1.3l-2,7.3c-0.3,1.1-1.4,1-1.3-0.2L-457.4,276.9z"/>
		</g>
		<g id="XMLID_722_">
			<path id="XMLID_1102_" class="st1" d="M-479.7,266.9l25.4,4.3c0.4,0.1,0.6,0.4,0.6,0.8l0,0c-0.1,0.4-0.4,0.6-0.8,0.6l-25.4-4.3
				c-0.4-0.1-0.6-0.4-0.6-0.8l0,0C-480.4,267.1-480.1,266.9-479.7,266.9z"/>
		</g>
		<g id="XMLID_721_">
			<path id="XMLID_1100_" class="st2" d="M-461.4,236.5c-7.4,11.7-12,18.3-17.3,38.3l-1.8-3.7c2.4-14,8.5-27,15.8-38.6L-461.4,236.5
				z"/>
		</g>
		<g id="XMLID_720_">
			<path id="XMLID_1098_" class="st2" d="M-461.4,236.5c3.1,13.5,5.4,21.3,3.8,41.9l2.9-2.9c2.3-14,0.8-28.3-2.2-41.6L-461.4,236.5z
				"/>
		</g>
		<g id="XMLID_717_">
			
				<rect id="XMLID_857_" x="-462.3" y="223.1" transform="matrix(0.9861 0.1663 -0.1663 0.9861 31.3209 79.6278)" class="st3" width="4.9" height="7.4"/>
		</g>
		<g id="XMLID_703_">
			<g id="XMLID_714_">
				<circle id="XMLID_856_" class="st4" cx="-460.6" cy="231.5" r="5.7"/>
			</g>
			<g id="XMLID_711_">
				<circle id="XMLID_855_" class="st5" cx="-460.9" cy="230.8" r="5.7"/>
			</g>
			<g id="XMLID_708_">
				<circle id="XMLID_854_" class="st4" cx="-460.9" cy="230.8" r="3.3"/>
			</g>
			<g id="XMLID_704_">
				<path id="XMLID_853_" class="st6" d="M-457.6,230.1c0.1,0.4,0.1,0.8,0,1.3c-0.3,1.8-2,3-3.8,2.7c-1.1-0.2-1.9-0.9-2.4-1.8
					c-0.1-0.4-0.1-0.8,0-1.3c0.3-1.8,2-3,3.8-2.7C-459,228.5-458.1,229.2-457.6,230.1z"/>
			</g>
		</g>
		<g id="XMLID_700_">
			<path id="XMLID_852_" class="st5" d="M-460.8,216.6l5.4,0.9c0.2,0,0.3,0.2,0.3,0.4l-1.1,6.5c0,0.2-0.2,0.3-0.4,0.3l-5.4-0.9
				c-0.2,0-0.3-0.2-0.3-0.4l1.1-6.5C-461.2,216.7-461,216.5-460.8,216.6z"/>
		</g>
		<g id="XMLID_697_">
			<path id="XMLID_848_" class="st3" d="M-466.6,266.4h0.1c0.6,0.1,1,0.6,0.9,1.2l-0.7,4.4c-0.1,0.6-0.6,1-1.2,0.9h-0.1
				c-0.6-0.1-1-0.7-0.9-1.2l0.7-4.4C-467.8,266.7-467.2,266.3-466.6,266.4z"/>
		</g>
	</g>
	<g id="XMLID_209_">
		<g id="XMLID_677_">
			<g id="XMLID_679_">
				<path id="XMLID_1080_" class="st7" d="M-571.8,298.5c0-6,5-10.9,11-10.9l195.3,0.4c6,0,10.9,5,10.9,11l-0.3,130.3
					c0,6-5,10.9-11,10.9l-195.3-0.4c-6,0-10.9-5-10.9-11L-571.8,298.5z"/>
			</g>
			<g id="XMLID_678_">
				<path id="XMLID_849_" class="st7" d="M-571.8,298.5h1.6l-0.3,130.3c0,2.5,1,4.9,2.7,6.6c1.8,1.8,4.1,2.8,6.6,2.8l195.3,0.4l0,0
					c5.2,0,9.4-4.2,9.4-9.4l0.3-130.3c0-2.5-1-4.9-2.7-6.6c-1.8-1.8-4.1-2.8-6.6-2.8l-195.3-0.4l0,0c-5.2,0-9.4,4.2-9.4,9.4
					L-571.8,298.5z"/>
			</g>
		</g>
		<g id="XMLID_674_" class="st8">
			<g id="XMLID_582_">
				<path id="XMLID_847_" class="st9" d="M-405.3,291.4l-130.2,144.2c0.2,0.2,0,0.5-0.2,0.5h-22.6c-6.3,0-9.6-3.3-9.6-9.6l0.3-124.9
					c0-6.4,3.8-10.3,10.2-10.3l152.1-0.1C-405.3,291.3-405.2,291.4-405.3,291.4z"/>
			</g>
		</g>
		<g id="XMLID_673_">
			<path id="XMLID_1070_" class="st10" d="M-371,303.3l-0.3,119.6c0,0.6-0.5,1.1-1.1,1.1l-153.6,0.1h-20.8c-0.6,0-1.1-0.5-1.1-1.1
				l-0.1-119.6c0-0.6,0.5-1.1,1.1-1.1H-415h42.4C-371.8,302.2-371,302.7-371,303.3z"/>
		</g>
		<g id="XMLID_668_">
			<g id="XMLID_671_">
				<rect id="XMLID_1068_" x="-536.8" y="393.3" class="st11" width="46.8" height="5.3"/>
			</g>
			<g id="XMLID_670_">
				<rect id="XMLID_1066_" x="-536.8" y="404" class="st12" width="39.6" height="4.1"/>
			</g>
			<g id="XMLID_669_">
				<rect id="XMLID_1064_" x="-536.8" y="412.6" class="st12" width="39.6" height="4.1"/>
			</g>
		</g>
		<g id="XMLID_634_">
			<g id="XMLID_667_">
				<polygon id="XMLID_1061_" class="st13" points="-503.8,320.2 -536.8,320.2 -536.8,375.2 -503.8,375.2 				"/>
			</g>
			<g id="XMLID_664_">
				<rect id="XMLID_846_" x="-494.4" y="320.2" class="st14" width="119.3" height="55"/>
			</g>
			<g id="XMLID_648_">
				<g id="XMLID_663_">
					<path id="XMLID_1057_" class="st15" d="M-487.5,345.8h-32.7c-2.9,0-5.2-2.3-5.2-5.2v-24.1c0-2.9,2.3-5.2,5.2-5.2h32.7
						c2.9,0,5.2,2.3,5.2,5.2v24.1C-482.2,343.4-484.6,345.8-487.5,345.8z"/>
				</g>
				<g id="XMLID_649_">
					<g id="XMLID_662_">
						<path id="XMLID_817_" class="st16" d="M-520,320L-520,320c-1.9,0-3.4-1.5-3.4-3.3v-0.4c0-1.8,1.5-3.3,3.3-3.3h0.1
							c1.8,0,3.3,1.5,3.3,3.3v0.4C-516.7,318.5-518.2,320-520,320z"/>
						<path id="XMLID_821_" class="st15" d="M-518.7,321.1h-2.7c-1.7,0-3.1-1.4-3.1-3.1v-3c0-1.7,1.4-3.1,3.1-3.1h2.7
							c1.7,0,3.1,1.4,3.1,3.1v3C-515.6,319.7-517,321.1-518.7,321.1z M-521.4,314.1c-0.5,0-0.9,0.4-0.9,0.9v3c0,0.5,0.4,0.9,0.9,0.9
							h2.7c0.5,0,0.9-0.4,0.9-0.9v-3c0-0.5-0.4-0.9-0.9-0.9H-521.4z"/>
					</g>
					<g id="XMLID_661_">
						<g id="XMLID_822_">
							<g>
								<g>
									<g>
										<defs>
											<path id="SVGID_1_" d="M-511.8,320h-0.2c-1.8,0-3.3-1.5-3.3-3.3v-0.4c0-1.8,1.5-3.3,3.3-3.3h0.1c1.8,0,3.3,1.5,3.3,3.3
												v0.4C-508.5,318.5-510,320-511.8,320z"/>
										</defs>
										<clipPath id="SVGID_2_">
											<use xlink:href="#SVGID_1_"  style="overflow:visible;"/>
										</clipPath>
										<path id="XMLID_825_" class="st17" d="M-515.2,313v7V313z"/>
									</g>
								</g>
							</g>
							<g>
								<g>
									<g>
										<defs>
											<path id="SVGID_3_" d="M-511.8,320h-0.2c-1.8,0-3.3-1.5-3.3-3.3v-0.4c0-1.8,1.5-3.3,3.3-3.3h0.1c1.8,0,3.3,1.5,3.3,3.3
												v0.4C-508.5,318.5-510,320-511.8,320z"/>
										</defs>
										<clipPath id="SVGID_4_">
											<use xlink:href="#SVGID_3_"  style="overflow:visible;"/>
										</clipPath>
										<rect id="XMLID_826_" x="-515.2" y="313" class="st18" width="0.4" height="7"/>
									</g>
								</g>
							</g>
							<g>
								<g>
									<g>
										<defs>
											<path id="SVGID_5_" d="M-511.8,320h-0.2c-1.8,0-3.3-1.5-3.3-3.3v-0.4c0-1.8,1.5-3.3,3.3-3.3h0.1c1.8,0,3.3,1.5,3.3,3.3
												v0.4C-508.5,318.5-510,320-511.8,320z"/>
										</defs>
										<clipPath id="SVGID_6_">
											<use xlink:href="#SVGID_5_"  style="overflow:visible;"/>
										</clipPath>
										<rect id="XMLID_827_" x="-514.8" y="313" class="st19" width="0.4" height="7"/>
									</g>
								</g>
							</g>
							<g>
								<g>
									<g>
										<defs>
											<path id="SVGID_7_" d="M-511.8,320h-0.2c-1.8,0-3.3-1.5-3.3-3.3v-0.4c0-1.8,1.5-3.3,3.3-3.3h0.1c1.8,0,3.3,1.5,3.3,3.3
												v0.4C-508.5,318.5-510,320-511.8,320z"/>
										</defs>
										<clipPath id="SVGID_8_">
											<use xlink:href="#SVGID_7_"  style="overflow:visible;"/>
										</clipPath>
										<rect id="XMLID_828_" x="-514.5" y="313" class="st20" width="0.4" height="7"/>
									</g>
								</g>
							</g>
							<g>
								<g>
									<g>
										<defs>
											<path id="SVGID_9_" d="M-511.8,320h-0.2c-1.8,0-3.3-1.5-3.3-3.3v-0.4c0-1.8,1.5-3.3,3.3-3.3h0.1c1.8,0,3.3,1.5,3.3,3.3
												v0.4C-508.5,318.5-510,320-511.8,320z"/>
										</defs>
										<clipPath id="SVGID_10_">
											<use xlink:href="#SVGID_9_"  style="overflow:visible;"/>
										</clipPath>
										<rect id="XMLID_829_" x="-514.1" y="313" class="st21" width="0.4" height="7"/>
									</g>
								</g>
							</g>
							<g>
								<g>
									<g>
										<defs>
											<path id="SVGID_11_" d="M-511.8,320h-0.2c-1.8,0-3.3-1.5-3.3-3.3v-0.4c0-1.8,1.5-3.3,3.3-3.3h0.1c1.8,0,3.3,1.5,3.3,3.3
												v0.4C-508.5,318.5-510,320-511.8,320z"/>
										</defs>
										<clipPath id="SVGID_12_">
											<use xlink:href="#SVGID_11_"  style="overflow:visible;"/>
										</clipPath>
										<rect id="XMLID_830_" x="-513.7" y="313" class="st22" width="0.4" height="7"/>
									</g>
								</g>
							</g>
							<g>
								<g>
									<g>
										<defs>
											<path id="SVGID_13_" d="M-511.8,320h-0.2c-1.8,0-3.3-1.5-3.3-3.3v-0.4c0-1.8,1.5-3.3,3.3-3.3h0.1c1.8,0,3.3,1.5,3.3,3.3
												v0.4C-508.5,318.5-510,320-511.8,320z"/>
										</defs>
										<clipPath id="SVGID_14_">
											<use xlink:href="#SVGID_13_"  style="overflow:visible;"/>
										</clipPath>
										<rect id="XMLID_831_" x="-513.3" y="313" class="st23" width="0.4" height="7"/>
									</g>
								</g>
							</g>
							<g>
								<g>
									<g>
										<defs>
											<path id="SVGID_15_" d="M-511.8,320h-0.2c-1.8,0-3.3-1.5-3.3-3.3v-0.4c0-1.8,1.5-3.3,3.3-3.3h0.1c1.8,0,3.3,1.5,3.3,3.3
												v0.4C-508.5,318.5-510,320-511.8,320z"/>
										</defs>
										<clipPath id="SVGID_16_">
											<use xlink:href="#SVGID_15_"  style="overflow:visible;"/>
										</clipPath>
										<rect id="XMLID_832_" x="-512.9" y="313" class="st24" width="0.4" height="7"/>
									</g>
								</g>
							</g>
							<g>
								<g>
									<g>
										<defs>
											<path id="SVGID_17_" d="M-511.8,320h-0.2c-1.8,0-3.3-1.5-3.3-3.3v-0.4c0-1.8,1.5-3.3,3.3-3.3h0.1c1.8,0,3.3,1.5,3.3,3.3
												v0.4C-508.5,318.5-510,320-511.8,320z"/>
										</defs>
										<clipPath id="SVGID_18_">
											<use xlink:href="#SVGID_17_"  style="overflow:visible;"/>
										</clipPath>
										<rect id="XMLID_833_" x="-512.5" y="313" class="st25" width="0.4" height="7"/>
									</g>
								</g>
							</g>
							<g>
								<g>
									<g>
										<defs>
											<path id="SVGID_19_" d="M-511.8,320h-0.2c-1.8,0-3.3-1.5-3.3-3.3v-0.4c0-1.8,1.5-3.3,3.3-3.3h0.1c1.8,0,3.3,1.5,3.3,3.3
												v0.4C-508.5,318.5-510,320-511.8,320z"/>
										</defs>
										<clipPath id="SVGID_20_">
											<use xlink:href="#SVGID_19_"  style="overflow:visible;"/>
										</clipPath>
										<rect id="XMLID_834_" x="-512.1" y="313" class="st26" width="0.4" height="7"/>
									</g>
								</g>
							</g>
							<g>
								<g>
									<g>
										<defs>
											<path id="SVGID_21_" d="M-511.8,320h-0.2c-1.8,0-3.3-1.5-3.3-3.3v-0.4c0-1.8,1.5-3.3,3.3-3.3h0.1c1.8,0,3.3,1.5,3.3,3.3
												v0.4C-508.5,318.5-510,320-511.8,320z"/>
										</defs>
										<clipPath id="SVGID_22_">
											<use xlink:href="#SVGID_21_"  style="overflow:visible;"/>
										</clipPath>
										<rect id="XMLID_835_" x="-511.7" y="313" class="st27" width="0.4" height="7"/>
									</g>
								</g>
							</g>
							<g>
								<g>
									<g>
										<defs>
											<path id="SVGID_23_" d="M-511.8,320h-0.2c-1.8,0-3.3-1.5-3.3-3.3v-0.4c0-1.8,1.5-3.3,3.3-3.3h0.1c1.8,0,3.3,1.5,3.3,3.3
												v0.4C-508.5,318.5-510,320-511.8,320z"/>
										</defs>
										<clipPath id="SVGID_24_">
											<use xlink:href="#SVGID_23_"  style="overflow:visible;"/>
										</clipPath>
										<rect id="XMLID_836_" x="-511.3" y="313" class="st28" width="0.4" height="7"/>
									</g>
								</g>
							</g>
							<g>
								<g>
									<g>
										<defs>
											<path id="SVGID_25_" d="M-511.8,320h-0.2c-1.8,0-3.3-1.5-3.3-3.3v-0.4c0-1.8,1.5-3.3,3.3-3.3h0.1c1.8,0,3.3,1.5,3.3,3.3
												v0.4C-508.5,318.5-510,320-511.8,320z"/>
										</defs>
										<clipPath id="SVGID_26_">
											<use xlink:href="#SVGID_25_"  style="overflow:visible;"/>
										</clipPath>
										<rect id="XMLID_837_" x="-510.9" y="313" class="st29" width="0.4" height="7"/>
									</g>
								</g>
							</g>
							<g>
								<g>
									<g>
										<defs>
											<path id="SVGID_27_" d="M-511.8,320h-0.2c-1.8,0-3.3-1.5-3.3-3.3v-0.4c0-1.8,1.5-3.3,3.3-3.3h0.1c1.8,0,3.3,1.5,3.3,3.3
												v0.4C-508.5,318.5-510,320-511.8,320z"/>
										</defs>
										<clipPath id="SVGID_28_">
											<use xlink:href="#SVGID_27_"  style="overflow:visible;"/>
										</clipPath>
										<rect id="XMLID_838_" x="-510.5" y="313" class="st30" width="0.4" height="7"/>
									</g>
								</g>
							</g>
							<g>
								<g>
									<g>
										<defs>
											<path id="SVGID_29_" d="M-511.8,320h-0.2c-1.8,0-3.3-1.5-3.3-3.3v-0.4c0-1.8,1.5-3.3,3.3-3.3h0.1c1.8,0,3.3,1.5,3.3,3.3
												v0.4C-508.5,318.5-510,320-511.8,320z"/>
										</defs>
										<clipPath id="SVGID_30_">
											<use xlink:href="#SVGID_29_"  style="overflow:visible;"/>
										</clipPath>
										<rect id="XMLID_839_" x="-510.1" y="313" class="st31" width="0.4" height="7"/>
									</g>
								</g>
							</g>
							<g>
								<g>
									<g>
										<defs>
											<path id="SVGID_31_" d="M-511.8,320h-0.2c-1.8,0-3.3-1.5-3.3-3.3v-0.4c0-1.8,1.5-3.3,3.3-3.3h0.1c1.8,0,3.3,1.5,3.3,3.3
												v0.4C-508.5,318.5-510,320-511.8,320z"/>
										</defs>
										<clipPath id="SVGID_32_">
											<use xlink:href="#SVGID_31_"  style="overflow:visible;"/>
										</clipPath>
										<rect id="XMLID_840_" x="-509.7" y="313" class="st32" width="0.4" height="7"/>
									</g>
								</g>
							</g>
							<g>
								<g>
									<g>
										<defs>
											<path id="SVGID_33_" d="M-511.8,320h-0.2c-1.8,0-3.3-1.5-3.3-3.3v-0.4c0-1.8,1.5-3.3,3.3-3.3h0.1c1.8,0,3.3,1.5,3.3,3.3
												v0.4C-508.5,318.5-510,320-511.8,320z"/>
										</defs>
										<clipPath id="SVGID_34_">
											<use xlink:href="#SVGID_33_"  style="overflow:visible;"/>
										</clipPath>
										<rect id="XMLID_841_" x="-509.3" y="313" class="st33" width="0.4" height="7"/>
									</g>
								</g>
							</g>
							<g>
								<g>
									<g>
										<defs>
											<path id="SVGID_35_" d="M-511.8,320h-0.2c-1.8,0-3.3-1.5-3.3-3.3v-0.4c0-1.8,1.5-3.3,3.3-3.3h0.1c1.8,0,3.3,1.5,3.3,3.3
												v0.4C-508.5,318.5-510,320-511.8,320z"/>
										</defs>
										<clipPath id="SVGID_36_">
											<use xlink:href="#SVGID_35_"  style="overflow:visible;"/>
										</clipPath>
										<rect id="XMLID_842_" x="-508.9" y="313" class="st34" width="0.4" height="7"/>
									</g>
								</g>
							</g>
							<g>
								<g>
									<g>
										<defs>
											<path id="SVGID_37_" d="M-511.8,320h-0.2c-1.8,0-3.3-1.5-3.3-3.3v-0.4c0-1.8,1.5-3.3,3.3-3.3h0.1c1.8,0,3.3,1.5,3.3,3.3
												v0.4C-508.5,318.5-510,320-511.8,320z"/>
										</defs>
										<clipPath id="SVGID_38_">
											<use xlink:href="#SVGID_37_"  style="overflow:visible;"/>
										</clipPath>
										<path id="XMLID_843_" class="st35" d="M-508.5,320v-7V320z"/>
									</g>
								</g>
							</g>
						</g>
						<path id="XMLID_818_" class="st15" d="M-510.5,321.1h-2.7c-1.7,0-3.1-1.4-3.1-3.1v-3c0-1.7,1.4-3.1,3.1-3.1h2.7
							c1.7,0,3.1,1.4,3.1,3.1v3C-507.4,319.7-508.8,321.1-510.5,321.1z M-513.2,314.1c-0.5,0-0.9,0.4-0.9,0.9v3
							c0,0.5,0.4,0.9,0.9,0.9h2.7c0.5,0,0.9-0.4,0.9-0.9v-3c0-0.5-0.4-0.9-0.9-0.9H-513.2z"/>
					</g>
					<g id="XMLID_660_">
						<path id="XMLID_813_" class="st36" d="M-503.7,320L-503.7,320c-1.9,0-3.4-1.5-3.4-3.3v-0.4c0-1.8,1.5-3.3,3.3-3.3h0.1
							c1.8,0,3.3,1.5,3.3,3.3v0.4C-500.4,318.5-501.8,320-503.7,320z"/>
						<path id="XMLID_814_" class="st15" d="M-502.4,321.1h-2.7c-1.7,0-3.1-1.4-3.1-3.1v-3c0-1.7,1.4-3.1,3.1-3.1h2.7
							c1.7,0,3.1,1.4,3.1,3.1v3C-499.2,319.7-500.6,321.1-502.4,321.1z M-505.1,314.1c-0.5,0-0.9,0.4-0.9,0.9v3
							c0,0.5,0.4,0.9,0.9,0.9h2.7c0.5,0,0.9-0.4,0.9-0.9v-3c0-0.5-0.4-0.9-0.9-0.9H-505.1z"/>
					</g>
					<g id="XMLID_659_">
						<path id="XMLID_809_" class="st37" d="M-495.5,320h-0.1c-1.8,0-3.3-1.5-3.3-3.3v-0.4c0-1.8,1.5-3.3,3.3-3.3h0.1
							c1.8,0,3.3,1.5,3.3,3.3v0.4C-492.2,318.5-493.7,320-495.5,320z"/>
						<path id="XMLID_810_" class="st15" d="M-494.2,321.1h-2.7c-1.7,0-3.1-1.4-3.1-3.1v-3c0-1.7,1.4-3.1,3.1-3.1h2.7
							c1.7,0,3.1,1.4,3.1,3.1v3C-491,319.7-492.4,321.1-494.2,321.1z M-496.9,314.1c-0.5,0-0.9,0.4-0.9,0.9v3c0,0.5,0.4,0.9,0.9,0.9
							h2.7c0.5,0,0.9-0.4,0.9-0.9v-3c0-0.5-0.4-0.9-0.9-0.9H-496.9z"/>
					</g>
					<g id="XMLID_658_">
						<path id="XMLID_805_" class="st38" d="M-487.3,320h-0.1c-1.8,0-3.3-1.5-3.3-3.3v-0.4c0-1.8,1.5-3.3,3.3-3.3h0.1
							c1.8,0,3.3,1.5,3.3,3.3v0.4C-484,318.5-485.5,320-487.3,320z"/>
						<path id="XMLID_806_" class="st15" d="M-486,321.1h-2.7c-1.7,0-3.1-1.4-3.1-3.1v-3c0-1.7,1.4-3.1,3.1-3.1h2.7
							c1.7,0,3.1,1.4,3.1,3.1v3C-482.9,319.7-484.3,321.1-486,321.1z M-488.7,314.1c-0.5,0-0.9,0.4-0.9,0.9v3c0,0.5,0.4,0.9,0.9,0.9
							h2.7c0.5,0,0.9-0.4,0.9-0.9v-3c0-0.5-0.4-0.9-0.9-0.9H-488.7z"/>
					</g>
					<g id="XMLID_657_">
						<path id="XMLID_801_" class="st39" d="M-520,328.6L-520,328.6c-1.9,0-3.4-1.5-3.4-3.3v-0.4c0-1.8,1.5-3.3,3.3-3.3h0.1
							c1.8,0,3.3,1.5,3.3,3.3v0.4C-516.7,327.1-518.2,328.6-520,328.6z"/>
						<path id="XMLID_802_" class="st15" d="M-518.7,329.7h-2.7c-1.7,0-3.1-1.4-3.1-3.1v-3c0-1.7,1.4-3.1,3.1-3.1h2.7
							c1.7,0,3.1,1.4,3.1,3.1v3C-515.6,328.3-517,329.7-518.7,329.7z M-521.4,322.7c-0.5,0-0.9,0.4-0.9,0.9v3c0,0.5,0.4,0.9,0.9,0.9
							h2.7c0.5,0,0.9-0.4,0.9-0.9v-3c0-0.5-0.4-0.9-0.9-0.9H-521.4z"/>
					</g>
					<g id="XMLID_656_">
						<path id="XMLID_719_" class="st40" d="M-511.8,328.6h-0.2c-1.8,0-3.3-1.5-3.3-3.3v-0.4c0-1.8,1.5-3.3,3.3-3.3h0.1
							c1.8,0,3.3,1.5,3.3,3.3v0.4C-508.5,327.1-510,328.6-511.8,328.6z"/>
						<path id="XMLID_798_" class="st15" d="M-510.5,329.7h-2.7c-1.7,0-3.1-1.4-3.1-3.1v-3c0-1.7,1.4-3.1,3.1-3.1h2.7
							c1.7,0,3.1,1.4,3.1,3.1v3C-507.4,328.3-508.8,329.7-510.5,329.7z M-513.2,322.7c-0.5,0-0.9,0.4-0.9,0.9v3
							c0,0.5,0.4,0.9,0.9,0.9h2.7c0.5,0,0.9-0.4,0.9-0.9v-3c0-0.5-0.4-0.9-0.9-0.9H-513.2z"/>
					</g>
					<g id="XMLID_655_">
						<path id="XMLID_713_" class="st41" d="M-503.7,328.6L-503.7,328.6c-1.9,0-3.4-1.5-3.4-3.3v-0.4c0-1.8,1.5-3.3,3.3-3.3h0.1
							c1.8,0,3.3,1.5,3.3,3.3v0.4C-500.4,327.1-501.8,328.6-503.7,328.6z"/>
						<path id="XMLID_715_" class="st15" d="M-502.4,329.7h-2.7c-1.7,0-3.1-1.4-3.1-3.1v-3c0-1.7,1.4-3.1,3.1-3.1h2.7
							c1.7,0,3.1,1.4,3.1,3.1v3C-499.2,328.3-500.6,329.7-502.4,329.7z M-505.1,322.7c-0.5,0-0.9,0.4-0.9,0.9v3
							c0,0.5,0.4,0.9,0.9,0.9h2.7c0.5,0,0.9-0.4,0.9-0.9v-3c0-0.5-0.4-0.9-0.9-0.9H-505.1z"/>
					</g>
					<g id="XMLID_654_">
						<path id="XMLID_706_" class="st42" d="M-495.5,328.6h-0.1c-1.8,0-3.3-1.5-3.3-3.3v-0.4c0-1.8,1.5-3.3,3.3-3.3h0.1
							c1.8,0,3.3,1.5,3.3,3.3v0.4C-492.2,327.1-493.7,328.6-495.5,328.6z"/>
						<path id="XMLID_709_" class="st15" d="M-494.2,329.7h-2.7c-1.7,0-3.1-1.4-3.1-3.1v-3c0-1.7,1.4-3.1,3.1-3.1h2.7
							c1.7,0,3.1,1.4,3.1,3.1v3C-491,328.3-492.4,329.7-494.2,329.7z M-496.9,322.7c-0.5,0-0.9,0.4-0.9,0.9v3c0,0.5,0.4,0.9,0.9,0.9
							h2.7c0.5,0,0.9-0.4,0.9-0.9v-3c0-0.5-0.4-0.9-0.9-0.9H-496.9z"/>
					</g>
					<g id="XMLID_652_">
						<path id="XMLID_699_" class="st43" d="M-487.3,328.6h-0.1c-1.8,0-3.3-1.5-3.3-3.3v-0.4c0-1.8,1.5-3.3,3.3-3.3h0.1
							c1.8,0,3.3,1.5,3.3,3.3v0.4C-484,327.1-485.5,328.6-487.3,328.6z"/>
						<path id="XMLID_701_" class="st15" d="M-486,329.7h-2.7c-1.7,0-3.1-1.4-3.1-3.1v-3c0-1.7,1.4-3.1,3.1-3.1h2.7
							c1.7,0,3.1,1.4,3.1,3.1v3C-482.9,328.3-484.3,329.7-486,329.7z M-488.7,322.7c-0.5,0-0.9,0.4-0.9,0.9v3c0,0.5,0.4,0.9,0.9,0.9
							h2.7c0.5,0,0.9-0.4,0.9-0.9v-3c0-0.5-0.4-0.9-0.9-0.9H-488.7z"/>
					</g>
					<g id="XMLID_651_">
						<path id="XMLID_693_" class="st44" d="M-520,337.1L-520,337.1c-1.9,0-3.4-1.5-3.4-3.3v-0.4c0-1.8,1.5-3.3,3.3-3.3h0.1
							c1.8,0,3.3,1.5,3.3,3.3v0.4C-516.7,335.6-518.2,337.1-520,337.1z"/>
						<path id="XMLID_694_" class="st15" d="M-518.7,338.2h-2.7c-1.7,0-3.1-1.4-3.1-3.1v-3c0-1.7,1.4-3.1,3.1-3.1h2.7
							c1.7,0,3.1,1.4,3.1,3.1v3C-515.6,336.8-517,338.2-518.7,338.2z M-521.4,331.2c-0.5,0-0.9,0.4-0.9,0.9v3c0,0.5,0.4,0.9,0.9,0.9
							h2.7c0.5,0,0.9-0.4,0.9-0.9v-3c0-0.5-0.4-0.9-0.9-0.9H-521.4z"/>
					</g>
					<g id="XMLID_650_">
						<path id="XMLID_689_" class="st45" d="M-511.8,337.1h-0.2c-1.8,0-3.3-1.5-3.3-3.3v-0.4c0-1.8,1.5-3.3,3.3-3.3h0.1
							c1.8,0,3.3,1.5,3.3,3.3v0.4C-508.5,335.6-510,337.1-511.8,337.1z"/>
						<path id="XMLID_690_" class="st15" d="M-510.5,338.2h-2.7c-1.7,0-3.1-1.4-3.1-3.1v-3c0-1.7,1.4-3.1,3.1-3.1h2.7
							c1.7,0,3.1,1.4,3.1,3.1v3C-507.4,336.8-508.8,338.2-510.5,338.2z M-513.2,331.2c-0.5,0-0.9,0.4-0.9,0.9v3
							c0,0.5,0.4,0.9,0.9,0.9h2.7c0.5,0,0.9-0.4,0.9-0.9v-3c0-0.5-0.4-0.9-0.9-0.9H-513.2z"/>
					</g>
				</g>
			</g>
			<g id="XMLID_635_">
				<g id="XMLID_641_">
					<g id="XMLID_642_">
						<g id="XMLID_647_">
							<polygon id="XMLID_973_" class="st46" points="-414.8,381.3 -465.4,381.3 -465.4,338.5 -414.8,338.5 							"/>
						</g>
						<g id="XMLID_643_">
							<path id="XMLID_968_" class="st47" d="M-420.3,337h-26.1h-20.5v45.8h7h39.6h7V337H-420.3z M-416.3,379.8h-47.6V340h14.8h28.8
								h4L-416.3,379.8L-416.3,379.8z"/>
						</g>
					</g>
				</g>
				<g id="XMLID_640_">
					<rect id="XMLID_685_" x="-467.9" y="375.8" class="st16" width="8" height="8"/>
					<path id="XMLID_686_" class="st47" d="M-457.7,386h-12.4v-12.4h12.4V386z M-465.7,381.7h3.7V378h-3.7V381.7z"/>
				</g>
				<g id="XMLID_639_">
					<rect id="XMLID_681_" x="-420.3" y="375.8" class="st16" width="8" height="8"/>
					<path id="XMLID_682_" class="st47" d="M-410.1,386h-12.4v-12.4h12.4V386z M-418.1,381.7h3.7V378h-3.7V381.7z"/>
				</g>
				<g id="XMLID_638_">
					<rect id="XMLID_666_" x="-467.9" y="335.2" class="st16" width="8" height="8"/>
					<path id="XMLID_675_" class="st47" d="M-457.7,345.4h-12.4V333h12.4V345.4z M-465.7,341.1h3.7v-3.7h-3.7V341.1z"/>
				</g>
				<g id="XMLID_637_">
					<rect id="XMLID_601_" x="-420.3" y="335.2" class="st16" width="8" height="8"/>
					<path id="XMLID_602_" class="st47" d="M-410.1,345.4h-12.4V333h12.4V345.4z M-418.1,341.1h3.7v-3.7h-3.7V341.1z"/>
				</g>
				<g id="XMLID_636_">
					<rect id="XMLID_597_" x="-444.1" y="355.9" class="st16" width="8" height="8"/>
					<path id="XMLID_598_" class="st48" d="M-433.9,366.1h-12.4v-12.4h12.4V366.1z M-441.9,361.7h3.7V358h-3.7V361.7z"/>
				</g>
			</g>
		</g>
		<g id="XMLID_617_">
			<g id="XMLID_633_">
				<path id="XMLID_937_" class="st49" d="M-535.4,383.6h-2.9c-2.2,0-4-1.8-4-4v-68.4c0-2.2,1.8-4,4-4h2.9c2.2,0,4,1.8,4,4v68.4
					C-531.3,381.8-533.1,383.6-535.4,383.6z"/>
			</g>
			<g id="XMLID_620_" class="st50">
				<g id="XMLID_631_">
					<g id="XMLID_632_">
						<path id="XMLID_935_" class="st51" d="M-535.8,361.2h-2.4c-0.9,0-1.6-0.7-1.6-1.6V357c0-0.9,0.7-1.6,1.6-1.6h2.4
							c0.9,0,1.6,0.7,1.6,1.6v2.6C-534.2,360.5-534.9,361.2-535.8,361.2z"/>
					</g>
				</g>
				<g id="XMLID_629_">
					<g id="XMLID_630_">
						<path id="XMLID_932_" class="st51" d="M-535.8,352.2h-2.4c-0.9,0-1.6-0.7-1.6-1.6V348c0-0.9,0.7-1.6,1.6-1.6h2.4
							c0.9,0,1.6,0.7,1.6,1.6v2.6C-534.2,351.4-534.9,352.2-535.8,352.2z"/>
					</g>
				</g>
				<g id="XMLID_627_">
					<g id="XMLID_628_">
						<path id="XMLID_929_" class="st51" d="M-535.8,343.1h-2.4c-0.9,0-1.6-0.7-1.6-1.6v-2.6c0-0.9,0.7-1.6,1.6-1.6h2.4
							c0.9,0,1.6,0.7,1.6,1.6v2.6C-534.2,342.4-534.9,343.1-535.8,343.1z"/>
					</g>
				</g>
				<g id="XMLID_625_">
					<g id="XMLID_626_">
						<path id="XMLID_926_" class="st51" d="M-535.8,334.1h-2.4c-0.9,0-1.6-0.7-1.6-1.6v-2.6c0-0.9,0.7-1.6,1.6-1.6h2.4
							c0.9,0,1.6,0.7,1.6,1.6v2.6C-534.2,333.3-534.9,334.1-535.8,334.1z"/>
					</g>
				</g>
				<g id="XMLID_623_">
					<g id="XMLID_624_">
						<path id="XMLID_923_" class="st51" d="M-535.8,325h-2.4c-0.9,0-1.6-0.7-1.6-1.6v-2.6c0-0.9,0.7-1.6,1.6-1.6h2.4
							c0.9,0,1.6,0.7,1.6,1.6v2.6C-534.2,324.3-534.9,325-535.8,325z"/>
					</g>
				</g>
				<g id="XMLID_621_">
					<g id="XMLID_622_">
						<path id="XMLID_920_" class="st51" d="M-535.8,315.9h-2.4c-0.9,0-1.6-0.7-1.6-1.6v-2.6c0-0.9,0.7-1.6,1.6-1.6h2.4
							c0.9,0,1.6,0.7,1.6,1.6v2.6C-534.2,315.2-534.9,315.9-535.8,315.9z"/>
					</g>
				</g>
			</g>
			<g id="XMLID_619_">
				<path id="XMLID_916_" class="st52" d="M-535.4,378.4L-535.4,378.4c-1.6,0-2.8-1.2-2.8-2.7v-0.4c0-1.5,1.2-2.7,2.7-2.7h0.1
					c1.5,0,2.7,1.2,2.7,2.7v0.4C-532.7,377.1-533.9,378.4-535.4,378.4z"/>
			</g>
			<g id="XMLID_618_">
				<path id="XMLID_593_" class="st53" d="M-537.8,376.6L-537.8,376.6c-1.6,0-2.8-1.2-2.8-2.7v-0.4c0-1.5,1.2-2.7,2.7-2.7h0.1
					c1.5,0,2.7,1.2,2.7,2.7v0.4C-535,375.3-536.3,376.6-537.8,376.6z"/>
				<path id="XMLID_594_" class="st54" d="M-537.3,377.9h-1.1c-1.9,0-3.5-1.6-3.5-3.5V373c0-1.9,1.6-3.5,3.5-3.5h1.1
					c1.9,0,3.5,1.6,3.5,3.5v1.4C-533.7,376.3-535.3,377.9-537.3,377.9z M-538.4,372c-0.5,0-0.9,0.4-0.9,0.9v1.4
					c0,0.5,0.4,0.9,0.9,0.9h1.1c0.5,0,0.9-0.4,0.9-0.9v-1.4c0-0.5-0.4-0.9-0.9-0.9H-538.4z"/>
			</g>
		</g>
		<g id="XMLID_615_" class="st8">
			<g id="XMLID_616_">
				<path id="XMLID_908_" class="st16" d="M-414.9,302.3L-526,424.9h-20.8c-0.6,0-1.1-0.5-1.1-1.1l-0.1-120.4c0-0.6,0.5-1.1,1.1-1.1
					H-414.9z"/>
			</g>
		</g>
		<g id="XMLID_614_" class="st55">
			<ellipse id="XMLID_591_" class="st16" cx="-364.3" cy="362.3" rx="3.7" ry="3.8"/>
		</g>
		<g id="XMLID_612_">
			<g id="XMLID_613_">
				<path id="XMLID_592_" class="st56" d="M-558.8,376.9c-1.4,0-2.6-1.2-2.6-2.6l-0.1-24.8c0-1.4,1.2-2.6,2.6-2.6l0,0
					c1.4,0,2.6,1.2,2.6,2.6l0.1,24.8C-556.2,375.7-557.3,376.9-558.8,376.9L-558.8,376.9z"/>
			</g>
		</g>
		<g id="XMLID_608_">
			<g id="XMLID_611_">
				<rect id="XMLID_900_" x="-481.7" y="393.3" class="st11" width="46.8" height="5.2"/>
			</g>
			<g id="XMLID_610_">
				<rect id="XMLID_898_" x="-481.7" y="404" class="st12" width="39.6" height="4.1"/>
			</g>
			<g id="XMLID_609_">
				<rect id="XMLID_896_" x="-481.7" y="412.6" class="st12" width="39.6" height="4.1"/>
			</g>
		</g>
		<g id="XMLID_604_">
			<g id="XMLID_607_">
				<rect id="XMLID_893_" x="-426.5" y="393.3" class="st11" width="51.5" height="5.2"/>
			</g>
			<g id="XMLID_606_">
				<rect id="XMLID_891_" x="-426.5" y="404" class="st12" width="45.2" height="4.1"/>
			</g>
			<g id="XMLID_605_">
				<rect id="XMLID_889_" x="-426.5" y="412.6" class="st12" width="45.2" height="4.1"/>
			</g>
		</g>
	</g>
	<g id="XMLID_2_">
		<g id="XMLID_580_">
			<polyline id="XMLID_1_" class="st57" points="-551.4,226.1 -520.1,228.3 -520.1,267.1 -551.4,264 			"/>
		</g>
		<g id="XMLID_570_">
			<polyline id="XMLID_589_" class="st58" points="-568.8,191.2 -548,191.2 -548,216.6 -568.8,214.7 			"/>
		</g>
		<g id="XMLID_564_">
			<polyline id="XMLID_587_" class="st46" points="-538.9,164.3 -538.9,206 -501.3,209 -501.3,165.1 			"/>
		</g>
		<g id="XMLID_565_">
			<polyline id="XMLID_585_" class="st59" points="-525.6,159.6 -520.1,159.6 -520.1,172.7 -525.6,172.4 			"/>
		</g>
		<g id="XMLID_578_">
			<polyline id="XMLID_583_" class="st59" points="-561.2,187 -557.4,187 -557.4,196 -561.2,195.8 			"/>
		</g>
		<g id="XMLID_584_">
			<polyline id="XMLID_581_" class="st59" points="-538.9,223 -533.2,223 -533.2,235.2 -538.9,235.2 			"/>
		</g>
	</g>
	<g id="XMLID_496_">
		<g id="XMLID_359_">
			<path id="XMLID_867_" class="st60" d="M-441.8,478.7l-5.8-4.1c1.3-2.1,2-4.4,1.9-6.8c-0.3-7.8-8.7-13.8-18.6-13.6
				c-5.6,0.2-10.7,2.3-14,5.8c-0.3,0.3-0.5,0.6-0.8,0.9c-5,1.7-11.2,1.9-16.3,0.5c-3.4-3.7-9-6.1-15.3-5.9c-5.6,0.2-10.7,2.3-14,5.8
				c-2.4,2.6-3.6,5.6-3.5,8.8c0.1,2.5,1.1,4.8,2.6,6.8l-5.2,4.2c-0.7,0.6-0.8,1.7-0.2,2.4c0.1,0.1,0.1,0.2,0.2,0.2
				c0.6,0.5,1.5,0.5,2.1,0l5.4-4.4c3.4,2.8,8.3,4.5,13.6,4.3c5.6-0.2,10.7-2.3,14-5.8c2.4-2.6,3.6-5.6,3.5-8.8c0-0.3,0-0.7-0.1-1
				c0.3-0.3,0.6-0.5,1-0.8l4.4-0.3l4.1,0.1c0.3,0.2,0.6,0.4,1,0.7c0,0.3,0,0.7,0,1c0.1,3.6,2,6.7,4.9,9.2c3.4,2.8,8.3,4.6,13.7,4.4
				c5.3-0.1,10.1-2,13.4-5.2l6,4.3c0.8,0.5,1.8,0.4,2.4-0.4C-440.9,480.3-441.1,479.2-441.8,478.7z"/>
		</g>
		<g id="XMLID_497_">
			<g id="XMLID_358_">
				<path id="XMLID_869_" class="st61" d="M-528.7,479c-0.7,0-1.4-0.3-1.9-0.9c-0.8-1-0.7-2.6,0.3-3.4l18.8-15.4
					c0.4-0.3,0.9-0.5,1.4-0.5l61.2-4.7c1.3-0.1,2.5,0.9,2.6,2.2c0.1,1.3-0.9,2.5-2.2,2.6l-60.4,4.6l-18.2,14.9
					C-527.7,478.8-528.2,479-528.7,479z"/>
			</g>
			<g id="XMLID_357_">
				<path id="XMLID_868_" class="st61" d="M-441.9,476.6c-0.5,0-1-0.1-1.4-0.5l-19.5-13.8l-60.7-1.3c-1.3,0-2.4-1.1-2.4-2.5
					c0-1.3,1.1-2.4,2.5-2.4l61.4,1.3c0.5,0,1,0.2,1.4,0.4l20.1,14.3c1.1,0.8,1.3,2.3,0.6,3.4C-440.4,476.2-441.2,476.6-441.9,476.6z
					"/>
			</g>
			<g id="XMLID_356_" class="st62">
				<path id="XMLID_866_" class="st63" d="M-494.5,457.4l-10.6,12.4c-3.8,0.8-6.7-0.7-9.7-2.9l12.3-15
					C-499.1,453-496.3,454.9-494.5,457.4z"/>
			</g>
			<g id="XMLID_355_" class="st8">
				<path id="XMLID_865_" class="st64" d="M-508.7,476.5c-9.3,0.3-17-5.3-17.3-12.4s7-13.1,16.2-13.3c2.6-0.1,5.1,0.3,7.3,1.1
					c3.4,1.1,6.2,3.1,8,5.6c1.2,1.7,2,3.7,2.1,5.8C-492.1,470.3-499.4,476.3-508.7,476.5z"/>
			</g>
			<g id="XMLID_354_" class="st8">
				<path id="XMLID_861_" class="st64" d="M-446.1,461.9c0.3,7.1-7,13.1-16.3,13.3c-9.3,0.3-17-5.3-17.3-12.4s7-13.1,16.3-13.3
					C-454.2,449.2-446.4,454.8-446.1,461.9z"/>
			</g>
			<g id="XMLID_353_">
				<path id="XMLID_862_" class="st65" d="M-509.3,478.3c-9.9,0-18.1-6.2-18.5-14.1c-0.1-3.3,1.1-6.6,3.6-9.2
					c3.4-3.6,8.6-5.8,14.3-6c0.2,0,0.4,0,0.7,0c9.9,0,18.1,6.2,18.5,14.1l0,0c0.1,3.3-1.1,6.6-3.6,9.2c-3.4,3.6-8.6,5.8-14.3,6
					C-508.9,478.3-509.1,478.3-509.3,478.3z M-509.2,452.5c-0.2,0-0.4,0-0.6,0c-4.8,0.1-9.1,1.9-11.9,4.9c-1.8,2-2.8,4.3-2.7,6.7
					c0.3,6.2,7.3,11,15.6,10.8c4.8-0.1,9.1-1.9,11.9-4.9c1.8-2,2.8-4.3,2.7-6.7l0,0C-494.4,457.2-501.1,452.5-509.2,452.5z"/>
			</g>
			<g id="XMLID_352_">
				<path id="XMLID_880_" class="st65" d="M-478.4,464.3c-5.1-5.9-10.2-6.1-15.3,0.4l-1-9.3c5.2,1.5,11.5,1.3,16.5-0.5L-478.4,464.3
					z"/>
			</g>
			<g id="XMLID_351_" class="st62">
				<path id="XMLID_559_" class="st63" d="M-448.3,454.4l-17.7,21.4c-3.8-0.3-6.8-2-9.3-4l18.6-22.3
					C-453.2,450.3-450.2,452.1-448.3,454.4z"/>
			</g>
			<g id="XMLID_350_">
				<path id="XMLID_858_" class="st65" d="M-463,477c-0.9,0-1.8-0.1-2.7-0.2c-3.9-0.4-7.6-1.9-10.3-4.1c-3.3-2.6-5.2-6.1-5.4-9.8
					c-0.1-3.3,1.1-6.5,3.6-9.2c3.4-3.6,8.6-5.8,14.3-6c2.3-0.1,4.5,0.2,6.6,0.8c3.8,1,7.1,3,9.3,5.5c2,2.3,3.1,5,3.2,7.8
					c0.1,3.3-1.1,6.5-3.6,9.2c-3.4,3.6-8.6,5.8-14.3,6C-462.5,477-462.8,477-463,477z M-462.8,451.2c-0.2,0-0.4,0-0.6,0
					c-4.8,0.1-9.1,1.9-11.9,4.9c-1.8,2-2.8,4.3-2.7,6.7c0.1,2.7,1.6,5.3,4.1,7.3c2.3,1.8,5.3,3,8.6,3.4c0.9,0.1,1.9,0.2,2.9,0.1l0,0
					c4.8-0.1,9.1-1.9,11.9-4.9c1.8-2,2.8-4.3,2.7-6.7c-0.1-2-0.9-4-2.4-5.6c-1.8-2.1-4.5-3.6-7.6-4.5
					C-459.4,451.4-461.1,451.2-462.8,451.2z"/>
			</g>
		</g>
	</g>
</g>
<image style="overflow:visible;" width="549" height="420" xlink:href="80E9A044.jpg"  transform="matrix(1 0 0 1 -8041 -7709)">
</image>
</svg>
