<?xml version="1.0" encoding="utf-8"?>
<!-- Generator: Adobe Illustrator 19.0.0, SVG Export Plug-In . SVG Version: 6.00 Build 0)  -->
<svg version="1.1" id="Layer_1" xmlns="http://www.w3.org/2000/svg" xmlns:xlink="http://www.w3.org/1999/xlink" x="0px" y="0px"
	 viewBox="0 0 300 340" style="enable-background:new 0 0 300 340;" xml:space="preserve">
<style type="text/css">
	.st0{fill:#E25131;}
	.st1{fill:#C8845F;}
	.st2{fill:#BC7B59;}
	.st3{fill:#DB8F67;}
	.st4{fill:#F9B686;}
	.st5{fill:#45535B;}
	.st6{fill:#FFFFFF;}
	.st7{fill:#2F3C42;}
	.st8{fill-rule:evenodd;clip-rule:evenodd;fill:#FCC016;}
	.st9{fill-rule:evenodd;clip-rule:evenodd;fill:#D84A27;}
	.st10{fill-rule:evenodd;clip-rule:evenodd;fill:#FEE70F;}
	.st11{fill-rule:evenodd;clip-rule:evenodd;fill:#F4752F;}
	.st12{fill-rule:evenodd;clip-rule:evenodd;fill:#CD3D27;}
	.st13{fill-rule:evenodd;clip-rule:evenodd;fill:#F9B195;}
	.st14{fill-rule:evenodd;clip-rule:evenodd;fill:#F69A93;}
	.st15{fill-rule:evenodd;clip-rule:evenodd;fill:#0490A3;}
	.st16{fill-rule:evenodd;clip-rule:evenodd;fill:#CD3C27;}
</style>
<g id="XMLID_95_">
	<circle id="XMLID_414_" class="st0" cx="134.8" cy="207.2" r="132.8"/>
	<g id="XMLID_96_">
		<g id="XMLID_399_">
			<path id="XMLID_413_" class="st1" d="M41.4,266.5c12.3,0.4,47.8,6.2,47.8,6.2s27.7-3,32.1-5.3c12.2-6.4,41.2,17.2,34.6,17.6
				c-13.5,0.8-50,8.3-64.4,8.5c-14.4,0.2-53.6-15.6-60.9-16.4C23.4,276.4,29.2,266.1,41.4,266.5z"/>
			<path id="XMLID_412_" class="st2" d="M110,269.9c-2.8-6,4.5-8.8,17-14.7c12.5-5.8,24.8-5.7,27.7,0.3c2.8,6-7.5,9.5-20,15.3
				C120.2,277.6,119.2,283.7,110,269.9z"/>
			<path id="XMLID_411_" class="st3" d="M46.8,247.1c12,2.7,45.4,15.5,45.4,15.5s28.4,2.2,33.1,0.8c13.2-4,36.3,21,28.7,21.8
				c-13.4,1.4-50.8,1.1-64.9-1.5c-14.1-2.5-52.4-25.3-59.4-27.5C22.7,254.2,34.9,244.4,46.8,247.1z"/>
			<path id="XMLID_409_" class="st4" d="M226.4,279.9l-18.4-1.7c0,0-63.1,9.7-73.3,7.9c-10.1-1.7-40.5-17.9-47-28.5
				c-4.8-8-13-43.7-16.8-57.1c-2.5-8.7,12.9-10.1,19.3,2.4c10.7,20.9,16.2,35.4,16.2,35.4s22,13.9,27.9,13.7c6-0.2,18.2-16,18.2-16
				s-17.2-19.3-17.6-43.2c-0.3-16.1,7.9-26.4,10.7-17.5c4.9,16.1,16.1,41.4,35.7,39.4c11.9-1.2,22.4,15.1,22.4,15.1l22.3-4.6
				L226.4,279.9z"/>
			<g id="XMLID_400_">
				<rect id="XMLID_408_" x="229.4" y="218.9" class="st5" width="72.1" height="73.6"/>
				<rect id="XMLID_406_" x="215.2" y="223.3" class="st6" width="14.2" height="64.8"/>
				<ellipse id="XMLID_403_" class="st7" cx="244.9" cy="268.1" rx="5.9" ry="5.9"/>
				<ellipse id="XMLID_402_" class="st7" cx="265.4" cy="268.1" rx="5.9" ry="5.9"/>
				<rect id="XMLID_401_" x="229.4" y="250.9" class="st7" width="45.4" height="6.7"/>
			</g>
		</g>
		<g id="XMLID_97_">
			<path id="XMLID_397_" class="st8" d="M125.4,142.3h13.8c18.2,0,29.4-7.7,30.3-20.4c12.8-0.2,16-18.4,9.1-24.3
				c12-3.3,12.2-22.7,1.3-27.8c9.8-8.3,6.6-26.9-8.4-26.7c7.2-13.1,0.5-25.2-14.7-23.8c-1.7-19.1-35.4-31.2-40.5,10.2l-0.5,102.8
				C116.1,133.5,115.8,142.3,125.4,142.3z"/>
			<g id="XMLID_392_">
				<path id="XMLID_396_" class="st9" d="M125.4,142.3h13.8c18.2,0,29.4-7.7,30.3-20.4c12.8-0.2,16-18.4,9.1-24.4
					c12-3.3,12.2-22.7,1.3-27.8c9.8-8.3,6.6-26.9-8.4-26.7c7.2-13.1,0.5-25.2-14.7-23.8c-1.7-19.1-35.4-31.2-40.5,10.2l-0.5,102.8
					C116.1,133.5,115.8,142.3,125.4,142.3z"/>
				<path id="XMLID_395_" class="st10" d="M124.1,142.3c-2.3-1.5-4.6-3-6.9-4.5c-1.2-2.4-1.2-4.9-1.4-5.5l0.5-102.8
					c0.8-6.8,2.4-12.1,4.5-16.3c0.8-1.5,4.8-9.3,16.3-11.5c9.5-0.1,18.8,7.8,19.7,17.6c15.3-1.4,22,10.7,14.7,23.8
					c15-0.2,18.1,18.4,8.4,26.7c11,5.1,10.7,24.5-1.3,27.8c6.9,5.9,3.7,24.1-9.1,24.4c-0.9,12.7-12.1,20.4-30.3,20.4h-13.8
					C124.9,142.3,124.5,142.3,124.1,142.3z"/>
				<path id="XMLID_394_" class="st8" d="M166.8,130.7c-17-8.1-34.9-15.8-50.9-21.7l0.3-65.1c16.4-6.1,34.7-14,52.1-22.3
					c6.6,4,8.2,12.5,3.2,21.6c15-0.2,18.1,18.4,8.4,26.7c11,5.1,10.7,24.5-1.3,27.8c6.9,5.9,3.7,24.1-9.1,24.4
					C169.2,125.2,168.3,128.1,166.8,130.7z"/>
				<path id="XMLID_393_" class="st11" d="M182.1,108.1c-19.7-6.8-43.2-14.3-66.1-18.8l0.1-25.7c22-4.4,44.5-11.4,63.7-18
					c7.4,5.3,7.6,17.9,0,24.3c11,5.1,10.7,24.5-1.3,27.8C181.2,99.9,182.4,103.9,182.1,108.1z"/>
			</g>
			<g id="XMLID_388_">
				<path id="XMLID_389_" class="st12" d="M119,27.8c-0.1-2.7-0.1-5.3,0.5-7.7c1.4-5.6,5-11.3,9.9-14.4c5.1-3.2,10.9-3,16.1-0.1
					c5.1,2.8,9,8,9.5,13.8l0.2,1.7l1.7-0.2c4.1-0.4,7.5,0.3,10.1,1.7c1.7,0.9,3,2.2,3.9,3.6c1,1.5,1.5,3.2,1.7,5.2
					c0.3,3.2-0.5,6.9-2.7,10.8l-1.4,2.6l2.9,0c3,0,5.4,0.8,7.3,2.1c2,1.5,3.4,3.6,4.2,6c0.8,2.4,0.9,5.2,0.3,7.8
					c-0.6,3-2.2,5.8-4.6,7.9l-2,1.7l2.4,1.1c3.3,1.5,5.5,4.6,6.4,8.1c0.5,1.8,0.7,3.6,0.5,5.5c-0.1,1.8-0.6,3.6-1.3,5.2
					c-1.3,2.8-3.5,5-6.7,5.8l-3.1,0.9l2.4,2.1c1.9,1.7,2.9,4.5,3,7.7c0,1.8-0.2,3.7-0.8,5.4c-0.6,1.7-1.4,3.4-2.6,4.7
					c-1.8,2.1-4.3,3.5-7.6,3.5l-1.6,0l-0.1,1.6c-0.4,5.8-3.2,10.5-8,13.7c-4.9,3.3-11.9,5.1-20.7,5.1h-9.8c-9.9,0.3-9.9-1.8-10-7.3
					C118.5,98.2,119.1,63,119,27.8L119,27.8z M147.2,2.6c-6.1-3.4-13.4-3.6-19.4,0.1c-5.5,3.4-11,11.3-12.1,18.9
					c-0.1,0.2-0.1,0.3-0.1,0.5v111.3c0.4,5.2-0.5,10.9,13.7,10.6h9.9c9.4,0,17.1-2,22.6-5.7c5.3-3.5,8.5-8.6,9.3-14.8
					c3.6-0.4,6.5-2.2,8.6-4.6c1.5-1.7,2.5-3.7,3.3-5.9c0.7-2.1,1-4.4,1-6.5c-0.1-3-0.8-6-2.4-8.2c2.9-1.5,5.1-3.9,6.4-6.8
					c0.9-2,1.4-4.2,1.6-6.4c0.2-2.2-0.1-4.5-0.7-6.6c-1-3.6-3.1-6.9-6.2-9.1c2.1-2.3,3.4-5.2,4.1-8.1c0.7-3.2,0.5-6.5-0.4-9.5
					c-1-3.1-2.8-5.8-5.5-7.7c-1.8-1.3-4.1-2.2-6.7-2.6c1.6-3.6,2.2-7.1,1.9-10.3c-0.2-2.5-1-4.7-2.2-6.7c-1.3-2-3-3.6-5.2-4.8
					c-2.8-1.5-6.3-2.4-10.4-2.2"/>
			</g>
			<g id="XMLID_383_">
				<path id="XMLID_94_" class="st13" d="M91.6,176.5h43.1c2.3,0,4.2,1.9,4.2,4.2v1.1c0,2.3-1.9,4.2-4.2,4.2H91.6
					c-2.3,0-4.2-1.9-4.2-4.2v-1.1C87.4,178.4,89.3,176.5,91.6,176.5z"/>
				<path id="XMLID_93_" class="st13" d="M92.3,187.2h41.6c2.2,0,4.1,1.8,4.1,4.1v1c0,2.2-1.8,4.1-4.1,4.1H92.3
					c-2.2,0-4.1-1.8-4.1-4.1v-1C88.2,189,90.1,187.2,92.3,187.2z"/>
				<path id="XMLID_92_" class="st13" d="M93.8,197.4h38.6c2.1,0,3.8,1.7,3.8,3.8v1c0,2.1-1.7,3.8-3.8,3.8H93.8
					c-2.1,0-3.8-1.7-3.8-3.8v-1C90.1,199.1,91.8,197.4,93.8,197.4z"/>
				<path id="XMLID_91_" class="st13" d="M124.9,207.2l-8.5,8.7c-1.8,1.9-4.8,1.9-6.6,0l-8.5-8.7H124.9z"/>
			</g>
			<g id="XMLID_375_">
				<path id="XMLID_382_" class="st13" d="M56.8,122.8c-12.8-0.2-16-18.4-9.1-24.4c-12-3.3-12.2-22.7-1.3-27.8
					c-9.8-8.3-6.6-26.9,8.4-26.7c-7.2-13.1-0.5-25.2,14.7-23.8c2-22.1,39.1-30.1,41.1,9.3v103.9c-0.8,1.5-2.6,9.8-7.6,9.8
					C103,143.2,57.8,150.2,56.8,122.8z"/>
				<path id="XMLID_381_" class="st14" d="M87.1,143.2"/>
				<g id="XMLID_376_">
					<path id="XMLID_380_" class="st15" d="M74.2,106.3c0.9,0,1.7,0.8,1.7,1.8c0,0.9-0.8,1.7-1.8,1.7l-2.4-0.1
						c-4.5-0.1-8.2-0.2-11.9,0.2c-1.9,0.2-2.9,0.8-3.4,1.4c-0.2,0.3-0.2,0.5-0.2,0.8h0c0,0.3,0.1,0.7,0.4,1c0.6,1,1.9,1.8,3.7,1.9
						c1.5,0.1,3.3,0.1,5.2,0c1.4-0.1,2.8-0.1,4.1-0.1c0.9,0,1.7,0.8,1.7,1.7c0,0.9-0.8,1.7-1.7,1.7c-1.5,0-2.7,0.1-4,0.1
						c-2.1,0.1-4,0.2-5.7,0c-2.9-0.3-5.1-1.7-6.3-3.5c-0.5-0.8-0.8-1.8-0.9-2.7v0c0-1,0.2-1.9,0.7-2.8c1-1.5,2.9-2.7,6-3
						c3.9-0.4,7.7-0.3,12.4-0.2L74.2,106.3z"/>
					<g id="XMLID_377_">
						<path id="XMLID_378_" class="st13" d="M107.1,18.5l0.3,104h-0.1l0,2.9c-0.1,1.4-0.4,2.4-0.8,3c-0.5,0.7-1.4,1-2.8,1.1
							c-1.1,0.1-2.2,0-3.5,0c-0.5,0-1.1-0.1-1.8-0.1c-1.7-0.1-1.8-1.7-1.8-5.2c0-0.7,0-1.5,0-2.3c-0.1-3.3-0.1-7.5,0-11.6
							c0.1-5.4,0.1-10.8-0.1-14.8c-0.1-0.9-0.9-1.7-1.8-1.6c-0.9,0.1-1.7,0.9-1.6,1.8c0.2,3.9,0.2,9.3,0.1,14.6
							c0,4.2-0.1,8.4,0,11.8c0,0.8,0,1.6,0,2.2c0.1,5.7,0.1,8.4,5.1,8.6h0c0.6,0,1.2,0,1.8,0.1c1.4,0.1,2.7,0.1,3.9,0
							c1.3-0.1,2.5-0.4,3.4-0.8c0,5.9-0.9,9.4-7.7,9.4H87.1c-8.7,0-15.8-1.8-20.7-5.1c-4.8-3.2-7.5-7.9-8-13.7l-0.1-1.6l-1.6,0
							c-3.2-0.1-5.8-1.5-7.6-3.5c-1.2-1.3-2-3-2.6-4.7c-0.6-1.8-0.9-3.6-0.8-5.4c0.1-3.1,1-6,3-7.7l2.4-2.1l-3.1-0.9
							c-3.2-0.9-5.4-3.1-6.7-5.8c-0.7-1.6-1.2-3.4-1.3-5.2c-0.1-1.8,0-3.7,0.5-5.5c1-3.5,3.1-6.6,6.4-8.1l2.4-1.1l-2-1.7
							c-2.4-2.1-4-4.9-4.6-7.9c-0.6-2.6-0.5-5.3,0.3-7.8c0.8-2.4,2.2-4.5,4.2-6c1.9-1.3,4.3-2.1,7.3-2.1l2.9,0l-1.4-2.6
							c-2.1-3.8-3-7.5-2.7-10.8c0.2-1.9,0.8-3.7,1.7-5.2c0.9-1.5,2.3-2.7,3.9-3.6c2.6-1.4,6-2.1,10.1-1.7L71,22l0.2-1.7
							c0.6-7,5.2-12.5,10.9-15.1c2.6-1.2,5.4-1.8,8.1-1.7c2.7,0.1,5.5,0.8,8,2.4C102,8.1,105.2,12.2,107.1,18.5L107.1,18.5z"/>
					</g>
				</g>
			</g>
			<path id="XMLID_346_" class="st12" d="M153.5,14c-0.3-0.9,0.1-1.9,1-2.2c0.9-0.3,1.9,0.1,2.2,1c2.9,7.6,1.1,10.7-2.6,12.1
				c-1.9,0.7-4.1,0.9-6.4,1.1c-5.5,0.4-11.8,0.9-11,10.4c0.1,0.9-0.6,1.8-1.6,1.9c-0.9,0.1-1.8-0.6-1.9-1.6
				c-1.1-12.9,7.1-13.5,14.2-14.1c2.1-0.2,4.1-0.3,5.5-0.8C154.7,21,155.5,19.1,153.5,14z"/>
			<path id="XMLID_345_" class="st12" d="M170.6,40.6c0.5-0.8,1.5-1.1,2.3-0.6c0.8,0.5,1.1,1.5,0.6,2.3c-2.2,3.8-3.2,7.2-4,10.1l0,0
				c-1.8,6.3-2.9,10.1-12.2,10.2c-0.8,0-1.8,0-2.7,0c-1.8,0-3.7,0-5.5,0c-8.5-0.1-16.2-1.4-16.1-8.9c0.1-6.7,3.1-7.3,5.9-7.8
				c1-0.2,1.9-0.4,2.1-1.5l0,0c0.1-0.8,0-1.8-0.1-2.8c-0.1-0.6-0.2-1.3-0.2-2c-0.2-3.5,0.8-6.5,8.1-6.9c3.3-0.2,6.2-0.2,8.4,0.2
				c2.7,0.5,4.6,1.7,5.4,4c0.2,0.6,0.4,1.3,0.4,2c0.1,1.2,0,2.5-0.6,3.8c-0.6,1.3-1.7,2.4-3.4,3c-0.6,0.2-1.3,0.4-2,0.4
				c-2,0.2-3.2,1-3.7,1.9c-0.1,0.3-0.2,0.6-0.2,0.8c0,0.3,0.1,0.5,0.3,0.7c0.6,0.8,2.1,1.3,4.5,0.9c0.9-0.1,1.8,0.5,1.9,1.5
				c0.1,0.9-0.5,1.8-1.5,1.9c-3.7,0.5-6.3-0.5-7.6-2.2c-0.6-0.8-1-1.6-1.1-2.5c-0.1-0.9,0.1-1.8,0.5-2.7c0.9-1.9,3.1-3.5,6.5-3.8
				c0.5,0,0.9-0.1,1.2-0.2c0.7-0.3,1.2-0.7,1.4-1.3c0.3-0.6,0.4-1.3,0.3-2c0-0.4-0.1-0.8-0.2-1.1c-0.3-1-1.4-1.5-2.8-1.8
				c-1.9-0.4-4.6-0.3-7.6-0.2c-4.4,0.2-5,1.7-4.9,3.3c0,0.5,0.1,1.1,0.2,1.7c0.2,1.2,0.3,2.5,0.1,3.7l0,0c-0.5,3.5-2.6,3.9-4.8,4.3
				c-1.5,0.3-3.1,0.6-3.1,4.5c-0.1,4.5,6,5.3,12.7,5.4c1.8,0,3.6,0,5.4,0c0.9,0,1.8,0,2.7,0c6.8,0,7.6-2.9,8.9-7.7v0
				C167.2,48.4,168.2,44.8,170.6,40.6z"/>
			<path id="XMLID_344_" class="st12" d="M178.6,68.6c0.8-0.4,1.9-0.1,2.3,0.8c0.4,0.8,0.1,1.9-0.8,2.3c-7.5,3.7-15.8,3.8-27.3,3.8
				c-3.2,0-6.6,0-10.3,0.1c-3.9,0.1-5.7,0.7-6.6,1.5c-0.6,0.6-0.6,1.6-0.6,2.5c0,1.1,0.2,2.1,0.9,2.8c0.9,0.8,2.6,1.4,5.7,1.5
				c4.6,0.1,10.3,0.1,15.4,0c5-0.1,9.3-0.1,11.6,0c0.9,0.1,1.7,0.9,1.6,1.8c-0.1,0.9-0.9,1.7-1.8,1.6c-2.2-0.2-6.4-0.1-11.3,0
				c-5.1,0.1-10.9,0.2-15.6,0c-4.1-0.1-6.5-1.1-8-2.5c-1.6-1.5-1.9-3.4-2-5.2c0-1.8,0-3.5,1.7-5.1c1.4-1.3,4-2.3,8.9-2.4
				c3.7-0.1,7.2-0.1,10.4-0.1C163.8,72,171.8,72,178.6,68.6z"/>
			<path id="XMLID_343_" class="st12" d="M179.3,96.1c0.9,0.1,1.7,0.9,1.6,1.8c-0.1,0.9-0.9,1.6-1.8,1.6c-6.6-0.5-14.1-0.8-20.7-0.3
				c-2.9,0.2-4.7,0.1-5.8,1.1c-1.1,1.1-1.3,10.1-1.1,14c0.1,0.9-0.7,2.3-1.6,2.4c-0.9,0.1-1.8-1.2-1.8-2.2c-0.4-5.1-0.2-15,1.8-16.8
				c1.9-1.8,4.7-1.7,8.3-2C164.8,95.3,172.6,95.5,179.3,96.1z"/>
			<path id="XMLID_342_" class="st12" d="M118.3,132c-0.9,0-1.7-0.8-1.7-1.7c0-0.9,0.8-1.7,1.7-1.7l15.2-0.1c2.8,0,5-0.3,6.5-1
				c1-0.4,1.5-1,1.6-1.6c0.1-2.1-0.4-3.4-1.6-4c-1.7-0.9-4.5-1.1-8.7-1c-0.9,0-1.7-0.7-1.8-1.7c0-0.9,0.7-1.7,1.7-1.8
				c4.7-0.1,8.1,0.2,10.4,1.4c2.7,1.4,3.7,3.7,3.5,7.3c-0.1,2.1-1.4,3.6-3.7,4.5c-1.9,0.8-4.5,1.2-7.8,1.2L118.3,132z"/>
			<path id="XMLID_341_" class="st12" d="M149.9,113.2c-0.9,0-1.7,0.7-1.8,1.7c0,0.9,0.7,1.7,1.7,1.8l2.4,0.1
				c4.6,0.1,8.4,0.2,12.4-0.2c3.1-0.3,5-1.5,6-3c0.6-0.9,0.8-1.8,0.7-2.8v0c0-0.9-0.3-1.9-0.9-2.7c-1.1-1.8-3.3-3.3-6.3-3.5
				c-1.7-0.2-3.6-0.1-5.7,0c-1.2,0-2.5,0.1-4,0.1c-0.9,0-1.7,0.8-1.7,1.7c0,0.9,0.8,1.7,1.7,1.7c1.3,0,2.7-0.1,4.1-0.1
				c1.9-0.1,3.8-0.2,5.2,0c1.8,0.2,3.1,1,3.7,1.9c0.2,0.3,0.3,0.7,0.4,1h0c0,0.3-0.1,0.6-0.2,0.8c-0.4,0.7-1.5,1.3-3.4,1.4
				c-3.7,0.4-7.4,0.3-11.9,0.2L149.9,113.2z"/>
			<path id="XMLID_340_" class="st12" d="M138.8,24.2c0.8-0.4,1.9-0.1,2.3,0.7c0.4,0.8,0.1,1.9-0.7,2.3c-2.5,1.3-5,1.9-7.2,1.9
				c-1.8,0-3.4-0.4-4.7-1.2c-1.4-0.8-2.4-2.1-2.8-3.7c-0.3-1.1-0.3-2.4,0.1-3.8c0.5-1.8,3-4.6,6.9-6.7c2.8-1.5,6.3-2.6,10.3-2.9
				c0.9-0.1,1.8,0.7,1.8,1.6c0.1,0.9-0.7,1.8-1.6,1.8c-3.4,0.2-6.4,1.2-8.9,2.5c-3,1.6-4.9,3.4-5.2,4.5c-0.2,0.8-0.2,1.5-0.1,2.1
				c0.2,0.7,0.6,1.2,1.3,1.6c0.8,0.5,1.8,0.7,2.9,0.7C134.8,25.7,136.8,25.2,138.8,24.2z"/>
			<g id="XMLID_336_">
				<path id="XMLID_337_" class="st16" d="M119,27.8c-0.1-2.7-0.1-5.3,0.5-7.7c1.4-5.6,5-11.3,9.9-14.4c5.1-3.2,10.9-3,16.1-0.1
					c5.1,2.8,9,8,9.5,13.8l0.2,1.7l1.7-0.2c4.1-0.4,7.5,0.3,10.1,1.7c1.7,0.9,3,2.2,3.9,3.6c1,1.5,1.5,3.2,1.7,5.2
					c0.3,3.2-0.5,6.9-2.7,10.8l-1.4,2.6l2.9,0c3,0,5.4,0.8,7.3,2.1c2,1.5,3.4,3.6,4.2,6c0.8,2.4,0.9,5.2,0.3,7.8
					c-0.6,3-2.2,5.8-4.6,7.9l-2,1.7l2.4,1.1c3.3,1.5,5.5,4.6,6.4,8.1c0.5,1.8,0.7,3.6,0.5,5.5c-0.1,1.8-0.6,3.6-1.3,5.2
					c-1.3,2.8-3.5,5-6.7,5.8l-3.1,0.9l2.4,2.1c1.9,1.7,2.9,4.5,3,7.7c0,1.8-0.2,3.7-0.8,5.4c-0.6,1.7-1.4,3.4-2.6,4.7
					c-1.8,2.1-4.3,3.5-7.6,3.5l-1.6,0l-0.1,1.6c-0.4,5.8-3.2,10.5-8,13.7c-4.9,3.3-11.9,5.1-20.7,5.1h-9.8c-9.9,0.3-9.9-1.8-10-7.3
					C118.5,98.2,119.1,63,119,27.8L119,27.8z M115.7,21.6c-0.1,0.2-0.1,0.3-0.1,0.5v111.3c0.4,5.2-0.5,10.9,13.7,10.6h9.9
					c9.4,0,17.1-2,22.6-5.7c5.3-3.5,8.5-8.6,9.3-14.8c3.6-0.4,6.5-2.2,8.6-4.6c1.5-1.7,2.5-3.7,3.3-5.9c0.7-2.1,1-4.4,1-6.5
					c-0.1-3-0.8-6-2.4-8.2c2.9-1.5,5.1-3.9,6.4-6.8c0.9-2,1.4-4.2,1.6-6.4c0.2-2.2-0.1-4.5-0.7-6.6c-1-3.6-3.1-6.9-6.2-9.1
					c2.1-2.3,3.4-5.2,4.1-8.1c0.7-3.2,0.5-6.5-0.4-9.5c-1-3.1-2.8-5.8-5.5-7.7c-1.8-1.3-4.1-2.2-6.7-2.6c1.6-3.6,2.2-7.1,1.9-10.3
					c-0.2-2.5-1-4.7-2.2-6.7c-1.3-2-3-3.6-5.2-4.8c-2.8-1.5-6.3-2.4-10.4-2.2c-1.2-6.3-5.5-11.8-11.1-14.9
					c-6.1-3.4-13.4-3.6-19.4,0.1C122.3,6.1,116.8,14,115.7,21.6z"/>
			</g>
			<path id="XMLID_335_" class="st12" d="M135.7,55.2c0.9,0,1.7,0.7,1.8,1.6c0,0.9-0.7,1.7-1.6,1.8l-2.4,0.1
				c-4.5,0.2-2.4-0.4-6.1,0.3c-1.9,0.3-2.9,1-3.3,1.7c-0.1,0.3-0.2,0.6-0.2,0.8h0c0,0.3,0.2,0.7,0.4,1c0.7,0.9,2,1.6,3.8,1.7
				c1.5,0,3.3-0.2,5.2-0.4c1.4-0.2,2.8-0.3,4.1-0.4c0.9-0.1,1.8,0.6,1.8,1.6c0.1,0.9-0.6,1.8-1.6,1.8c-1.5,0.1-2.7,0.3-3.9,0.4
				c-2,0.2-3.9,0.5-5.6,0.4c-2.9,0-5.3-1.3-6.5-3.1c-0.6-0.8-1-1.7-1.1-2.6l0,0c-0.1-1,0-2,0.5-2.9c0.8-1.6,2.7-2.9,5.7-3.5
				c3.9-0.7,1.8-0.1,6.5-0.3L135.7,55.2z"/>
			<path id="XMLID_334_" class="st12" d="M118,95.3c-1.3,0-2.3-0.8-2.2-1.8c0-0.9,1.1-1.7,2.3-1.7l3.2,0.1l15.1-0.1v3.4l-15.2,0.1
				L118,95.3z"/>
			<path id="XMLID_333_" class="st12" d="M136.4,92.8c0.1,4.6,0.2,8.4-0.2,12.4c-0.3,3.1-1.5,5-3,6c-1.7,1.1-3.8,0.9-5.5-0.1
				c-3.7-2.3-3.5-5.8-3.5-9.4c0-0.9,0.8-1.7,1.7-1.7c0.9,0,1.7,0.8,1.7,1.7c0,2.1-0.6,5,1.9,6.5c0.5,0.3,1.3,0.5,1.9,0.1
				c0.7-0.4,1.3-1.5,1.4-3.4l0.2-11.9L136.4,92.8z"/>
			<g id="XMLID_183_">
				<g id="XMLID_248_">
					<path id="XMLID_324_" class="st16" d="M71.4,118.7l16.8,4.3c-0.1,0.2-0.1,0.5-0.2,0.7l-16.9-4.4
						C71.3,119.1,71.4,118.9,71.4,118.7L71.4,118.7z M92.7,120.1l1.3-36.6c0.2,0,0.4,0,0.6,0c0,0,0.1,0,0.1,0l-1.3,36.7
						C93.2,120.2,93,120.1,92.7,120.1L92.7,120.1z M90.5,81.3l-20,12.8c-0.1-0.2-0.3-0.4-0.4-0.6l20-12.9
						C90.3,80.9,90.4,81.1,90.5,81.3L90.5,81.3z M65,92.8l-9.4-15.5c0.2-0.1,0.4-0.2,0.6-0.3l9.5,15.6C65.4,92.5,65.2,92.7,65,92.8
						L65,92.8z M55.5,68.4l8-11.4c0.1,0.2,0.3,0.4,0.4,0.6l-7.8,11.1C55.9,68.6,55.7,68.5,55.5,68.4L55.5,68.4z M71.2,54l15.5-1.8
						c0.1,0.2,0.3,0.4,0.5,0.6l-15.9,1.8C71.3,54.5,71.2,54.3,71.2,54L71.2,54z M92.8,45.9L98,29.3c0.2,0.1,0.4,0.2,0.7,0.2
						l-5.3,16.8C93.2,46.1,93,46,92.8,45.9L92.8,45.9z M96.6,28.1c-0.1-0.2-0.2-0.4-0.3-0.6l-25.4,6.4c0.1,0.2,0.1,0.5,0.1,0.7
						L96.6,28.1z"/>
					<path id="XMLID_249_" class="st16" d="M70.3,37.5l16.1,10.8c-0.1,0.2-0.2,0.5-0.2,0.7L69.9,38.1C70,37.9,70.2,37.7,70.3,37.5
						L70.3,37.5z M91.1,54.5l2.8,19.3c-0.2,0-0.5,0.1-0.7,0.2l-2.8-19.4c0.1,0,0.1,0,0.2,0C90.8,54.6,91,54.5,91.1,54.5L91.1,54.5z
						 M90.5,76c0.1-0.2,0.3-0.4,0.4-0.6L70.8,56.7c-0.1,0.2-0.2,0.4-0.4,0.6L90.5,76L90.5,76z M68.5,58.7v33.7
						c-0.2-0.1-0.5-0.1-0.7-0.2V58.9C68,58.9,68.3,58.8,68.5,58.7L68.5,58.7z M68.4,99.9l-0.2,13.7c-0.2,0-0.4,0-0.6,0
						c0,0-0.1,0-0.1,0l0.2-13.5C68,100,68.2,100,68.4,99.9L68.4,99.9z M69.5,114l23-30.9c0.2,0.1,0.4,0.2,0.7,0.3l-23.1,31.1
						C69.9,114.2,69.7,114.1,69.5,114z"/>
				</g>
				<g id="XMLID_184_">
					<path id="XMLID_238_" class="st16" d="M68.1,50.3c0.4,0.1,0.8,0.3,1.2,0.5l0.9-0.9c0.6,0.4,1.2,1,1.6,1.6l-0.9,0.9
						c0.2,0.4,0.4,0.8,0.5,1.2l1.2,0c0.1,0.4,0.1,0.7,0.1,1.1c0,0.4,0,0.8-0.1,1.2l-1.2,0c-0.1,0.4-0.3,0.8-0.5,1.2l0.9,0.9
						c-0.4,0.6-1,1.2-1.6,1.6l-0.9-0.9c-0.4,0.2-0.7,0.4-1.1,0.5v1.2c-0.4,0.1-0.7,0.1-1.1,0.1s-0.8,0-1.1-0.1V59
						c-0.4-0.1-0.8-0.3-1.2-0.5l-0.9,0.9c-0.6-0.4-1.2-1-1.6-1.6l0.9-0.9c-0.2-0.4-0.4-0.8-0.5-1.2l-1.2,0c-0.1-0.4-0.1-0.7-0.1-1.1
						c0-0.4,0-0.8,0.1-1.2l1.2,0c0.1-0.4,0.3-0.8,0.5-1.2l-0.9-0.9c0.4-0.6,1-1.2,1.6-1.6l0.9,0.9c0.4-0.2,0.7-0.4,1.1-0.5v-1.2
						c0.4-0.1,0.7-0.1,1.1-0.1s0.8,0,1.1,0.1V50.3L68.1,50.3z M68.6,53.4l-0.7,0.7c0.1,0.2,0.1,0.3,0.1,0.5c0,0.2-0.1,0.4-0.1,0.5
						l0.7,0.7c0.3-0.3,0.4-0.8,0.4-1.2C69,54.2,68.9,53.8,68.6,53.4L68.6,53.4z M66.4,55.6l-0.7,0.7c0.3,0.3,0.8,0.4,1.2,0.4
						c0.5,0,0.9-0.2,1.2-0.4l-0.7-0.7c-0.2,0.1-0.3,0.1-0.5,0.1C66.8,55.7,66.6,55.7,66.4,55.6L66.4,55.6z M65.3,55.9l0.7-0.7
						c-0.1-0.2-0.1-0.3-0.1-0.5c0-0.2,0.1-0.4,0.1-0.5l-0.7-0.7c-0.3,0.3-0.4,0.8-0.4,1.2C64.9,55.1,65.1,55.6,65.3,55.9L65.3,55.9z
						 M67.5,53.7l0.7-0.7c-0.3-0.3-0.8-0.4-1.2-0.4c-0.5,0-0.9,0.2-1.2,0.4l0.7,0.7c0.2-0.1,0.3-0.1,0.5-0.1
						C67.2,53.6,67.3,53.6,67.5,53.7L67.5,53.7z M67,50.8c-1.1,0-2,0.4-2.7,1.1c-0.7,0.7-1.1,1.7-1.1,2.7c0,1.1,0.4,2,1.1,2.7
						c0.7,0.7,1.7,1.1,2.7,1.1c1.1,0,2-0.4,2.7-1.1c0.7-0.7,1.1-1.7,1.1-2.7c0-1.1-0.4-2-1.1-2.7C69,51.2,68,50.8,67,50.8L67,50.8z
						 M69.4,52.2c-0.6-0.6-1.5-1-2.4-1c-0.9,0-1.8,0.4-2.4,1c-0.6,0.6-1,1.5-1,2.4c0,0.9,0.4,1.8,1,2.4c0.6,0.6,1.5,1,2.4,1
						c0.9,0,1.8-0.4,2.4-1c0.6-0.6,1-1.5,1-2.4C70.4,53.7,70,52.9,69.4,52.2L69.4,52.2z M67,51.9c-1.5,0-2.8,1.2-2.8,2.8
						c0,1.5,1.2,2.8,2.8,2.8c1.5,0,2.8-1.2,2.8-2.8C69.8,53.1,68.5,51.9,67,51.9L67,51.9z M67,51.7c-1.6,0-3,1.3-3,3
						c0,1.6,1.3,3,3,3c1.7,0,3-1.3,3-3C70,53,68.6,51.7,67,51.7z"/>
					<path id="XMLID_228_" class="st16" d="M68.5,112.2l0.3-0.7c0.8,0.2,1.6,0.5,2.2,0.9l-0.3,0.7c0.5,0.3,0.9,0.8,1.2,1.3l0.7-0.3
						c0.2,0.3,0.4,0.7,0.6,1c0.2,0.4,0.3,0.8,0.4,1.2l-0.7,0.3c0.1,0.6,0.1,1.2,0,1.8l0.7,0.3c-0.2,0.8-0.5,1.6-0.9,2.2l-0.7-0.3
						c-0.3,0.5-0.7,0.9-1.2,1.2l0.3,0.7c-0.3,0.2-0.7,0.4-1.1,0.6c-0.4,0.2-0.8,0.3-1.2,0.4l-0.3-0.7c-0.6,0.1-1.2,0.1-1.8,0
						l-0.3,0.7c-0.8-0.2-1.6-0.5-2.2-0.9l0.3-0.7c-0.5-0.3-0.9-0.8-1.2-1.3l-0.7,0.3c-0.2-0.3-0.4-0.7-0.6-1
						c-0.2-0.4-0.3-0.8-0.4-1.2l0.7-0.3c-0.1-0.6-0.1-1.2,0-1.8l-0.7-0.3c0.2-0.8,0.5-1.6,0.9-2.2l0.7,0.3c0.3-0.5,0.7-0.9,1.2-1.2
						l-0.3-0.7c0.3-0.2,0.7-0.4,1.1-0.6c0.4-0.2,0.8-0.3,1.2-0.4l0.3,0.7C67.3,112.1,67.9,112.1,68.5,112.2L68.5,112.2z M70.7,115.2
						l-0.6,0.6c0.1,0.2,0.2,0.3,0.3,0.5c0.4,1,0.3,2-0.3,2.8l0.6,0.6c0.2-0.2,0.3-0.5,0.4-0.8c0.4-0.9,0.4-1.9,0-2.9
						C71,115.7,70.9,115.4,70.7,115.2L70.7,115.2z M69.5,116.4l-0.7,0.7c0.1,0.3,0.1,0.6,0,0.8l0.7,0.7c0-0.1,0.1-0.2,0.1-0.2
						c0.2-0.5,0.2-1.1,0-1.7C69.6,116.5,69.6,116.4,69.5,116.4L69.5,116.4z M67.2,118.7l-0.7,0.7c0.1,0,0.2,0.1,0.2,0.1
						c0.5,0.2,1.1,0.2,1.7,0c0.1,0,0.2-0.1,0.2-0.1l-0.7-0.7C67.7,118.8,67.5,118.8,67.2,118.7L67.2,118.7z M65.9,119.9l-0.6,0.6
						c0.2,0.2,0.5,0.3,0.8,0.4c0.9,0.4,1.9,0.4,2.9,0c0.3-0.1,0.6-0.3,0.8-0.4l-0.6-0.6c-0.2,0.1-0.3,0.2-0.5,0.3
						C67.8,120.6,66.7,120.5,65.9,119.9L65.9,119.9z M64.5,119.7l0.6-0.6c-0.1-0.2-0.2-0.3-0.3-0.5c-0.4-1-0.3-2,0.3-2.8l-0.6-0.6
						c-0.2,0.2-0.3,0.5-0.4,0.8c-0.4,0.9-0.4,1.9,0,2.9C64.2,119.2,64.4,119.5,64.5,119.7L64.5,119.7z M65.7,118.5l0.7-0.7
						c-0.1-0.3-0.1-0.5,0-0.8l-0.7-0.7c0,0.1-0.1,0.2-0.1,0.2c-0.2,0.5-0.2,1.1,0,1.7C65.6,118.4,65.6,118.5,65.7,118.5L65.7,118.5z
						 M68,116.2l0.7-0.7c-0.1,0-0.2-0.1-0.2-0.1c-0.5-0.2-1.1-0.2-1.7,0c-0.1,0-0.2,0.1-0.2,0.1l0.7,0.7
						C67.5,116.1,67.8,116.1,68,116.2L68,116.2z M69.3,115l0.6-0.6c-0.2-0.2-0.5-0.3-0.8-0.4c-0.9-0.4-1.9-0.4-2.9,0
						c-0.3,0.1-0.6,0.3-0.8,0.4l0.6,0.6c0.2-0.1,0.3-0.2,0.5-0.3C67.4,114.3,68.5,114.4,69.3,115z"/>
					<path id="XMLID_222_" class="st16" d="M92.4,118.1h0.3l0,0.8c0.1,0,0.2,0,0.3,0l0.2-0.8l0.3,0l-0.1,0.8c0.1,0,0.3,0,0.4,0.1
						l0.3-0.8l0.3,0.1l-0.2,0.8c0.1,0,0.2,0.1,0.3,0.1l0.4-0.7l0.2,0.1l-0.3,0.8c0.1,0.1,0.3,0.1,0.4,0.2l0.5-0.7l0.2,0.1l-0.4,0.7
						c0.1,0.1,0.2,0.1,0.3,0.2l0.5-0.6l0.2,0.2l-0.5,0.7c0.1,0.1,0.2,0.2,0.3,0.3l0.6-0.5l0.2,0.2l-0.5,0.6c0.1,0.1,0.2,0.2,0.2,0.3
						l0.7-0.5l0.2,0.2l-0.6,0.5c0.1,0.1,0.2,0.2,0.2,0.3l0.7-0.4l0.1,0.2l-0.7,0.5c0.1,0.1,0.1,0.2,0.2,0.3l0.8-0.3l0.1,0.2
						l-0.7,0.4c0,0.1,0.1,0.3,0.1,0.4l0.8-0.2l0.1,0.3l-0.8,0.3c0,0.1,0,0.2,0.1,0.3l0.8-0.1l0,0.3l-0.8,0.2c0,0.1,0,0.3,0,0.4
						l0.8,0v0.3l-0.8,0.1c0,0.1,0,0.2,0,0.3l0.8,0.2l0,0.3l-0.8-0.1c0,0.1,0,0.3-0.1,0.4l0.8,0.3l-0.1,0.3l-0.8-0.2
						c0,0.1-0.1,0.2-0.1,0.3l0.7,0.4l-0.1,0.2l-0.8-0.3c-0.1,0.1-0.1,0.3-0.2,0.4l0.7,0.5l-0.1,0.2l-0.7-0.4
						c-0.1,0.1-0.1,0.2-0.2,0.3l0.6,0.5l-0.2,0.2l-0.7-0.5c-0.1,0.1-0.2,0.2-0.3,0.3l0.5,0.6l-0.2,0.2l-0.6-0.5
						c-0.1,0.1-0.2,0.2-0.3,0.2l0.5,0.7l-0.2,0.2l-0.5-0.6c-0.1,0.1-0.2,0.2-0.3,0.2l0.4,0.7l-0.2,0.1l-0.5-0.7
						c-0.1,0.1-0.2,0.1-0.3,0.2l0.3,0.8l-0.2,0.1l-0.4-0.7c-0.1,0-0.3,0.1-0.4,0.1l0.2,0.8l-0.3,0.1l-0.3-0.8c-0.1,0-0.2,0-0.3,0.1
						l0.1,0.8l-0.3,0l-0.2-0.8c-0.1,0-0.3,0-0.4,0l0,0.8h-0.3l0-0.8c-0.1,0-0.2,0-0.3,0l-0.2,0.8l-0.3,0l0.1-0.8
						c-0.1,0-0.3,0-0.4-0.1l-0.3,0.8l-0.3-0.1l0.2-0.8c-0.1,0-0.2-0.1-0.3-0.1l-0.4,0.7l-0.2-0.1l0.3-0.8c-0.1-0.1-0.3-0.1-0.4-0.2
						l-0.5,0.7l-0.2-0.1l0.4-0.7c-0.1-0.1-0.2-0.1-0.3-0.2l-0.5,0.6l-0.2-0.2l0.5-0.7c-0.1-0.1-0.2-0.2-0.3-0.3l-0.6,0.5l-0.2-0.2
						l0.5-0.6c-0.1-0.1-0.2-0.2-0.2-0.3l-0.7,0.5l-0.2-0.2l0.6-0.5c-0.1-0.1-0.2-0.2-0.2-0.3l-0.7,0.4l-0.1-0.2l0.7-0.5
						c-0.1-0.1-0.1-0.2-0.2-0.3l-0.8,0.3l-0.1-0.2l0.7-0.4c0-0.1-0.1-0.3-0.1-0.4l-0.8,0.2l-0.1-0.3l0.8-0.3c0-0.1,0-0.2-0.1-0.3
						l-0.8,0.1l0-0.3l0.8-0.2c0-0.1,0-0.3,0-0.4l-0.8-0.1v-0.3l0.8,0c0-0.1,0-0.2,0-0.3l-0.8-0.2l0-0.3l0.8,0.1c0-0.1,0-0.3,0.1-0.4
						l-0.8-0.3l0.1-0.3l0.8,0.2c0-0.1,0.1-0.2,0.1-0.3l-0.7-0.4l0.1-0.2l0.8,0.3c0.1-0.1,0.1-0.3,0.2-0.4l-0.7-0.5l0.1-0.2l0.7,0.4
						c0.1-0.1,0.1-0.2,0.2-0.3l-0.6-0.5l0.2-0.2l0.7,0.5c0.1-0.1,0.2-0.2,0.3-0.3l-0.5-0.6l0.2-0.2l0.6,0.5c0.1-0.1,0.2-0.2,0.3-0.2
						l-0.5-0.7l0.2-0.2l0.5,0.6c0.1-0.1,0.2-0.2,0.3-0.2l-0.4-0.7l0.2-0.1l0.5,0.7c0.1-0.1,0.2-0.1,0.3-0.2l-0.3-0.8l0.2-0.1
						l0.4,0.7c0.1,0,0.3-0.1,0.4-0.1l-0.2-0.8l0.3-0.1l0.3,0.8c0.1,0,0.2,0,0.3-0.1l-0.1-0.8l0.3,0l0.2,0.8c0.1,0,0.3,0,0.4,0
						L92.4,118.1L92.4,118.1z M92.5,122.6c0.3,0,0.6,0.1,0.9,0.2l1.7-1.7c-0.7-0.6-1.6-0.9-2.6-0.9c-1,0-1.9,0.3-2.6,0.9l1.7,1.7
						C91.9,122.7,92.2,122.6,92.5,122.6L92.5,122.6z M94.2,123.6c0.1,0.3,0.2,0.6,0.2,0.9c0,0.3-0.1,0.6-0.2,0.9l1.7,1.7
						c0.6-0.7,0.9-1.6,0.9-2.6c0-1-0.3-1.9-0.9-2.6L94.2,123.6L94.2,123.6z M93.4,126.2c-0.3,0.1-0.6,0.2-0.9,0.2
						c-0.3,0-0.6-0.1-0.9-0.2l-1.7,1.7c0.7,0.6,1.6,0.9,2.6,0.9c1,0,1.9-0.3,2.6-0.9L93.4,126.2L93.4,126.2z M90.8,125.5
						c-0.1-0.3-0.2-0.6-0.2-0.9c0-0.3,0.1-0.6,0.2-0.9l-1.7-1.7c-0.6,0.7-0.9,1.6-0.9,2.6c0,1,0.3,1.9,0.9,2.6L90.8,125.5z"/>
					<path id="XMLID_217_" class="st16" d="M100.5,21.5c0.4,0.1,0.9,0.3,1.3,0.5l0.9-0.9c0.7,0.4,1.2,1,1.7,1.7l-0.9,0.9
						c0.2,0.4,0.4,0.8,0.5,1.2l1.3,0c0.1,0.4,0.1,0.8,0.1,1.2c0,0.4,0,0.8-0.1,1.2l-1.3,0c-0.1,0.4-0.3,0.9-0.5,1.2l0.9,0.9
						c-0.4,0.7-1,1.2-1.7,1.7l-0.9-0.9c-0.4,0.2-0.8,0.4-1.2,0.5v1.3c-0.4,0.1-0.8,0.1-1.2,0.1s-0.8,0-1.2-0.1v-1.3
						c-0.4-0.1-0.9-0.3-1.3-0.5L96,31.2c-0.7-0.4-1.2-1-1.7-1.7l0.9-0.9c-0.2-0.4-0.4-0.8-0.5-1.2l-1.3,0c-0.1-0.4-0.1-0.8-0.1-1.2
						c0-0.4,0-0.8,0.1-1.2l1.3,0c0.1-0.4,0.3-0.9,0.5-1.2l-0.9-0.9c0.4-0.7,1-1.2,1.7-1.7l0.9,0.9c0.4-0.2,0.8-0.4,1.2-0.5v-1.3
						c0.4-0.1,0.8-0.1,1.2-0.1s0.8,0,1.2,0.1V21.5L100.5,21.5z M99.3,23.2c-1.6,0-3,1.3-3,3s1.3,3,3,3c1.6,0,3-1.3,3-3
						S101,23.2,99.3,23.2L99.3,23.2z M99.3,23.5c-1.4,0-2.6,1.2-2.6,2.6c0,1.4,1.2,2.6,2.6,2.6c1.4,0,2.6-1.2,2.6-2.6
						C101.9,24.7,100.8,23.5,99.3,23.5L99.3,23.5z M99.3,23c-1.7,0-3.2,1.4-3.2,3.2c0,1.7,1.4,3.2,3.2,3.2c1.7,0,3.2-1.4,3.2-3.2
						C102.5,24.4,101.1,23,99.3,23z"/>
					<path id="XMLID_214_" class="st16" d="M68.3,89.9l1,0.3c0.2,0.1,0.4,0.3,0.3,0.6l-0.3,1c0.5,0.3,0.9,0.6,1.2,1.1l1-0.5
						c0.2-0.1,0.5,0,0.6,0.2l0.5,1c0.1,0.2,0,0.5-0.2,0.6l-1,0.5c0.1,0.5,0.2,1.1,0.1,1.6l1,0.3c0.2,0.1,0.4,0.3,0.3,0.6l-0.3,1
						c-0.1,0.2-0.3,0.4-0.6,0.3l-1-0.3c-0.3,0.5-0.6,0.9-1.1,1.2l0.5,1c0.1,0.2,0,0.5-0.2,0.6l-1,0.5c-0.2,0.1-0.5,0-0.6-0.2l-0.5-1
						c-0.5,0.1-1.1,0.2-1.6,0.1l-0.3,1c-0.1,0.2-0.3,0.4-0.6,0.3l-1-0.3c-0.2-0.1-0.4-0.3-0.3-0.6l0.3-1c-0.5-0.3-0.9-0.6-1.2-1.1
						l-1,0.5c-0.2,0.1-0.5,0-0.6-0.2l-0.5-1c-0.1-0.2,0-0.5,0.2-0.6l1-0.5c-0.1-0.5-0.2-1.1-0.1-1.6l-1-0.3
						c-0.2-0.1-0.4-0.3-0.3-0.6l0.3-1c0.1-0.2,0.3-0.4,0.6-0.3l1,0.3c0.3-0.5,0.6-0.9,1.1-1.2l-0.5-1c-0.1-0.2,0-0.5,0.2-0.6l1-0.5
						c0.2-0.1,0.5,0,0.6,0.2l0.5,1c0.5-0.1,1.1-0.2,1.6-0.1l0.3-1C67.8,89.9,68.1,89.8,68.3,89.9L68.3,89.9z M67.5,94.1
						c-1-0.3-2,0.2-2.3,1.2c-0.3,1,0.2,2,1.2,2.3c1,0.3,2-0.2,2.3-1.2C69,95.4,68.5,94.4,67.5,94.1z"/>
					<path id="XMLID_211_" class="st16" d="M54,66.9c0.5,0,1,0.1,1.5,0.3l0.2-0.5c0-0.1,0.1-0.1,0.2-0.1l0.4,0.2
						c0.1,0,0.1,0.1,0.1,0.2l-0.2,0.5c0.4,0.2,0.9,0.5,1.2,0.8l0.4-0.4c0.1-0.1,0.2-0.1,0.3,0l0.3,0.3c0.1,0.1,0.1,0.2,0,0.3
						L58,68.9c0.3,0.4,0.6,0.8,0.8,1.2l0.5-0.2c0.1,0,0.2,0,0.2,0.1l0.2,0.4c0,0.1,0,0.2-0.1,0.2l-0.5,0.2c0.2,0.5,0.3,0.9,0.3,1.5
						h0.6c0.1,0,0.2,0.1,0.2,0.2v0.4c0,0.1-0.1,0.2-0.2,0.2h-0.6c0,0.5-0.1,1-0.3,1.5l0.5,0.2c0.1,0,0.1,0.1,0.1,0.2l-0.2,0.4
						c0,0.1-0.1,0.1-0.2,0.1l-0.5-0.2c-0.2,0.4-0.5,0.9-0.8,1.2l0.4,0.4c0.1,0.1,0.1,0.2,0,0.3l-0.3,0.3c-0.1,0.1-0.2,0.1-0.3,0
						L57.4,77c-0.4,0.3-0.8,0.6-1.2,0.8l0.2,0.5c0,0.1,0,0.2-0.1,0.2l-0.4,0.2c-0.1,0-0.2,0-0.2-0.1l-0.2-0.5
						c-0.5,0.2-0.9,0.3-1.5,0.3V79c0,0.1-0.1,0.2-0.2,0.2h-0.4c-0.1,0-0.2-0.1-0.2-0.2v-0.6c-0.5,0-1-0.1-1.5-0.3l-0.2,0.5
						c0,0.1-0.1,0.1-0.2,0.1l-0.4-0.2c-0.1,0-0.1-0.1-0.1-0.2l0.2-0.5c-0.4-0.2-0.9-0.5-1.2-0.8l-0.4,0.4c-0.1,0.1-0.2,0.1-0.3,0
						l-0.3-0.3c-0.1-0.1-0.1-0.2,0-0.3l0.4-0.4c-0.3-0.4-0.6-0.8-0.8-1.2l-0.5,0.2c-0.1,0-0.2,0-0.2-0.1L47.5,75
						c0-0.1,0-0.2,0.1-0.2l0.5-0.2c-0.2-0.5-0.3-0.9-0.3-1.5h-0.6c-0.1,0-0.2-0.1-0.2-0.2v-0.4c0-0.1,0.1-0.2,0.2-0.2h0.6
						c0-0.5,0.1-1,0.3-1.5l-0.5-0.2c-0.1,0-0.1-0.1-0.1-0.2l0.2-0.4c0-0.1,0.1-0.1,0.2-0.1l0.5,0.2c0.2-0.4,0.5-0.9,0.8-1.2
						l-0.4-0.4c-0.1-0.1-0.1-0.2,0-0.3l0.3-0.3c0.1-0.1,0.2-0.1,0.3,0l0.4,0.4c0.4-0.3,0.8-0.6,1.2-0.8L50.8,67c0-0.1,0-0.2,0.1-0.2
						l0.4-0.2c0.1,0,0.2,0,0.2,0.1l0.2,0.5c0.5-0.2,0.9-0.3,1.5-0.3v-0.6c0-0.1,0.1-0.2,0.2-0.2h0.4c0.1,0,0.2,0.1,0.2,0.2V66.9
						L54,66.9z M53.6,68.7c-2.2,0-4,1.8-4,4c0,2.2,1.8,4,4,4c2.2,0,4-1.8,4-4C57.6,70.5,55.8,68.7,53.6,68.7z"/>
					<path id="XMLID_204_" class="st16" d="M90.2,43.8l0.9,0l0.2,1.3c0.4,0.1,0.8,0.2,1.2,0.3l0.8-1l0.8,0.4L93.7,46
						c0.3,0.3,0.6,0.5,0.9,0.9l1.2-0.4l0.4,0.8l-1,0.8c0.2,0.4,0.3,0.8,0.3,1.2l1.3,0.2l0,0.9l-1.3,0.2c-0.1,0.4-0.2,0.8-0.3,1.2
						l1,0.8l-0.4,0.8l-1.2-0.4c-0.3,0.3-0.5,0.6-0.9,0.9l0.4,1.2l-0.8,0.4l-0.8-1c-0.4,0.2-0.8,0.3-1.2,0.3L91.1,56l-0.9,0L90,54.8
						c-0.4-0.1-0.8-0.2-1.2-0.3l-0.8,1L87.2,55l0.4-1.2c-0.3-0.3-0.6-0.5-0.9-0.9l-1.2,0.4l-0.4-0.8l1-0.8c-0.2-0.4-0.3-0.8-0.3-1.2
						l-1.3-0.2l0-0.9l1.3-0.2c0.1-0.4,0.2-0.8,0.3-1.2l-1-0.8l0.4-0.8l1.2,0.4c0.3-0.3,0.5-0.6,0.9-0.9l-0.4-1.2l0.8-0.4l0.8,1
						c0.4-0.2,0.8-0.3,1.2-0.3L90.2,43.8L90.2,43.8z M93.8,47.3L93,48.1c0.4,0.5,0.6,1.2,0.6,1.8c0,0.7-0.2,1.4-0.7,1.9l0.8,0.8
						c0.6-0.7,1-1.6,1-2.7C94.8,48.9,94.4,48,93.8,47.3L93.8,47.3z M92.5,47.6l0.8-0.8c-0.7-0.6-1.6-1-2.7-1c-1,0-1.9,0.4-2.6,1
						l0.8,0.8c0.5-0.4,1.2-0.7,1.9-0.7C91.4,46.9,92,47.2,92.5,47.6L92.5,47.6z M88.8,52.3l-0.8,0.8c0.7,0.6,1.6,0.9,2.6,0.9
						c1,0,1.9-0.4,2.6-1l-0.8-0.8c-0.5,0.4-1.2,0.6-1.8,0.6C90,52.9,89.3,52.7,88.8,52.3L88.8,52.3z M87.6,52.6l0.8-0.8
						c-0.4-0.5-0.7-1.2-0.7-1.9c0-0.7,0.2-1.3,0.6-1.9l-0.8-0.8c-0.6,0.7-0.9,1.6-0.9,2.6C86.6,50.9,86.9,51.9,87.6,52.6L87.6,52.6z
						 M90.7,47.9c-1.1,0-2,0.9-2,2c0,1.1,0.9,2,2,2c1.1,0,2-0.9,2-2C92.7,48.8,91.8,47.9,90.7,47.9z"/>
					<path id="XMLID_200_" class="st16" d="M65.8,31.7c1.8-0.3,3.6,0.9,3.9,2.8c0.3,1.8-0.9,3.6-2.8,3.9c-1.8,0.3-3.6-0.9-3.9-2.8
						C62.8,33.8,64,32,65.8,31.7L65.8,31.7z M64.9,28.7l0,1.4c-0.4,0.1-0.8,0.3-1.2,0.5l-1-0.9l-0.7,0.6l0.7,1.2
						c-0.3,0.3-0.5,0.7-0.8,1.1l-1.3-0.2l-0.3,0.9l1.2,0.7c-0.1,0.4-0.1,0.9-0.1,1.3l-1.3,0.5l0.2,0.9l1.4,0
						c0.1,0.4,0.3,0.8,0.5,1.2l-0.9,1l0.6,0.7l1.2-0.7c0.3,0.3,0.7,0.5,1.1,0.8L63.6,41l0.9,0.3l0.7-1.2c0.4,0.1,0.9,0.1,1.3,0.1
						l0.5,1.3l0.9-0.2l0-1.4c0.4-0.1,0.8-0.3,1.2-0.5l1,0.9l0.7-0.6l-0.7-1.2c0.3-0.3,0.5-0.7,0.8-1.1l1.3,0.2l0.3-0.9l-1.2-0.7
						c0.1-0.4,0.1-0.9,0.1-1.3l1.3-0.5l-0.2-0.9l-1.4,0c-0.1-0.4-0.3-0.8-0.5-1.2l0.9-1l-0.6-0.7l-1.2,0.7c-0.3-0.3-0.7-0.5-1.1-0.8
						l0.2-1.3l-0.9-0.3l-0.7,1.2c-0.4-0.1-0.9-0.1-1.3-0.1l-0.5-1.3L64.9,28.7L64.9,28.7z M65.7,30.7c-2.4,0.4-4,2.6-3.6,5
						c0.4,2.4,2.6,4,5,3.6c2.4-0.4,4-2.6,3.6-5C70.3,32,68.1,30.4,65.7,30.7z"/>
					<path id="XMLID_185_" class="st16" d="M94.5,72.5l0,0.8c-0.1,0-0.3,0-0.4,0l-0.2-0.8l-0.2,0l0.1,0.8c-0.1,0-0.2,0-0.3,0.1
						l-0.2-0.7l-0.2,0.1l0.2,0.8c-0.1,0-0.2,0.1-0.4,0.1l-0.3-0.7L92.1,73l0.3,0.7c-0.1,0-0.2,0.1-0.3,0.1l-0.4-0.6l-0.2,0.1
						l0.3,0.7c-0.1,0.1-0.2,0.1-0.3,0.2L91,73.7l-0.2,0.1l0.4,0.6c-0.1,0.1-0.2,0.1-0.2,0.2l-0.6-0.5l-0.2,0.2l0.5,0.6
						c-0.1,0.1-0.2,0.2-0.3,0.3l-0.6-0.4L89.7,75l0.6,0.5c-0.1,0.1-0.1,0.2-0.2,0.3l-0.7-0.3l-0.1,0.2l0.6,0.4
						c-0.1,0.1-0.1,0.2-0.2,0.3L89,76.1l-0.1,0.2l0.7,0.3c0,0.1-0.1,0.2-0.1,0.3l-0.8-0.2l-0.1,0.2l0.7,0.2c0,0.1-0.1,0.3-0.1,0.4
						l-0.8,0l0,0.2l0.8,0.1c0,0.1,0,0.2,0,0.3l-0.8,0v0.2l0.8,0c0,0.1,0,0.3,0,0.4l-0.8,0.2l0,0.2l0.8-0.1c0,0.1,0,0.2,0.1,0.3
						L88.7,80l0.1,0.2l0.8-0.2c0,0.1,0.1,0.2,0.1,0.4L89,80.7l0.1,0.2l0.7-0.3c0,0.1,0.1,0.2,0.1,0.3l-0.6,0.4l0.1,0.2l0.7-0.3
						c0.1,0.1,0.1,0.2,0.2,0.3l-0.6,0.5l0.1,0.2l0.6-0.4c0.1,0.1,0.1,0.2,0.2,0.2l-0.5,0.6l0.2,0.2l0.6-0.5c0.1,0.1,0.2,0.2,0.3,0.3
						l-0.4,0.6l0.2,0.1l0.5-0.6c0.1,0.1,0.2,0.1,0.3,0.2l-0.3,0.7l0.2,0.1l0.4-0.6c0.1,0.1,0.2,0.1,0.3,0.2l-0.2,0.7l0.2,0.1
						l0.3-0.7c0.1,0,0.2,0.1,0.3,0.1l-0.2,0.8l0.2,0.1l0.2-0.7c0.1,0,0.3,0.1,0.4,0.1l0,0.8l0.2,0l0.1-0.8c0.1,0,0.2,0,0.3,0l0,0.8
						h0.2l0-0.8c0.1,0,0.3,0,0.4,0l0.2,0.8l0.2,0l-0.1-0.8c0.1,0,0.2,0,0.3-0.1l0.2,0.7l0.2-0.1l-0.2-0.8c0.1,0,0.2-0.1,0.4-0.1
						l0.3,0.7L97,84l-0.3-0.7c0.1,0,0.2-0.1,0.3-0.1l0.4,0.6l0.2-0.1L97.4,83c0.1-0.1,0.2-0.1,0.3-0.2l0.5,0.6l0.2-0.1l-0.4-0.6
						c0.1-0.1,0.2-0.1,0.2-0.2l0.6,0.5l0.2-0.2l-0.5-0.6c0.1-0.1,0.2-0.2,0.3-0.3l0.6,0.4l0.1-0.2l-0.6-0.5c0.1-0.1,0.1-0.2,0.2-0.3
						l0.7,0.3l0.1-0.2L99.2,81c0.1-0.1,0.1-0.2,0.2-0.3l0.7,0.2l0.1-0.2l-0.7-0.3c0-0.1,0.1-0.2,0.1-0.3l0.8,0.2l0.1-0.2l-0.7-0.2
						c0-0.1,0.1-0.3,0.1-0.4l0.8,0l0-0.2L99.8,79c0-0.1,0-0.2,0-0.3l0.8,0v-0.2l-0.8,0c0-0.1,0-0.3,0-0.4l0.8-0.2l0-0.2l-0.8,0.1
						c0-0.1,0-0.2-0.1-0.3l0.7-0.2l-0.1-0.2L99.6,77c0-0.1-0.1-0.2-0.1-0.4l0.7-0.3l-0.1-0.2l-0.7,0.3c0-0.1-0.1-0.2-0.1-0.3
						l0.6-0.4l-0.1-0.2l-0.7,0.3c-0.1-0.1-0.1-0.2-0.2-0.3l0.6-0.5l-0.1-0.2l-0.6,0.4c-0.1-0.1-0.1-0.2-0.2-0.2l0.5-0.6l-0.2-0.2
						l-0.6,0.5c-0.1-0.1-0.2-0.2-0.3-0.3l0.4-0.6l-0.2-0.1l-0.5,0.6c-0.1-0.1-0.2-0.1-0.3-0.2l0.3-0.7l-0.2-0.1l-0.4,0.6
						c-0.1-0.1-0.2-0.1-0.3-0.2L97,73l-0.2-0.1l-0.3,0.7c-0.1,0-0.2-0.1-0.3-0.1l0.2-0.8L96,72.7l-0.2,0.7c-0.1,0-0.3-0.1-0.4-0.1
						l0-0.8l-0.2,0l-0.1,0.8c-0.1,0-0.2,0-0.3,0l0-0.8H94.5L94.5,72.5z M94.6,75.2c0.2,0,0.4,0.2,0.4,0.4c0,0.2-0.2,0.4-0.4,0.4
						c-0.2,0-0.4-0.2-0.4-0.4C94.2,75.4,94.3,75.2,94.6,75.2L94.6,75.2z M97.4,78.1c0.2,0,0.4,0.2,0.4,0.4c0,0.2-0.2,0.4-0.4,0.4
						c-0.2,0-0.4-0.2-0.4-0.4C97,78.3,97.2,78.1,97.4,78.1L97.4,78.1z M91.7,78.1c0.2,0,0.4,0.2,0.4,0.4c0,0.2-0.2,0.4-0.4,0.4
						c-0.2,0-0.4-0.2-0.4-0.4C91.3,78.3,91.5,78.1,91.7,78.1L91.7,78.1z M94.6,81c0.2,0,0.4,0.2,0.4,0.4c0,0.2-0.2,0.4-0.4,0.4
						c-0.2,0-0.4-0.2-0.4-0.4C94.1,81.2,94.3,81,94.6,81L94.6,81z M94.6,74.7c-0.4,0-0.8,0.3-0.9,0.7c-0.4,0.1-0.7,0.3-1,0.5
						l-0.5-0.5c0.7-0.5,1.5-0.8,2.4-0.8c0.9,0,1.7,0.3,2.4,0.8l-0.5,0.5c-0.3-0.2-0.6-0.4-1-0.5C95.4,75,95,74.7,94.6,74.7
						L94.6,74.7z M95.5,75.9c0.2,0.1,0.4,0.2,0.6,0.3L95.4,77c-0.3-0.1-0.5-0.2-0.9-0.2c-0.3,0-0.6,0.1-0.9,0.2L93,76.3
						c0.2-0.1,0.4-0.2,0.6-0.3c0.1,0.4,0.5,0.7,0.9,0.7C95,76.6,95.4,76.3,95.5,75.9L95.5,75.9z M97.7,77.6c-0.1-0.4-0.3-0.7-0.5-1
						l0.5-0.5c0.5,0.7,0.8,1.5,0.8,2.4c0,0.9-0.3,1.7-0.8,2.4l-0.5-0.5c0.2-0.3,0.4-0.6,0.5-1c0.4-0.1,0.7-0.5,0.7-0.9
						C98.4,78.1,98.1,77.7,97.7,77.6L97.7,77.6z M97.2,79.4c-0.1,0.2-0.2,0.4-0.3,0.6l-0.7-0.7c0.1-0.3,0.2-0.5,0.2-0.9
						c0-0.3-0.1-0.6-0.2-0.9l0.7-0.7c0.1,0.2,0.2,0.4,0.3,0.6c-0.4,0.1-0.7,0.5-0.7,0.9C96.5,78.9,96.8,79.3,97.2,79.4L97.2,79.4z
						 M92,77.6c0.1-0.2,0.2-0.4,0.3-0.6l0.7,0.7c-0.1,0.3-0.2,0.5-0.2,0.9c0,0.3,0.1,0.6,0.2,0.9l-0.7,0.7c-0.1-0.2-0.2-0.4-0.3-0.6
						c0.4-0.1,0.7-0.5,0.7-0.9C92.7,78.1,92.4,77.7,92,77.6L92,77.6z M91.5,79.4c0.1,0.4,0.3,0.7,0.5,1l-0.5,0.5
						c-0.5-0.7-0.8-1.5-0.8-2.4c0-0.9,0.3-1.7,0.8-2.4l0.5,0.5c-0.2,0.3-0.4,0.6-0.5,1c-0.4,0.1-0.7,0.5-0.7,0.9
						C90.8,79,91.1,79.3,91.5,79.4L91.5,79.4z M94.6,80.4c-0.4,0-0.8,0.3-0.9,0.7c-0.2-0.1-0.4-0.2-0.6-0.3l0.7-0.7
						c0.3,0.1,0.5,0.2,0.9,0.2c0.3,0,0.6-0.1,0.9-0.2l0.7,0.7c-0.2,0.1-0.4,0.2-0.7,0.3C95.4,80.7,95,80.4,94.6,80.4L94.6,80.4z
						 M95.5,81.6c0.4-0.1,0.7-0.3,1-0.5l0.5,0.5c-0.7,0.5-1.5,0.8-2.4,0.8c-0.9,0-1.7-0.3-2.4-0.8l0.5-0.5c0.3,0.2,0.6,0.4,1,0.5
						c0.1,0.4,0.5,0.7,0.9,0.7C95,82.3,95.4,82,95.5,81.6L95.5,81.6z M94.6,77.8c0.4,0,0.7,0.3,0.7,0.7c0,0.4-0.3,0.7-0.7,0.7
						c-0.4,0-0.7-0.3-0.7-0.7C93.9,78.1,94.2,77.8,94.6,77.8z"/>
				</g>
			</g>
			<g id="XMLID_98_">
				<g id="XMLID_43_">
					<path id="XMLID_85_" class="st13" d="M141.2,144.9h0.3l0.1,0.9c0.1,0,0.2,0,0.4,0l0.2-0.9l0.3,0l-0.1,0.9
						c0.1,0,0.3,0.1,0.4,0.1l0.3-0.8l0.3,0.1l-0.2,0.9c0.1,0,0.2,0.1,0.3,0.1l0.4-0.8l0.3,0.1l-0.3,0.8c0.1,0.1,0.3,0.1,0.4,0.2
						l0.5-0.7l0.2,0.1l-0.4,0.8c0.1,0.1,0.2,0.1,0.3,0.2l0.6-0.7l0.2,0.2l-0.5,0.7c0.1,0.1,0.2,0.2,0.3,0.3l0.7-0.6l0.2,0.2
						l-0.6,0.7c0.1,0.1,0.2,0.2,0.2,0.3l0.7-0.5l0.2,0.2l-0.7,0.6c0.1,0.1,0.2,0.2,0.2,0.4l0.8-0.4l0.1,0.2l-0.7,0.5
						c0.1,0.1,0.1,0.2,0.2,0.3l0.8-0.3l0.1,0.3l-0.8,0.4c0.1,0.1,0.1,0.3,0.1,0.4l0.9-0.2l0.1,0.3l-0.8,0.3c0,0.1,0.1,0.2,0.1,0.4
						l0.9-0.1l0,0.3l-0.9,0.2c0,0.1,0,0.3,0,0.4l0.9,0.1v0.3l-0.9,0.1c0,0.1,0,0.2,0,0.4l0.9,0.2l0,0.3l-0.9-0.1
						c0,0.1-0.1,0.3-0.1,0.4l0.8,0.3l-0.1,0.3l-0.9-0.2c0,0.1-0.1,0.2-0.1,0.3l0.8,0.4l-0.1,0.3l-0.8-0.3c-0.1,0.1-0.1,0.3-0.2,0.4
						l0.7,0.5l-0.1,0.2l-0.8-0.4c-0.1,0.1-0.1,0.2-0.2,0.3l0.7,0.6l-0.2,0.2l-0.7-0.5c-0.1,0.1-0.2,0.2-0.3,0.3l0.6,0.7l-0.2,0.2
						l-0.7-0.6c-0.1,0.1-0.2,0.2-0.3,0.2l0.5,0.7l-0.2,0.2l-0.6-0.7c-0.1,0.1-0.2,0.2-0.4,0.2l0.4,0.8l-0.2,0.1l-0.5-0.7
						c-0.1,0.1-0.2,0.1-0.3,0.2l0.3,0.8l-0.3,0.1l-0.4-0.8c-0.1,0.1-0.3,0.1-0.4,0.1l0.2,0.9l-0.3,0.1l-0.3-0.8
						c-0.1,0-0.2,0.1-0.4,0.1l0.1,0.9l-0.3,0l-0.2-0.9c-0.1,0-0.3,0-0.4,0l-0.1,0.9h-0.3l-0.1-0.9c-0.1,0-0.2,0-0.4,0l-0.2,0.9
						l-0.3,0l0.1-0.9c-0.1,0-0.3-0.1-0.4-0.1l-0.3,0.8l-0.3-0.1l0.2-0.9c-0.1,0-0.2-0.1-0.3-0.1l-0.4,0.8l-0.3-0.1l0.3-0.8
						c-0.1-0.1-0.3-0.1-0.4-0.2l-0.5,0.7l-0.2-0.1l0.4-0.8c-0.1-0.1-0.2-0.1-0.3-0.2l-0.6,0.7l-0.2-0.2l0.5-0.7
						c-0.1-0.1-0.2-0.2-0.3-0.3l-0.7,0.6l-0.2-0.2l0.6-0.7c-0.1-0.1-0.2-0.2-0.2-0.3l-0.7,0.5l-0.2-0.2l0.7-0.6
						c-0.1-0.1-0.2-0.2-0.2-0.4l-0.8,0.4l-0.1-0.2l0.7-0.5c-0.1-0.1-0.1-0.2-0.2-0.3l-0.8,0.3l-0.1-0.3l0.8-0.4
						c-0.1-0.1-0.1-0.3-0.1-0.4l-0.9,0.2l-0.1-0.3l0.8-0.3c0-0.1-0.1-0.2-0.1-0.4l-0.9,0.1l0-0.3l0.9-0.2c0-0.1,0-0.3,0-0.4
						l-0.9-0.1v-0.3l0.9-0.1c0-0.1,0-0.2,0-0.4l-0.9-0.2l0-0.3l0.9,0.1c0-0.1,0.1-0.3,0.1-0.4l-0.8-0.3l0.1-0.3l0.9,0.2
						c0-0.1,0.1-0.2,0.1-0.3l-0.8-0.4l0.1-0.3l0.8,0.3c0.1-0.1,0.1-0.3,0.2-0.4l-0.7-0.5l0.1-0.2l0.8,0.4c0.1-0.1,0.1-0.2,0.2-0.3
						l-0.7-0.6l0.2-0.2l0.7,0.5c0.1-0.1,0.2-0.2,0.3-0.3l-0.6-0.7l0.2-0.2l0.7,0.6c0.1-0.1,0.2-0.2,0.3-0.2l-0.5-0.7l0.2-0.2
						l0.6,0.7c0.1-0.1,0.2-0.2,0.4-0.2l-0.4-0.8l0.2-0.1l0.5,0.7c0.1-0.1,0.2-0.1,0.3-0.2l-0.3-0.8l0.3-0.1l0.4,0.8
						c0.1-0.1,0.3-0.1,0.4-0.1l-0.2-0.9l0.3-0.1l0.3,0.8c0.1,0,0.2-0.1,0.4-0.1l-0.1-0.9l0.3,0l0.2,0.9c0.1,0,0.3,0,0.4,0
						L141.2,144.9L141.2,144.9z M141.4,149.7c0.4,0,0.7,0.1,1,0.2l1.8-1.8c-0.8-0.6-1.7-0.9-2.7-0.9c-1,0-2,0.3-2.7,0.9l1.8,1.8
						C140.7,149.8,141,149.7,141.4,149.7L141.4,149.7z M143.1,150.8c0.2,0.3,0.2,0.6,0.2,1c0,0.4-0.1,0.7-0.2,1l1.8,1.8
						c0.6-0.8,0.9-1.7,0.9-2.7s-0.3-2-0.9-2.7L143.1,150.8L143.1,150.8z M142.3,153.5c-0.3,0.2-0.6,0.2-1,0.2c-0.4,0-0.7-0.1-1-0.2
						l-1.8,1.8c0.8,0.6,1.7,0.9,2.7,0.9c1,0,2-0.3,2.7-0.9L142.3,153.5L142.3,153.5z M139.6,152.7c-0.2-0.3-0.2-0.6-0.2-1
						c0-0.4,0.1-0.7,0.2-1l-1.8-1.8c-0.6,0.8-0.9,1.7-0.9,2.7s0.3,2,0.9,2.7L139.6,152.7z"/>
					<path id="XMLID_78_" class="st13" d="M125.5,155.7l1.4-0.2l0.6,1.9c0.7,0,1.3,0.1,1.9,0.2l1.1-1.7l1.3,0.5l-0.4,2
						c0.6,0.3,1.1,0.7,1.5,1.2l1.8-0.9l0.9,1.1l-1.3,1.5c0.3,0.6,0.6,1.1,0.7,1.8l2,0.1l0.2,1.4l-1.9,0.6c0,0.7-0.1,1.3-0.2,1.9
						l1.7,1.1l-0.5,1.3l-2-0.4c-0.3,0.6-0.7,1.1-1.2,1.5l0.9,1.8l-1.1,0.9l-1.5-1.3c-0.6,0.3-1.1,0.6-1.8,0.7l-0.1,2l-1.4,0.2
						l-0.6-1.9c-0.7,0-1.3-0.1-1.9-0.2l-1.1,1.7l-1.3-0.5l0.4-2c-0.6-0.3-1.1-0.7-1.5-1.2l-1.8,0.9l-0.9-1.1l1.3-1.5
						c-0.3-0.6-0.6-1.1-0.7-1.8l-2-0.1l-0.2-1.4l1.9-0.6c0-0.7,0.1-1.3,0.2-1.9l-1.7-1.1l0.5-1.3l2,0.4c0.3-0.6,0.7-1.1,1.2-1.5
						L121,158l1.1-0.9l1.5,1.3c0.6-0.3,1.1-0.6,1.8-0.7L125.5,155.7L125.5,155.7z M131.8,160.5l-1,1.4c0.7,0.7,1.2,1.7,1.4,2.8
						c0.1,1.1-0.1,2.2-0.6,3.1l1.4,1c0.8-1.2,1.2-2.8,1-4.4C133.7,162.8,132.9,161.4,131.8,160.5L131.8,160.5z M129.9,161.2l1-1.4
						c-1.2-0.8-2.8-1.2-4.4-1c-1.6,0.2-3,1-3.9,2.1l1.4,1c0.7-0.8,1.7-1.3,2.8-1.4C128,160.4,129,160.6,129.9,161.2L129.9,161.2z
						 M125.1,169.3l-1,1.4c1.2,0.8,2.7,1.1,4.3,0.9c1.6-0.2,2.9-1,3.9-2l-1.4-1c-0.7,0.7-1.7,1.2-2.8,1.4
						C127,170.1,126,169.8,125.1,169.3L125.1,169.3z M123.1,170l1-1.4c-0.8-0.7-1.3-1.7-1.4-2.8c-0.1-1.1,0.1-2.1,0.6-3l-1.4-1
						c-0.8,1.2-1.1,2.7-0.9,4.3C121.3,167.7,122,169,123.1,170L123.1,170z M127,162c-1.8,0.2-3,1.9-2.8,3.6c0.2,1.8,1.9,3,3.6,2.8
						c1.8-0.2,3-1.9,2.8-3.6C130.4,163,128.8,161.8,127,162z"/>
					<path id="XMLID_75_" class="st13" d="M112,157.5l1.5,0.5c0.3,0.1,0.5,0.5,0.4,0.8l-0.5,1.5c0.7,0.4,1.3,0.9,1.7,1.5l1.4-0.7
						c0.3-0.2,0.7,0,0.8,0.3l0.7,1.4c0.2,0.3,0,0.7-0.3,0.8l-1.4,0.7c0.2,0.7,0.3,1.5,0.2,2.3l1.5,0.5c0.3,0.1,0.5,0.5,0.4,0.8
						l-0.5,1.5c-0.1,0.3-0.5,0.5-0.8,0.4l-1.5-0.5c-0.4,0.7-0.9,1.3-1.5,1.7l0.7,1.4c0.2,0.3,0,0.7-0.3,0.8l-1.4,0.7
						c-0.3,0.2-0.7,0-0.8-0.3l-0.7-1.4c-0.7,0.2-1.5,0.3-2.3,0.2l-0.5,1.5c-0.1,0.3-0.5,0.5-0.8,0.4l-1.5-0.5
						c-0.3-0.1-0.5-0.5-0.4-0.8l0.5-1.5c-0.7-0.4-1.3-0.9-1.7-1.5l-1.4,0.7c-0.3,0.2-0.7,0-0.8-0.3l-0.7-1.4c-0.2-0.3,0-0.7,0.3-0.8
						l1.4-0.7c-0.2-0.7-0.3-1.5-0.2-2.3l-1.5-0.5c-0.3-0.1-0.5-0.5-0.4-0.8l0.5-1.5c0.1-0.3,0.5-0.5,0.8-0.4l1.5,0.5
						c0.4-0.7,0.9-1.3,1.5-1.7l-0.7-1.4c-0.2-0.3,0-0.7,0.3-0.8l1.4-0.7c0.3-0.2,0.7,0,0.8,0.3l0.7,1.4c0.7-0.2,1.5-0.3,2.3-0.2
						l0.5-1.5C111.3,157.5,111.7,157.4,112,157.5L112,157.5z M110.9,163.4c-1.4-0.4-2.8,0.3-3.3,1.7c-0.4,1.4,0.3,2.8,1.7,3.3
						c1.4,0.4,2.8-0.3,3.3-1.7C113,165.3,112.2,163.8,110.9,163.4z"/>
					<path id="XMLID_52_" class="st13" d="M115.5,143.3h0.3l0.1,0.9c0.1,0,0.2,0,0.4,0l0.2-0.9l0.3,0l-0.1,0.9
						c0.1,0,0.3,0.1,0.4,0.1l0.3-0.8l0.3,0.1l-0.2,0.9c0.1,0,0.2,0.1,0.3,0.1l0.4-0.8l0.3,0.1l-0.3,0.8c0.1,0.1,0.3,0.1,0.4,0.2
						l0.5-0.7l0.2,0.1l-0.4,0.8c0.1,0.1,0.2,0.1,0.3,0.2l0.6-0.7l0.2,0.2l-0.5,0.7c0.1,0.1,0.2,0.2,0.3,0.3l0.7-0.6l0.2,0.2
						l-0.6,0.7c0.1,0.1,0.2,0.2,0.2,0.3l0.7-0.5l0.2,0.2l-0.7,0.6c0.1,0.1,0.2,0.2,0.3,0.4l0.8-0.4l0.1,0.2l-0.7,0.5
						c0.1,0.1,0.1,0.2,0.2,0.3l0.8-0.3l0.1,0.3l-0.8,0.4c0.1,0.1,0.1,0.3,0.1,0.4l0.9-0.2l0.1,0.3l-0.8,0.3c0,0.1,0.1,0.2,0.1,0.4
						l0.9-0.1l0,0.3l-0.9,0.2c0,0.1,0,0.3,0,0.4l0.9,0.1v0.3l-0.9,0.1c0,0.1,0,0.2,0,0.4l0.9,0.2l0,0.3l-0.9-0.1
						c0,0.1-0.1,0.3-0.1,0.4l0.8,0.3l-0.1,0.3l-0.9-0.2c0,0.1-0.1,0.2-0.1,0.3l0.8,0.4l-0.1,0.3l-0.8-0.3c-0.1,0.1-0.1,0.3-0.2,0.4
						l0.7,0.5l-0.1,0.2l-0.8-0.4c-0.1,0.1-0.1,0.2-0.2,0.3l0.7,0.6l-0.2,0.2l-0.7-0.5c-0.1,0.1-0.2,0.2-0.3,0.3l0.6,0.7l-0.2,0.2
						l-0.7-0.6c-0.1,0.1-0.2,0.2-0.3,0.2l0.5,0.7l-0.2,0.2l-0.6-0.7c-0.1,0.1-0.2,0.2-0.4,0.3l0.4,0.8l-0.2,0.1l-0.5-0.7
						c-0.1,0.1-0.2,0.1-0.3,0.2l0.3,0.8l-0.3,0.1l-0.4-0.8c-0.1,0.1-0.3,0.1-0.4,0.1l0.2,0.9l-0.3,0.1l-0.3-0.8
						c-0.1,0-0.2,0.1-0.4,0.1l0.1,0.9l-0.3,0l-0.2-0.9c-0.1,0-0.3,0-0.4,0l-0.1,0.9h-0.3l-0.1-0.9c-0.1,0-0.2,0-0.4,0l-0.2,0.9
						l-0.3,0l0.1-0.9c-0.1,0-0.3-0.1-0.4-0.1l-0.3,0.8l-0.3-0.1l0.2-0.9c-0.1,0-0.2-0.1-0.3-0.1l-0.4,0.8l-0.3-0.1l0.3-0.8
						c-0.1-0.1-0.3-0.1-0.4-0.2l-0.5,0.7l-0.2-0.1l0.4-0.8c-0.1-0.1-0.2-0.1-0.3-0.2l-0.6,0.7l-0.2-0.2l0.5-0.7
						c-0.1-0.1-0.2-0.2-0.3-0.3l-0.7,0.6l-0.2-0.2l0.6-0.7c-0.1-0.1-0.2-0.2-0.2-0.3l-0.7,0.5l-0.2-0.2l0.7-0.6
						c-0.1-0.1-0.2-0.2-0.3-0.4l-0.8,0.4l-0.1-0.2l0.7-0.5c-0.1-0.1-0.1-0.2-0.2-0.3l-0.8,0.3l-0.1-0.3l0.8-0.4
						c-0.1-0.1-0.1-0.3-0.1-0.4l-0.9,0.2l-0.1-0.3l0.8-0.3c0-0.1-0.1-0.2-0.1-0.4l-0.9,0.1l0-0.3l0.9-0.2c0-0.1,0-0.3,0-0.4
						l-0.9-0.1v-0.3l0.9-0.1c0-0.1,0-0.2,0-0.4l-0.9-0.2l0-0.3l0.9,0.1c0-0.1,0.1-0.3,0.1-0.4l-0.8-0.3l0.1-0.3l0.9,0.2
						c0-0.1,0.1-0.2,0.1-0.4l-0.8-0.4l0.1-0.3l0.8,0.3c0.1-0.1,0.1-0.3,0.2-0.4l-0.7-0.5l0.1-0.2l0.8,0.4c0.1-0.1,0.1-0.2,0.2-0.3
						l-0.7-0.6l0.2-0.2l0.7,0.5c0.1-0.1,0.2-0.2,0.3-0.3l-0.6-0.7l0.2-0.2l0.7,0.6c0.1-0.1,0.2-0.2,0.3-0.2l-0.5-0.7l0.2-0.2
						l0.6,0.7c0.1-0.1,0.2-0.2,0.4-0.3l-0.4-0.8l0.2-0.1l0.5,0.7c0.1-0.1,0.2-0.1,0.3-0.2l-0.3-0.8l0.3-0.1l0.4,0.8
						c0.1-0.1,0.3-0.1,0.4-0.1l-0.2-0.9l0.3-0.1l0.3,0.8c0.1,0,0.2-0.1,0.4-0.1l-0.1-0.9l0.3,0l0.2,0.9c0.1,0,0.3,0,0.4,0
						L115.5,143.3L115.5,143.3z M115.8,144.7v0.5c1.3,0,2.5,0.6,3.4,1.4l0.3-0.3C118.6,145.3,117.2,144.7,115.8,144.7L115.8,144.7z
						 M115.5,145.1v-0.5c-1.5,0-2.8,0.6-3.8,1.6l0.3,0.3C113,145.7,114.2,145.2,115.5,145.1L115.5,145.1z M119.5,154.3l-0.3-0.3
						c-0.9,0.9-2.1,1.4-3.4,1.4v0.4C117.2,155.9,118.6,155.3,119.5,154.3L119.5,154.3z M119.4,153.8l0.3,0.3c0.9-1,1.5-2.3,1.6-3.8
						h-0.5C120.8,151.7,120.2,152.9,119.4,153.8L119.4,153.8z M111.9,146.7l-0.3-0.3c-0.9,1-1.5,2.3-1.6,3.8h0.5
						C110.5,148.8,111.1,147.6,111.9,146.7L111.9,146.7z M120.8,150.2h0.5c0-1.5-0.6-2.8-1.6-3.8l-0.3,0.3
						C120.2,147.6,120.8,148.8,120.8,150.2L120.8,150.2z M110.5,150.4h-0.5c0,1.5,0.6,2.8,1.6,3.8l0.3-0.3
						C111.1,152.9,110.5,151.7,110.5,150.4L110.5,150.4z M115.5,155.9v-0.4c-1.3,0-2.5-0.6-3.4-1.4l-0.3,0.3
						C112.8,155.3,114.1,155.9,115.5,155.9L115.5,155.9z M115.7,149.2c-0.6,0-1.1,0.5-1.1,1.1c0,0.6,0.5,1.1,1.1,1.1
						c0.6,0,1.1-0.5,1.1-1.1C116.8,149.7,116.3,149.2,115.7,149.2L115.7,149.2z M111.6,150.2h2c0-0.5,0.2-1,0.5-1.3l-1.4-1.4
						C112,148.2,111.6,149.1,111.6,150.2L111.6,150.2z M117.7,150.2h2c0-1.1-0.4-2-1.1-2.7l-1.4,1.4
						C117.5,149.2,117.7,149.7,117.7,150.2L117.7,150.2z M119.8,150.4h-2c0,0.5-0.2,1-0.5,1.3l1.4,1.4
						C119.3,152.4,119.7,151.4,119.8,150.4L119.8,150.4z M113.6,150.4h-2c0,1.1,0.4,2,1.1,2.7l1.4-1.4
						C113.8,151.3,113.6,150.9,113.6,150.4L113.6,150.4z M115.7,146.2v2c0.5,0,1,0.2,1.3,0.5l1.4-1.4
						C117.8,146.6,116.8,146.2,115.7,146.2L115.7,146.2z M115.7,152.4v2c1.1,0,2-0.4,2.7-1.1l-1.4-1.4
						C116.7,152.1,116.2,152.3,115.7,152.4L115.7,152.4z M115.6,154.4v-2c-0.5,0-1-0.2-1.3-0.5l-1.4,1.4
						C113.6,153.9,114.5,154.4,115.6,154.4L115.6,154.4z M115.6,148.2v-2c-1.1,0-2,0.4-2.7,1.1l1.4,1.4
						C114.6,148.4,115.1,148.2,115.6,148.2L115.6,148.2z M112.2,146.7l0.5,0.5c0.8-0.7,1.8-1.2,2.9-1.2c1.1,0,2.1,0.4,2.9,1.2
						l0.5-0.5c-0.9-0.9-2.1-1.4-3.4-1.4C114.3,145.4,113.1,145.9,112.2,146.7L112.2,146.7z M118.7,153.2l0.5,0.5
						c0.9-0.9,1.4-2.1,1.4-3.4c0-1.3-0.5-2.5-1.4-3.4l-0.5,0.5c0.7,0.8,1.2,1.8,1.2,2.9C119.9,151.4,119.4,152.4,118.7,153.2
						L118.7,153.2z M119.1,153.8l-0.5-0.5c-0.8,0.7-1.8,1.2-2.9,1.2c-1.1,0-2.1-0.4-2.9-1.2l-0.5,0.5c0.9,0.9,2.1,1.4,3.4,1.4
						C117,155.2,118.2,154.7,119.1,153.8L119.1,153.8z M112.6,147.4l-0.5-0.5c-0.9,0.9-1.4,2.1-1.4,3.4c0,1.3,0.5,2.5,1.4,3.4
						l0.5-0.5c-0.7-0.8-1.2-1.8-1.2-2.9C111.5,149.2,111.9,148.1,112.6,147.4z"/>
					<path id="XMLID_49_" class="st13" d="M101.6,149.6c0.6-0.1,1.3-0.1,1.9,0.1l0.5-1c0.5,0.2,1,0.4,1.5,0.7l-0.5,1
						c0.5,0.4,0.9,0.8,1.3,1.4l1-0.4c0.1,0.2,0.2,0.5,0.3,0.8c0.1,0.3,0.2,0.5,0.2,0.8l-1,0.4c0.1,0.6,0.1,1.3-0.1,1.9l1,0.5
						c-0.2,0.5-0.4,1-0.7,1.5l-1-0.5c-0.4,0.5-0.8,0.9-1.4,1.3l0.4,1c-0.2,0.1-0.5,0.2-0.8,0.3c-0.3,0.1-0.5,0.2-0.8,0.2l-0.4-1
						c-0.6,0.1-1.3,0.1-1.9-0.1l-0.5,1c-0.5-0.2-1-0.4-1.5-0.7l0.5-1c-0.5-0.4-0.9-0.8-1.3-1.4l-1,0.4c-0.1-0.2-0.2-0.5-0.3-0.8
						c-0.1-0.3-0.2-0.5-0.2-0.8l1-0.4c-0.1-0.6-0.1-1.3,0.1-1.9l-1-0.5c0.2-0.5,0.4-1,0.7-1.5l1,0.5c0.4-0.5,0.8-0.9,1.4-1.3l-0.4-1
						c0.2-0.1,0.5-0.2,0.8-0.3c0.3-0.1,0.5-0.2,0.8-0.2L101.6,149.6L101.6,149.6z M101.4,151.5c-1.5,0.5-2.2,2.1-1.7,3.6
						c0.5,1.5,2.1,2.2,3.6,1.7c1.5-0.5,2.2-2.1,1.7-3.6C104.5,151.7,102.9,150.9,101.4,151.5z"/>
					<path id="XMLID_44_" class="st13" d="M96.9,145.6c0.2,0.1,0.4,0.1,0.6,0.2l0.4-0.4c0.3,0.2,0.6,0.5,0.8,0.8l-0.4,0.4
						c0.1,0.2,0.2,0.4,0.2,0.6l0.6,0c0,0.2,0.1,0.4,0.1,0.5c0,0.2,0,0.4-0.1,0.6l-0.6,0c-0.1,0.2-0.1,0.4-0.2,0.6l0.4,0.4
						c-0.2,0.3-0.5,0.6-0.8,0.8l-0.4-0.4c-0.2,0.1-0.4,0.2-0.6,0.2v0.6c-0.2,0-0.4,0.1-0.6,0.1s-0.4,0-0.6-0.1v-0.6
						c-0.2-0.1-0.4-0.1-0.6-0.2l-0.4,0.4c-0.3-0.2-0.6-0.5-0.8-0.8l0.4-0.4c-0.1-0.2-0.2-0.4-0.2-0.6l-0.6,0c0-0.2-0.1-0.4-0.1-0.5
						c0-0.2,0-0.4,0.1-0.6l0.6,0c0.1-0.2,0.1-0.4,0.2-0.6l-0.4-0.4c0.2-0.3,0.5-0.6,0.8-0.8l0.4,0.4c0.2-0.1,0.4-0.2,0.6-0.2V145
						c0.2,0,0.4-0.1,0.6-0.1s0.4,0,0.6,0.1V145.6L96.9,145.6z M96.4,146.4c-0.8,0-1.4,0.6-1.4,1.4c0,0.8,0.6,1.4,1.4,1.4
						c0.8,0,1.4-0.6,1.4-1.4C97.8,147,97.2,146.4,96.4,146.4L96.4,146.4z M96.4,146.5c-0.7,0-1.2,0.5-1.2,1.2c0,0.7,0.5,1.2,1.2,1.2
						s1.2-0.5,1.2-1.2C97.6,147.1,97.1,146.5,96.4,146.5L96.4,146.5z M96.4,146.3c-0.8,0-1.5,0.7-1.5,1.5c0,0.8,0.7,1.5,1.5,1.5
						c0.8,0,1.5-0.7,1.5-1.5C97.9,146.9,97.2,146.3,96.4,146.3z"/>
				</g>
				<path id="XMLID_32_" class="st13" d="M96.6,160.2v0.5c0,0.6-0.5,1.1-1.1,1.1c-0.6,0-1.1-0.5-1.1-1.1v-0.5
					c-0.9,0.2-1.7,0.5-2.4,1l0.4,0.4c0.4,0.4,0.4,1.1,0,1.6c-0.4,0.4-1.1,0.4-1.6,0l-0.4-0.4c-0.5,0.7-0.8,1.6-1,2.4h0.5
					c0.6,0,1.1,0.5,1.1,1.1c0,0.6-0.5,1.1-1.1,1.1h-0.5c0.2,0.9,0.5,1.7,1,2.4l0.4-0.4c0.4-0.4,1.1-0.4,1.6,0c0.4,0.4,0.4,1.1,0,1.6
					l-0.4,0.4c0.7,0.5,1.6,0.8,2.4,1v-0.5c0-0.6,0.5-1.1,1.1-1.1c0.6,0,1.1,0.5,1.1,1.1v0.5c0.9-0.2,1.7-0.5,2.4-1l-0.4-0.4
					c-0.4-0.4-0.4-1.1,0-1.6c0.4-0.4,1.1-0.4,1.6,0l0.4,0.4c0.5-0.7,0.8-1.6,1-2.4h-0.5c-0.6,0-1.1-0.5-1.1-1.1
					c0-0.6,0.5-1.1,1.1-1.1h0.5c-0.2-0.9-0.5-1.7-1-2.4l-0.4,0.4c-0.4,0.4-1.1,0.4-1.6,0c-0.4-0.4-0.4-1.1,0-1.6l0.4-0.4
					C98.3,160.7,97.5,160.4,96.6,160.2L96.6,160.2z M95.5,162.9c1.9,0,3.4,1.5,3.4,3.4c0,1.9-1.5,3.4-3.4,3.4
					c-1.9,0-3.4-1.5-3.4-3.4C92.2,164.4,93.7,162.9,95.5,162.9L95.5,162.9z M100.1,168.2c-0.1,0.3-0.5,0.5-0.8,0.3
					c-0.3-0.1-0.5-0.5-0.3-0.8c0.1-0.3,0.5-0.5,0.8-0.3C100.1,167.5,100.2,167.9,100.1,168.2L100.1,168.2z M92.1,164.9
					c-0.1,0.3-0.5,0.5-0.8,0.3c-0.3-0.1-0.5-0.5-0.3-0.8c0.1-0.3,0.5-0.5,0.8-0.3C92.1,164.2,92.3,164.6,92.1,164.9L92.1,164.9z
					 M100.1,164.4c0.1,0.3,0,0.7-0.3,0.8c-0.3,0.1-0.7,0-0.8-0.3c-0.1-0.3,0-0.7,0.3-0.8C99.6,163.9,100,164.1,100.1,164.4
					L100.1,164.4z M92.1,167.7c0.1,0.3,0,0.7-0.3,0.8c-0.3,0.1-0.7,0-0.8-0.3s0-0.7,0.3-0.8C91.6,167.2,92,167.4,92.1,167.7
					L92.1,167.7z M97.4,161.7c0.3,0.1,0.5,0.5,0.3,0.8c-0.1,0.3-0.5,0.5-0.8,0.3c-0.3-0.1-0.5-0.5-0.3-0.8
					C96.7,161.8,97.1,161.6,97.4,161.7L97.4,161.7z M94.1,169.7c0.3,0.1,0.5,0.5,0.3,0.8c-0.1,0.3-0.5,0.5-0.8,0.3
					c-0.3-0.1-0.5-0.5-0.3-0.8C93.4,169.7,93.8,169.6,94.1,169.7L94.1,169.7z M93.6,161.7c0.3-0.1,0.7,0,0.8,0.3
					c0.1,0.3,0,0.7-0.3,0.8c-0.3,0.1-0.7,0-0.8-0.3C93.2,162.2,93.3,161.9,93.6,161.7L93.6,161.7z M96.9,169.7
					c0.3-0.1,0.7,0,0.8,0.3c0.1,0.3,0,0.7-0.3,0.8c-0.3,0.1-0.7,0-0.8-0.3S96.6,169.8,96.9,169.7z"/>
				<path id="XMLID_17_" class="st13" d="M128.9,145l0,0.7c-0.1,0-0.2,0-0.4,0l-0.1-0.7l-0.2,0l0.1,0.7c-0.1,0-0.2,0-0.3,0.1
					l-0.2-0.7l-0.2,0.1l0.1,0.7c-0.1,0-0.2,0.1-0.3,0.1l-0.3-0.6l-0.2,0.1l0.2,0.7c-0.1,0-0.2,0.1-0.3,0.1l-0.4-0.6l-0.2,0.1
					l0.3,0.6c-0.1,0.1-0.2,0.1-0.3,0.2l-0.5-0.5l-0.2,0.1l0.4,0.6c-0.1,0.1-0.2,0.1-0.2,0.2l-0.5-0.5l-0.2,0.2l0.5,0.5
					c-0.1,0.1-0.2,0.2-0.2,0.3l-0.6-0.4l-0.1,0.2l0.5,0.5c-0.1,0.1-0.1,0.2-0.2,0.2l-0.6-0.3l-0.1,0.2l0.6,0.4
					c-0.1,0.1-0.1,0.2-0.2,0.3l-0.7-0.2l-0.1,0.2l0.6,0.3c0,0.1-0.1,0.2-0.1,0.3l-0.7-0.1l-0.1,0.2l0.7,0.2c0,0.1-0.1,0.2-0.1,0.4
					l-0.7,0l0,0.2l0.7,0.1c0,0.1,0,0.2,0,0.3l-0.7,0v0.2l0.7,0c0,0.1,0,0.2,0,0.4l-0.7,0.1l0,0.2l0.7-0.1c0,0.1,0,0.2,0.1,0.3
					l-0.7,0.2l0.1,0.2l0.7-0.1c0,0.1,0.1,0.2,0.1,0.3l-0.6,0.3l0.1,0.2l0.7-0.2c0,0.1,0.1,0.2,0.1,0.3l-0.6,0.4l0.1,0.2l0.6-0.3
					c0.1,0.1,0.1,0.2,0.2,0.3l-0.5,0.5l0.1,0.2l0.6-0.4c0.1,0.1,0.1,0.1,0.2,0.2l-0.5,0.5l0.2,0.2l0.5-0.5c0.1,0.1,0.2,0.2,0.3,0.2
					l-0.4,0.6l0.2,0.1l0.5-0.5c0.1,0.1,0.2,0.1,0.2,0.2l-0.3,0.6l0.2,0.1l0.4-0.6c0.1,0.1,0.2,0.1,0.3,0.2l-0.2,0.7l0.2,0.1l0.3-0.6
					c0.1,0,0.2,0.1,0.3,0.1l-0.1,0.7l0.2,0.1l0.2-0.7c0.1,0,0.2,0,0.4,0.1l0,0.7l0.2,0l0.1-0.7c0.1,0,0.2,0,0.3,0l0,0.7h0.2l0-0.7
					c0.1,0,0.2,0,0.4,0l0.1,0.7l0.2,0l-0.1-0.7c0.1,0,0.2,0,0.3-0.1l0.2,0.7l0.2-0.1l-0.1-0.7c0.1,0,0.2-0.1,0.3-0.1l0.3,0.6
					l0.2-0.1l-0.2-0.7c0.1,0,0.2-0.1,0.3-0.1l0.4,0.6l0.2-0.1l-0.3-0.6c0.1-0.1,0.2-0.1,0.3-0.2l0.5,0.5l0.2-0.1l-0.4-0.6
					c0.1-0.1,0.1-0.1,0.2-0.2l0.5,0.5l0.2-0.2l-0.5-0.5c0.1-0.1,0.2-0.2,0.2-0.3l0.6,0.4l0.1-0.2l-0.5-0.5c0.1-0.1,0.1-0.2,0.2-0.2
					l0.6,0.3l0.1-0.2l-0.6-0.4c0.1-0.1,0.1-0.2,0.2-0.3l0.7,0.2l0.1-0.2l-0.6-0.3c0-0.1,0.1-0.2,0.1-0.3l0.7,0.1l0.1-0.2l-0.7-0.2
					c0-0.1,0-0.2,0.1-0.4l0.7,0l0-0.2l-0.7-0.1c0-0.1,0-0.2,0-0.3l0.7,0v-0.2l-0.7,0c0-0.1,0-0.2,0-0.4l0.7-0.1l0-0.2l-0.7,0.1
					c0-0.1,0-0.2-0.1-0.3l0.7-0.2l-0.1-0.2l-0.7,0.1c0-0.1-0.1-0.2-0.1-0.3l0.6-0.3l-0.1-0.2l-0.7,0.2c0-0.1-0.1-0.2-0.1-0.3
					l0.6-0.4l-0.1-0.2l-0.6,0.3c-0.1-0.1-0.1-0.2-0.2-0.3l0.5-0.5l-0.1-0.2l-0.6,0.4c-0.1-0.1-0.1-0.1-0.2-0.2l0.5-0.5l-0.2-0.2
					l-0.5,0.5c-0.1-0.1-0.2-0.2-0.3-0.2l0.4-0.6l-0.2-0.1l-0.5,0.5c-0.1-0.1-0.2-0.1-0.2-0.2l0.3-0.6l-0.2-0.1l-0.4,0.6
					c-0.1-0.1-0.2-0.1-0.3-0.2l0.2-0.7l-0.2-0.1l-0.3,0.6c-0.1,0-0.2-0.1-0.3-0.1l0.1-0.7l-0.2-0.1l-0.2,0.7c-0.1,0-0.2,0-0.4-0.1
					l0-0.7l-0.2,0l-0.1,0.7c-0.1,0-0.2,0-0.3,0l0-0.7H128.9L128.9,145z M129,147.6c0.2,0,0.4,0.2,0.4,0.4c0,0.2-0.2,0.4-0.4,0.4
					c-0.2,0-0.4-0.2-0.4-0.4C128.6,147.8,128.8,147.6,129,147.6L129,147.6z M131.7,150.3c0.2,0,0.4,0.2,0.4,0.4
					c0,0.2-0.2,0.4-0.4,0.4c-0.2,0-0.4-0.2-0.4-0.4C131.3,150.4,131.5,150.3,131.7,150.3L131.7,150.3z M126.4,150.3
					c0.2,0,0.4,0.2,0.4,0.4c0,0.2-0.2,0.4-0.4,0.4c-0.2,0-0.4-0.2-0.4-0.4C126,150.4,126.1,150.3,126.4,150.3L126.4,150.3z
					 M129,152.9c0.2,0,0.4,0.2,0.4,0.4c0,0.2-0.2,0.4-0.4,0.4c-0.2,0-0.4-0.2-0.4-0.4C128.6,153.1,128.8,152.9,129,152.9L129,152.9z
					 M129,147.1c-0.4,0-0.8,0.3-0.9,0.7c-0.3,0.1-0.6,0.3-0.9,0.5l-0.5-0.5c0.6-0.5,1.4-0.8,2.3-0.8c0.8,0,1.6,0.3,2.3,0.8l-0.5,0.5
					c-0.3-0.2-0.6-0.4-0.9-0.5C129.8,147.4,129.4,147.1,129,147.1L129,147.1z M129.9,148.2c0.2,0.1,0.4,0.2,0.6,0.3l-0.7,0.7
					c-0.2-0.1-0.5-0.2-0.8-0.2c-0.3,0-0.6,0.1-0.8,0.2l-0.7-0.7c0.2-0.1,0.4-0.2,0.6-0.3c0.1,0.4,0.5,0.6,0.9,0.6
					C129.4,148.9,129.8,148.6,129.9,148.2L129.9,148.2z M131.9,149.8c-0.1-0.3-0.3-0.6-0.5-0.9l0.5-0.5c0.5,0.6,0.8,1.4,0.8,2.3
					c0,0.8-0.3,1.6-0.8,2.3l-0.5-0.5c0.2-0.3,0.4-0.6,0.5-0.9c0.4-0.1,0.7-0.4,0.7-0.9C132.6,150.2,132.3,149.9,131.9,149.8
					L131.9,149.8z M131.4,151.5c-0.1,0.2-0.2,0.4-0.3,0.6l-0.7-0.7c0.1-0.2,0.2-0.5,0.2-0.8c0-0.3-0.1-0.6-0.2-0.8l0.7-0.7
					c0.1,0.2,0.2,0.4,0.3,0.6c-0.4,0.1-0.6,0.5-0.6,0.9C130.8,151,131.1,151.4,131.4,151.5L131.4,151.5z M126.6,149.8
					c0.1-0.2,0.2-0.4,0.3-0.6l0.7,0.7c-0.1,0.2-0.2,0.5-0.2,0.8c0,0.3,0.1,0.6,0.2,0.8l-0.7,0.7c-0.1-0.2-0.2-0.4-0.3-0.6
					c0.4-0.1,0.6-0.5,0.6-0.9C127.2,150.2,127,149.9,126.6,149.8L126.6,149.8z M126.1,151.5c0.1,0.3,0.3,0.7,0.5,0.9l-0.5,0.5
					c-0.5-0.6-0.8-1.4-0.8-2.3c0-0.8,0.3-1.6,0.8-2.3l0.5,0.5c-0.2,0.3-0.4,0.6-0.5,0.9c-0.4,0.1-0.7,0.4-0.7,0.9
					C125.5,151.1,125.7,151.4,126.1,151.5L126.1,151.5z M129,152.4c-0.4,0-0.7,0.3-0.9,0.6c-0.2-0.1-0.4-0.2-0.6-0.3l0.7-0.7
					c0.2,0.1,0.5,0.2,0.8,0.2c0.3,0,0.6-0.1,0.8-0.2l0.7,0.7c-0.2,0.1-0.4,0.2-0.6,0.3C129.8,152.7,129.4,152.4,129,152.4L129,152.4
					z M129.9,153.6c0.3-0.1,0.7-0.3,0.9-0.5l0.5,0.5c-0.6,0.5-1.4,0.8-2.3,0.8c-0.8,0-1.6-0.3-2.3-0.8l0.5-0.5
					c0.3,0.2,0.6,0.4,0.9,0.5c0.1,0.4,0.4,0.7,0.9,0.7C129.4,154.2,129.8,153.9,129.9,153.6L129.9,153.6z M129,150
					c0.4,0,0.6,0.3,0.6,0.6c0,0.4-0.3,0.6-0.6,0.6c-0.4,0-0.6-0.3-0.6-0.6C128.4,150.3,128.7,150,129,150z"/>
				<path id="XMLID_7_" class="st13" d="M87.3,147c0.6,0.2,1.2,0.4,1.7,0.7l1.3-1.3c0.9,0.6,1.7,1.4,2.3,2.4l-1.3,1.3
					c0.3,0.5,0.5,1.1,0.7,1.7l1.8,0c0.1,0.5,0.2,1.1,0.2,1.6c0,0.6-0.1,1.1-0.2,1.7l-1.8,0c-0.2,0.6-0.4,1.2-0.7,1.7l1.3,1.3
					c-0.6,0.9-1.4,1.7-2.4,2.3l-1.3-1.3c-0.5,0.3-1.1,0.5-1.7,0.7v1.8c-0.5,0.1-1.1,0.2-1.7,0.2c-0.6,0-1.1-0.1-1.7-0.2v-1.8
					c-0.6-0.2-1.2-0.4-1.7-0.7l-1.3,1.3c-0.9-0.6-1.7-1.4-2.3-2.4l1.3-1.3c-0.3-0.5-0.5-1.1-0.7-1.7l-1.8,0
					c-0.1-0.5-0.2-1.1-0.2-1.6c0-0.6,0.1-1.1,0.2-1.7l1.8,0c0.2-0.6,0.4-1.2,0.7-1.7l-1.3-1.3c0.6-0.9,1.4-1.7,2.4-2.3l1.3,1.3
					c0.5-0.3,1.1-0.5,1.7-0.7v-1.8c0.5-0.1,1.1-0.2,1.7-0.2c0.6,0,1.1,0.1,1.7,0.2V147L87.3,147z M88.1,151.6l-1,1
					c0.1,0.2,0.2,0.5,0.2,0.8c0,0.3-0.1,0.5-0.2,0.8l1,1c0.4-0.5,0.6-1.1,0.6-1.8C88.7,152.7,88.5,152.1,88.1,151.6L88.1,151.6z
					 M84.9,154.8l-1,1c0.5,0.4,1.1,0.6,1.8,0.6c0.7,0,1.3-0.2,1.8-0.6l-1-1c-0.2,0.1-0.5,0.2-0.8,0.2
					C85.4,155,85.1,154.9,84.9,154.8L84.9,154.8z M83.3,155.2l1-1c-0.1-0.2-0.2-0.5-0.2-0.8c0-0.3,0.1-0.5,0.2-0.8l-1-1
					c-0.4,0.5-0.6,1.1-0.6,1.8C82.7,154.1,82.9,154.7,83.3,155.2L83.3,155.2z M86.5,152l1-1c-0.5-0.4-1.1-0.6-1.8-0.6
					c-0.7,0-1.3,0.2-1.8,0.6l1,1c0.2-0.1,0.5-0.2,0.8-0.2C86,151.8,86.2,151.9,86.5,152L86.5,152z M85.7,147.7c-1.6,0-3,0.6-4,1.7
					c-1,1-1.7,2.4-1.7,4c0,1.6,0.6,3,1.7,4c1,1,2.4,1.7,4,1.7c1.6,0,3-0.6,4-1.7c1-1,1.7-2.4,1.7-4c0-1.6-0.6-3-1.7-4
					C88.7,148.4,87.3,147.7,85.7,147.7L85.7,147.7z M89.2,149.9c-0.9-0.9-2.2-1.5-3.5-1.5c-1.4,0-2.6,0.6-3.5,1.5
					c-0.9,0.9-1.5,2.2-1.5,3.5c0,1.4,0.6,2.6,1.5,3.5c0.9,0.9,2.2,1.5,3.5,1.5c1.4,0,2.6-0.6,3.5-1.5c0.9-0.9,1.5-2.2,1.5-3.5
					C90.7,152,90.1,150.8,89.2,149.9L89.2,149.9z M85.7,149.3c-2.3,0-4.1,1.8-4.1,4.1c0,2.3,1.8,4.1,4.1,4.1c2.3,0,4.1-1.8,4.1-4.1
					C89.8,151.1,88,149.3,85.7,149.3L85.7,149.3z M85.7,149c-2.4,0-4.4,2-4.4,4.4s2,4.4,4.4,4.4c2.4,0,4.4-2,4.4-4.4
					S88.1,149,85.7,149z"/>
			</g>
		</g>
	</g>
</g>
</svg>
