<?xml version="1.0" encoding="utf-8"?>
<!-- Generator: Adobe Illustrator 19.0.0, SVG Export Plug-In . SVG Version: 6.00 Build 0)  -->
<svg version="1.1" id="Layer_1" xmlns="http://www.w3.org/2000/svg" xmlns:xlink="http://www.w3.org/1999/xlink" x="0px" y="0px"
	 viewBox="-655 157 300 340" style="enable-background:new -655 157 300 340;" xml:space="preserve">
<style type="text/css">
	.st0{fill:#5E994B;}
	.st1{fill:#7FAF69;}
	.st2{fill:#91C67B;}
	.st3{fill:#FFCA27;}
	.st4{fill:#FFDE59;}
	.st5{fill:#CCCCCC;}
	.st6{fill:#BFBFBF;}
	.st7{fill:#F15B40;}
	.st8{fill:#E6E6E6;}
	.st9{opacity:0.4;fill:#CCCCCC;enable-background:new    ;}
	.st10{fill:#666666;}
	.st11{fill:#FFFFFF;}
	.st12{fill:#EDEDEE;}
	.st13{clip-path:url(#SVGID_2_);fill:#E6E6E6;}
	.st14{opacity:0.4;clip-path:url(#SVGID_4_);fill:#CCCCCC;enable-background:new    ;}
	.st15{fill:#78A560;}
	.st16{fill:#426B32;}
	.st17{fill:#C2DBB4;}
	.st18{fill:#D0DFE6;}
	.st19{fill:#A4C0CD;}
	.st20{fill:#007FC8;}
	.st21{fill:#BCBDBD;}
</style>
<image style="overflow:visible;enable-background:new    ;" width="549" height="420" xlink:href="80E9A044.jpg"  transform="matrix(1 0 0 1 -9351 -7395)">
</image>
<g>
	<g id="XMLID_707_">
		<circle id="XMLID_2_" class="st0" cx="-530.5" cy="372.9" r="124.1"/>
	</g>
	<g>
		<polygon class="st1" points="-380.4,251.9 -382.7,233.8 -413,265.2 -413,247.8 -460.1,301.1 -458,288.6 -502.7,331.9 
			-501.6,323.1 -528,348.7 -506.1,420.3 -496.2,424.4 -497.3,418.8 -467.6,429.9 -475,417.9 -424.2,430.5 -428.5,420.6 
			-387.4,431.1 -390,422.9 -355.4,428.9 -355.4,233.7 -356,233.7 		"/>
		<g id="XMLID_7_">
			<polyline id="XMLID_1_" class="st2" points="-518.7,330.2 -492.8,299.3 -493.4,308.4 -468.7,284.9 -497.6,317.4 -498.2,311 			
				"/>
			<polyline id="XMLID_13_" class="st2" points="-488.6,426.5 -454.2,445.8 -454.8,433.7 -421.7,436.7 -462.1,426.5 -460.9,436.1 
							"/>
		</g>
		<path id="XMLID_920_" class="st3" d="M-584.8,431.9c0,0,1.4,2.8-2.9,4.4c-4.3,1.6-4.3,1.6-4.3,1.6s-5,0-5.4-4.3
			c-10.2,4.2-18.2,0.3-22-10.3c-3.8-10.6,4.4-16.8,7.8-18.7c-0.8-4.8-0.5-7.4,5.9-10.2C-597.7,395.2-584.8,431.9-584.8,431.9z"/>
		<path id="XMLID_919_" class="st4" d="M-606.4,404.8c-2-2.9-2.4-7.2,0.6-10.3c0,0,0.1,0,0.1-0.1c1.7,0.2,3.6,2,5.6,4.8l15.4,34.5
			c-0.2,0.8-0.8,1.7-2.4,2.4c-2-0.1-4.3-1.3-6-4c-8.2-2.9-11.5-7.5-13.4-12.7C-608.4,414.1-607.8,407.4-606.4,404.8z"/>
		<g>
			<path id="XMLID_913_" class="st5" d="M-579.6,416.5c0.7,1.1,26.2,34.6,26.2,34.6s-7.5,8.7-13.6,6.7s-30.3-36.5-30.3-36.5
				L-579.6,416.5z"/>
			<path id="XMLID_912_" class="st6" d="M-560,452.6c0,0-23.6-31-26-34.3l6.5-1.8c0.7,1.1,26.2,34.6,26.2,34.6s-7.1,8.2-13.1,6.9
				C-562.8,455.9-560,452.6-560,452.6z"/>
		</g>
		<path id="XMLID_911_" class="st7" d="M-587.9,435.1l25-7.9c0,0,3.2-0.7,2.6-6.5c-0.6-5.8-11.5-38.1-19-36.9
			c-7.6,1.2-26.8,12.2-26.8,12.2s-1.8,4.6,0.8,8.3c-4.3,11.6,2.1,23.8,13.2,27.2C-590.8,434.4-587.9,435.1-587.9,435.1z"/>
		<path id="XMLID_899_" class="st8" d="M-565.6,422.1c0,0,23.8-7.1,44.7-2.2c-11.8-13-26.6-45.3-20.7-65.4
			c-8.3,17.1-31.8,34.6-37.8,35.6C-582.7,399-574.4,421.5-565.6,422.1z"/>
		<path id="XMLID_898_" class="st9" d="M-532,403.2c3.5,6.8,7.5,12.6,11.1,16.7c-21-4.9-44.7,2.2-44.7,2.2c-4-0.3-7.9-5.1-10.6-11.1
			C-561.8,407.3-547.1,404.4-532,403.2z"/>
		
			<ellipse id="XMLID_897_" transform="matrix(0.3708 0.9287 -0.9287 0.3708 30.0312 728.3134)" class="st10" cx="-522.5" cy="386.3" rx="41.5" ry="19.5"/>
		
			<ellipse id="XMLID_896_" transform="matrix(0.3708 0.9287 -0.9287 0.3708 30.3639 726.8676)" class="st11" cx="-521.3" cy="385.8" rx="35.2" ry="15.3"/>
		
			<ellipse id="XMLID_885_" transform="matrix(0.3708 0.9287 -0.9287 0.3708 30.3639 726.8676)" class="st12" cx="-521.3" cy="385.8" rx="35.2" ry="15.3"/>
		<path id="XMLID_884_" class="st11" d="M-521.9,391c-4.9-12.2-12-21.7-18.6-25.6c0.4-6.3,2.5-10.8,6.1-12.3c7.8-3.1,20,9,27.2,27.1
			s6.7,35.3-1.1,38.4c-2.5,1-5.5,0.4-8.6-1.4C-516.4,410-518.1,400.6-521.9,391z"/>
		<g id="XMLID_16_">
			<g>
				<defs>
					
						<ellipse id="SVGID_1_" transform="matrix(0.3708 0.9287 -0.9287 0.3708 30.3639 726.8676)" cx="-521.3" cy="385.8" rx="35.2" ry="15.3"/>
				</defs>
				<clipPath id="SVGID_2_">
					<use xlink:href="#SVGID_1_"  style="overflow:visible;"/>
				</clipPath>
				<path id="XMLID_875_" class="st13" d="M-516.8,394.8l-14,8.5c0,0-8.6-13.3-9.8-23.1c9.3-2.1,15.6-4,15.6-4
					S-516.8,387-516.8,394.8z"/>
			</g>
			<g>
				<defs>
					
						<ellipse id="SVGID_3_" transform="matrix(0.3708 0.9287 -0.9287 0.3708 30.3639 726.8676)" cx="-521.3" cy="385.8" rx="35.2" ry="15.3"/>
				</defs>
				<clipPath id="SVGID_4_">
					<use xlink:href="#SVGID_3_"  style="overflow:visible;"/>
				</clipPath>
				<path id="XMLID_874_" class="st14" d="M-517.3,391c0.3,1.3,0.5,2.6,0.5,3.8l-14,8.5c0,0-2.8-4.4-5.5-9.9
					C-529.9,393.2-523.6,392.5-517.3,391z"/>
			</g>
		</g>
		
			<ellipse id="XMLID_358_" transform="matrix(0.3708 0.9287 -0.9287 0.3708 30.3625 726.8681)" class="st5" cx="-521.3" cy="385.8" rx="10.2" ry="4.4"/>
	</g>
	<g>
		<circle class="st11" cx="-592.3" cy="240.4" r="5"/>
		<circle class="st11" cx="-585.7" cy="232" r="1.9"/>
		<circle class="st11" cx="-583.1" cy="243.7" r="2.3"/>
		
			<rect x="-588.6" y="232.7" transform="matrix(-0.7542 -0.6566 0.6566 -0.7542 -1186.1216 25.9302)" class="st11" width="0.8" height="4.6"/>
		
			<rect x="-588.2" y="242.2" transform="matrix(-0.953 -0.3029 0.3029 -0.953 -1218.7996 296.1667)" class="st11" width="3.5" height="0.8"/>
	</g>
	<g>
		<g>
			<path class="st11" d="M-403.5,208.5l-2.4,1.4v-1.2l0.8-0.5l-0.8-0.5v-1.1l2.4,1.4V208.5z"/>
		</g>
		<g>
			<path class="st11" d="M-411.3,208l2.4-1.4v1.1l-0.8,0.5l0.8,0.5v1.2l-2.4-1.4V208z"/>
		</g>
		<path class="st11" d="M-401.5,212.6h-11.9v-8.4h11.9V212.6z M-413,212.2h11.1v-7.6H-413V212.2z"/>
		<rect x="-413.4" y="202.3" class="st11" width="11.9" height="1.6"/>
	</g>
	<ellipse class="st15" cx="-479.5" cy="335.6" rx="72.9" ry="3.8"/>
	<g>
		<path class="st1" d="M-557.7,230.9h-20.1c-0.4,0-0.8-0.4-0.8-0.8V210c0-0.4,0.4-0.8,0.8-0.8h20.1c0.4,0,0.8,0.4,0.8,0.8v20.1
			C-557,230.5-557.3,230.9-557.7,230.9z"/>
		<g>
			<circle class="st16" cx="-571.8" cy="216.6" r="2.1"/>
			<polygon class="st16" points="-571,221.5 -574.9,226.7 -567.3,226.7 			"/>
			<polygon class="st16" points="-565.6,219.4 -571.1,226.7 -560.2,226.7 			"/>
		</g>
	</g>
	<g>
		<path class="st17" d="M-400.2,295.2h-11.2c-0.4,0-0.8-0.4-0.8-0.8v-11.2c0-0.4,0.4-0.8,0.8-0.8h11.2c0.4,0,0.8,0.4,0.8,0.8v11.2
			C-399.4,294.9-399.8,295.2-400.2,295.2z"/>
		<g>
			<circle class="st16" cx="-408.2" cy="286.8" r="1.2"/>
			<polygon class="st16" points="-407.7,289.7 -410,292.7 -405.5,292.7 			"/>
			<polygon class="st16" points="-404.5,288.4 -407.8,292.7 -401.4,292.7 			"/>
		</g>
	</g>
	<g>
		<g>
			<rect x="-542.6" y="211" class="st11" width="118.1" height="123.7"/>
			<rect x="-542.6" y="211" class="st17" width="118.1" height="10.6"/>
			<circle class="st11" cx="-537.1" cy="216.5" r="1.6"/>
			<circle class="st11" cx="-530.9" cy="216.5" r="1.6"/>
			<circle class="st11" cx="-524.8" cy="216.5" r="1.6"/>
			<rect x="-535.2" y="228.1" class="st0" width="13.9" height="13.9"/>
			<rect x="-535.2" y="243.6" class="st18" width="104.1" height="42"/>
			<rect x="-535.2" y="288.8" class="st18" width="20.1" height="2.8"/>
			<rect x="-535.2" y="301" class="st18" width="63.4" height="2.8"/>
			<rect x="-535.2" y="312.6" class="st18" width="104.1" height="2.8"/>
			<rect x="-535.2" y="317.1" class="st18" width="104.1" height="2.8"/>
			<rect x="-535.2" y="321.6" class="st18" width="104.1" height="2.8"/>
			<rect x="-535.2" y="305.9" class="st18" width="50.6" height="2.8"/>
			<rect x="-513.8" y="288.8" class="st18" width="2.3" height="2.8"/>
			<rect x="-509.8" y="288.8" class="st18" width="12.2" height="2.8"/>
			<rect x="-490.4" y="288.8" class="st18" width="12.2" height="2.8"/>
			<rect x="-494.5" y="288.8" class="st18" width="2.3" height="2.8"/>
			<rect x="-517.4" y="231.3" class="st1" width="44.8" height="2"/>
			<rect x="-517.4" y="235.7" class="st1" width="32.3" height="2"/>
		</g>
		<polygon class="st19" points="-478.4,264.6 -487.9,259 -487.9,270.1 		"/>
	</g>
	<g>
		<rect x="-569.3" y="245.2" class="st1" width="18.2" height="11.6"/>
		<polygon class="st11" points="-557.9,251 -562,248.7 -562,253.3 		"/>
	</g>
	<g>
		<path class="st20" d="M-435.6,181.4h-39c-0.9,0-1.6-0.7-1.6-1.6v-10.3c0-0.9,0.7-1.6,1.6-1.6h39c0.9,0,1.6,0.7,1.6,1.6v10.3
			C-434,180.7-434.7,181.4-435.6,181.4z"/>
		<g>
			<circle class="st11" cx="-469.2" cy="172.5" r="1.5"/>
			<path class="st11" d="M-465.8,177.9c-1.9,0-5.4,0-7.1,0c0-2,1.6-3.6,3.6-3.6C-467.4,174.4-465.8,176-465.8,177.9z"/>
		</g>
		<g>
			<path class="st11" d="M-458.9,177.4h6.2c0.7,0,1.2-0.5,1.2-1.2v-4.5c0-0.7-0.5-1.2-1.2-1.2h-6.2c-0.7,0-1.2,0.5-1.2,1.2v4.5
				C-460.1,176.9-459.6,177.4-458.9,177.4z"/>
			<polygon class="st11" points="-458.5,177.2 -459.2,179.1 -456.9,177.2 			"/>
		</g>
		<g>
			<rect x="-458.7" y="172.7" class="st21" width="5.6" height="0.5"/>
			<rect x="-458.7" y="173.8" class="st21" width="5.6" height="0.5"/>
			<rect x="-458.7" y="174.9" class="st21" width="5.6" height="0.5"/>
		</g>
		<g>
			<path class="st11" d="M-446,177.3h0.4c0.4,0,0.7-0.3,0.7-0.7v-3.1c0-0.4-0.3-0.7-0.7-0.7h-0.4c-0.4,0-0.7,0.3-0.7,0.7v3.1
				C-446.7,177-446.4,177.3-446,177.3z"/>
			<path class="st11" d="M-444.2,176.5c0-0.7,0-2.6,0-3.1s0.7-1,1.2-1.5s0.5-1.1,0.5-1.5c0-0.3,0.4-0.4,0.8-0.1s0.5,1.7,0.1,2.3
				c1.3,0,2.4,0,2.7,0c0.5,0,0.9,1,0,1.3c0.4,0.2,0.2,1.1-0.5,1.2c0.7,0.1,0.7,1.1-0.3,1.2c0.5,0.1,0.5,0.9-0.5,0.9s-3.1,0-3.4,0
				C-443.9,177.2-444.2,176.8-444.2,176.5z"/>
		</g>
		<path class="st20" d="M-452.5,181.2l2.9,3c0.2,0.2,0.6,0.2,0.8,0l3.1-3.2L-452.5,181.2z"/>
	</g>
	<g>
		<path class="st7" d="M-534.9,178.5h-15.5c-1.3,0-2.3-1.1-2.3-2.3v-15.5c0-1.3,1.1-2.3,2.3-2.3h15.5c1.3,0,2.3,1.1,2.3,2.3v15.5
			C-532.5,177.4-533.6,178.5-534.9,178.5z"/>
		<path class="st11" d="M-540.8,165.1c-0.8,0-1.4,0.4-1.8,1c-0.4-0.6-1.1-1-1.8-1c-1.3,0-2.3,1-2.3,2.3c0,2.5,4.1,4.5,4.1,4.5
			s4.1-2,4.1-4.5C-538.5,166.1-539.5,165.1-540.8,165.1z"/>
	</g>
	<path class="st0" d="M-572.8,178.4c-5.9,0-10.7,4.8-10.7,10.7s4.8,10.7,10.7,10.7s10.7-4.8,10.7-10.7
		C-562.1,183.1-566.9,178.4-572.8,178.4z M-581.5,186.1c0.3,0,0.7-0.1,1.2-0.2c-0.1,0.8-0.1,1.7-0.1,2.7h-1.6
		C-582,187.8-581.8,186.9-581.5,186.1z M-579,182.2c0.8-0.7,1.7-1.3,2.6-1.7c-0.1,1-0.3,2.6-0.4,4.5c-1,0.1-1.9,0.2-2.7,0.2
		C-579.4,183.9-579.2,182.9-579,182.2z M-566,185.2c-0.8-0.1-1.7-0.2-2.7-0.2c-0.1-1.9-0.3-3.4-0.4-4.4c1,0.4,1.9,1,2.6,1.7
		C-566.3,183-566.1,184-566,185.2z M-576.9,189.3c0,1.1,0,2.1,0.1,3.1c-1-0.1-2-0.2-2.8-0.2c-0.1-0.9-0.2-1.8-0.2-2.9L-576.9,189.3
		L-576.9,189.3z M-572.5,189.3h3.2c0,1.1,0,2.1-0.1,3.1c-1,0.1-2.1,0.1-3.1,0.1L-572.5,189.3L-572.5,189.3z M-572.5,188.7v-3.2
		c1.1,0,2.1,0,3.1,0.1c0.1,1,0.1,2,0.1,3.1L-572.5,188.7L-572.5,188.7z M-573.1,188.7h-3.2c0-1.1,0-2.1,0.1-3.1c1-0.1,2-0.1,3.1-0.1
		L-573.1,188.7L-573.1,188.7z M-573.1,189.3v3.2c-1.1,0-2.1,0-3.1-0.1c-0.1-1-0.1-2.1-0.1-3.1L-573.1,189.3L-573.1,189.3z
		 M-576.8,193.1c0.1,1,0.2,1.9,0.2,2.7c-1-0.1-1.9-0.3-2.5-0.4c-0.1-0.6-0.3-1.5-0.4-2.5C-578.7,192.9-577.8,193-576.8,193.1z
		 M-576.2,193.1c1,0.1,2,0.1,3,0.1v2.8c-1,0-1.9-0.1-2.8-0.2C-576,195.1-576.1,194.1-576.2,193.1z M-572.5,193.2
		c1.1,0,2.1,0,3.1-0.1c-0.1,1-0.2,2-0.2,2.8c-0.9,0.1-1.8,0.2-2.9,0.2L-572.5,193.2L-572.5,193.2z M-568.7,193.1
		c1-0.1,1.9-0.2,2.7-0.2c-0.1,1-0.3,1.9-0.4,2.5c-0.6,0.1-1.5,0.3-2.5,0.4C-568.9,195-568.8,194.1-568.7,193.1z M-568.7,192.4
		c0.1-1,0.1-2,0.1-3.1h2.8c0,1-0.1,2-0.2,2.9C-566.7,192.2-567.6,192.3-568.7,192.4z M-568.6,188.7c0-1,0-2.1-0.1-3
		c1,0.1,2,0.2,2.8,0.2c0.1,0.8,0.1,1.8,0.2,2.8H-568.6z M-569.4,184.9c-1-0.1-2-0.1-3.1-0.1v-5c0.9,0,1.8,0.2,2.6,0.5
		C-569.7,181.2-569.5,182.9-569.4,184.9z M-573.1,184.8c-1,0-2.1,0-3,0.1c0.1-2.1,0.3-3.8,0.5-4.7c0.8-0.3,1.7-0.4,2.6-0.5
		L-573.1,184.8L-573.1,184.8z M-576.8,185.6c-0.1,1-0.1,2-0.1,3h-2.8c0-1,0.1-1.9,0.2-2.8C-578.8,185.8-577.9,185.7-576.8,185.6z
		 M-580.4,189.3c0,1,0.1,1.9,0.2,2.8c-0.5-0.1-0.9-0.1-1.3-0.2c-0.3-0.8-0.4-1.7-0.5-2.6H-580.4z M-580.2,192.7
		c0.1,0.8,0.2,1.6,0.3,2.2c-0.6-0.7-1.1-1.5-1.4-2.3C-581,192.7-580.6,192.7-580.2,192.7z M-576.5,196.5c0,0.4,0.1,0.8,0.1,1.1
		c-0.8-0.4-1.6-0.8-2.3-1.4C-578.1,196.2-577.3,196.4-576.5,196.5z M-575.8,196.5c0.8,0.1,1.7,0.1,2.7,0.2v1.5
		c-0.9,0-1.8-0.2-2.6-0.5C-575.7,197.4-575.8,197-575.8,196.5z M-572.5,196.7c1,0,1.9-0.1,2.8-0.1c-0.1,0.5-0.1,0.9-0.1,1.2
		c-0.8,0.3-1.7,0.4-2.6,0.5v-1.6H-572.5z M-569,196.5c0.8-0.1,1.5-0.2,2.1-0.3c-0.7,0.5-1.4,1-2.2,1.3
		C-569.1,197.2-569.1,196.8-569,196.5z M-565.6,194.8c0.1-0.6,0.2-1.3,0.3-2.1c0.4,0,0.7-0.1,1-0.1
		C-564.7,193.4-565.1,194.2-565.6,194.8z M-564.1,191.9c-0.3,0-0.7,0.1-1.2,0.1c0.1-0.8,0.1-1.8,0.2-2.8h1.5
		C-563.6,190.2-563.8,191.1-564.1,191.9z M-565.1,188.7c0-1-0.1-1.9-0.1-2.7c0.5,0.1,0.9,0.1,1.2,0.1c0.3,0.8,0.4,1.7,0.5,2.6
		L-565.1,188.7L-565.1,188.7z M-564.3,185.4c-0.3,0-0.6-0.1-1-0.1c-0.1-0.8-0.2-1.5-0.3-2.1C-565.1,183.9-564.6,184.6-564.3,185.4z
		 M-579.9,183.1c-0.1,0.6-0.2,1.3-0.3,2.2c-0.4,0-0.8,0.1-1.1,0.1C-580.9,184.6-580.4,183.8-579.9,183.1z"/>
	<path class="st11" d="M-383.1,260c-4.7,0-8.5,3.8-8.5,8.5s3.8,8.5,8.5,8.5s8.5-3.8,8.5-8.5S-378.4,260-383.1,260z M-390.1,266.2
		c0.3,0,0.6-0.1,1-0.1c-0.1,0.7-0.1,1.4-0.1,2.2h-1.2C-390.4,267.5-390.3,266.8-390.1,266.2z M-388.1,263.1c0.6-0.6,1.3-1,2.1-1.4
		c-0.1,0.8-0.2,2-0.3,3.5c-0.8,0.1-1.5,0.1-2.2,0.2C-388.4,264.4-388.2,263.6-388.1,263.1z M-377.7,265.5c-0.6-0.1-1.4-0.1-2.2-0.2
		c-0.1-1.5-0.2-2.7-0.3-3.5c0.8,0.3,1.5,0.8,2.1,1.4C-378,263.7-377.8,264.5-377.7,265.5z M-386.4,268.7c0,0.8,0,1.7,0.1,2.5
		c-0.8-0.1-1.6-0.1-2.2-0.2c-0.1-0.7-0.1-1.5-0.1-2.3H-386.4z M-382.9,268.7h2.6c0,0.9,0,1.7-0.1,2.5c-0.8,0-1.6,0.1-2.5,0.1V268.7z
		 M-382.9,268.2v-2.5c0.9,0,1.7,0,2.5,0.1c0,0.8,0.1,1.6,0.1,2.4H-382.9z M-383.4,268.2h-2.5c0-0.8,0-1.7,0.1-2.4
		c0.8,0,1.6-0.1,2.4-0.1V268.2z M-383.4,268.7v2.6c-0.8,0-1.7,0-2.4-0.1c0-0.8-0.1-1.6-0.1-2.5H-383.4z M-386.3,271.7
		c0.1,0.8,0.1,1.5,0.2,2.2c-0.8-0.1-1.5-0.2-2-0.3c-0.1-0.5-0.2-1.2-0.3-2C-387.8,271.6-387.1,271.6-386.3,271.7z M-385.8,271.7
		c0.8,0,1.6,0.1,2.4,0.1v2.3c-0.8,0-1.5-0.1-2.2-0.1C-385.7,273.3-385.7,272.5-385.8,271.7z M-382.9,271.8c0.8,0,1.7,0,2.5-0.1
		c-0.1,0.8-0.1,1.6-0.2,2.2c-0.7,0.1-1.5,0.1-2.3,0.1V271.8z M-379.9,271.7c0.8-0.1,1.5-0.1,2.2-0.2c-0.1,0.8-0.2,1.5-0.3,2
		c-0.5,0.1-1.2,0.2-2,0.3C-380,273.2-379.9,272.5-379.9,271.7z M-379.8,271.2c0-0.8,0.1-1.6,0.1-2.5h2.3c0,0.8-0.1,1.6-0.1,2.3
		C-378.3,271.1-379,271.1-379.8,271.2z M-379.8,268.2c0-0.8,0-1.6-0.1-2.4c0.8,0.1,1.6,0.1,2.2,0.2c0.1,0.7,0.1,1.4,0.1,2.2
		L-379.8,268.2L-379.8,268.2z M-380.4,265.2c-0.8,0-1.6-0.1-2.5-0.1v-4c0.7,0,1.4,0.2,2.1,0.4C-380.7,262.3-380.5,263.6-380.4,265.2
		z M-383.4,265.2c-0.8,0-1.6,0-2.4,0.1c0.1-1.6,0.3-3,0.4-3.7c0.6-0.2,1.3-0.3,2-0.4V265.2z M-386.3,265.8c0,0.8-0.1,1.6-0.1,2.4
		h-2.3c0-0.8,0.1-1.5,0.1-2.2C-387.9,265.9-387.2,265.8-386.3,265.8z M-389.2,268.7c0,0.8,0.1,1.5,0.1,2.2c-0.4,0-0.7-0.1-1-0.1
		c-0.2-0.7-0.3-1.4-0.4-2.1H-389.2z M-389,271.5c0.1,0.7,0.2,1.2,0.3,1.7c-0.5-0.5-0.8-1.2-1.1-1.8
		C-389.6,271.4-389.3,271.4-389,271.5z M-386.1,274.4c0,0.3,0.1,0.6,0.1,0.8c-0.7-0.3-1.3-0.7-1.8-1.1
		C-387.3,274.2-386.7,274.3-386.1,274.4z M-385.5,274.5c0.7,0.1,1.4,0.1,2.2,0.1v1.2c-0.7,0-1.4-0.1-2-0.4
		C-385.4,275.2-385.5,274.9-385.5,274.5z M-382.9,274.6c0.8,0,1.5-0.1,2.2-0.1c0,0.4-0.1,0.7-0.1,1c-0.7,0.2-1.4,0.4-2.1,0.4V274.6z
		 M-380.1,274.4c0.6-0.1,1.2-0.2,1.7-0.3c-0.5,0.4-1.1,0.8-1.7,1.1C-380.2,275-380.1,274.7-380.1,274.4z M-377.4,273.1
		c0.1-0.5,0.2-1,0.3-1.7c0.3,0,0.6-0.1,0.8-0.1C-376.6,272-377,272.6-377.4,273.1z M-376.2,270.8c-0.2,0-0.6,0.1-0.9,0.1
		c0.1-0.7,0.1-1.4,0.1-2.2h1.2C-375.8,269.4-375.9,270.2-376.2,270.8z M-377,268.2c0-0.8-0.1-1.5-0.1-2.2c0.4,0,0.7,0.1,0.9,0.1
		c0.2,0.6,0.3,1.3,0.4,2h-1.2V268.2z M-376.4,265.6c-0.2,0-0.5-0.1-0.8-0.1c-0.1-0.6-0.2-1.2-0.3-1.6
		C-377,264.4-376.6,265-376.4,265.6z M-388.7,263.8c-0.1,0.5-0.2,1.1-0.3,1.7c-0.3,0-0.6,0.1-0.8,0.1
		C-389.6,265-389.2,264.3-388.7,263.8z"/>
	<g>
		<circle class="st0" cx="-516.4" cy="178.6" r="5"/>
		<circle class="st0" cx="-509.8" cy="170.2" r="1.9"/>
		<circle class="st0" cx="-507.3" cy="182" r="2.3"/>
		
			<rect x="-512.8" y="170.9" transform="matrix(-0.7541 -0.6567 0.6567 -0.7541 -1012.5932 -32.712)" class="st0" width="0.8" height="4.6"/>
		
			<rect x="-512.4" y="180.5" transform="matrix(-0.953 -0.3029 0.3029 -0.953 -1052.0988 198.6024)" class="st0" width="3.5" height="0.8"/>
	</g>
	<g>
		<path class="st1" d="M-383.3,179.1c-0.1,0-0.2,0-0.3,0c0-0.2,0-0.4,0-0.7c0-3.3-2.7-5.9-5.9-5.9c-2.7,0-5,1.8-5.7,4.3
			c-0.5-0.3-1.1-0.4-1.7-0.4c-2.2,0-4,1.8-4,4s1.8,4,4,4c1.4,0,5.8,0,7.4,0c1.5,0,5.1,0,6.1,0c1.5,0,2.6-1.2,2.6-2.6
			S-381.8,179.1-383.3,179.1z"/>
	</g>
	<g>
		<g>
			<path class="st11" d="M-383.4,322.7l-2.4,1.4v-1.2l0.8-0.5l-0.8-0.5v-1.1l2.4,1.4V322.7z"/>
		</g>
		<g>
			<path class="st11" d="M-391.2,322.2l2.4-1.4v1.1l-0.8,0.5l0.8,0.5v1.2l-2.4-1.4V322.2z"/>
		</g>
		<path class="st11" d="M-381.4,326.8h-12v-8.4h11.9v8.4H-381.4z M-392.9,326.4h11.1v-7.6h-11.1V326.4z"/>
		<rect x="-393.3" y="316.5" class="st11" width="11.9" height="1.6"/>
	</g>
</g>
</svg>
