<?xml version="1.0" encoding="utf-8"?>
<!-- Generator: Adobe Illustrator 19.0.0, SVG Export Plug-In . SVG Version: 6.00 Build 0)  -->
<svg version="1.1" id="Layer_1" xmlns="http://www.w3.org/2000/svg" xmlns:xlink="http://www.w3.org/1999/xlink" x="0px" y="0px"
	 viewBox="0 0 300 340" style="enable-background:new 0 0 300 340;" xml:space="preserve">
<style type="text/css">
	.st0{fill:#F79930;}
	.st1{fill:#314048;}
	.st2{fill:#4D5356;}
	.st3{fill:#FFFFFF;}
	.st4{fill:#DCE5F5;}
	.st5{fill:#FDC34A;}
	.st6{fill:#F15F22;}
	.st7{fill:#F4783D;}
	.st8{fill:#F8C888;}
	.st9{fill:#E54A25;}
	.st10{fill:#FAAC6C;}
	.st11{fill:#F7F8F8;}
	.st12{fill:#01629C;}
	.st13{fill:#36354B;}
	.st14{fill:#F1CA71;}
	.st15{fill:#F08CBA;}
	.st16{fill:#6B6CB2;}
	.st17{fill:#F7921E;}
	.st18{fill:#F9A55C;}
	.st19{fill:#F6F6F6;}
</style>
<g id="XMLID_1_">
	<g id="XMLID_707_">
		<circle id="XMLID_208_" class="st0" cx="128.1" cy="208.7" r="130.1"/>
	</g>
	<g id="XMLID_106_">
		<g id="XMLID_452_">
			<g id="XMLID_480_">
				<rect id="XMLID_207_" x="142.9" y="209.5" class="st1" width="37" height="49"/>
			</g>
			<g id="XMLID_477_">
				<path id="XMLID_206_" class="st2" d="M211.7,258.6H111.1c-1.6,0-2.8-1.3-2.8-2.8l0,0c0-1.5,1.2-2.7,2.7-2.7h100.9
					c1.5,0,2.7,1.2,2.7,2.7l0,0C214.5,257.3,213.2,258.6,211.7,258.6z"/>
			</g>
			<g id="XMLID_474_">
				<path id="XMLID_205_" class="st2" d="M48.8,234H274c3.1,0,5.5-2.5,5.5-5.5v-136c0-3.1-2.5-5.5-5.5-5.5H48.8
					c-3.1,0-5.5,2.5-5.5,5.5v136C43.3,231.5,45.8,234,48.8,234z"/>
			</g>
			<g id="XMLID_469_">
				<rect id="XMLID_204_" x="52.3" y="96" class="st3" width="218.1" height="123"/>
			</g>
			<g id="XMLID_462_">
				<rect id="XMLID_203_" x="64.5" y="181.3" class="st4" width="57" height="22.7"/>
			</g>
			<g id="XMLID_459_">
				<rect id="XMLID_202_" x="132.9" y="181.3" class="st4" width="57" height="22.7"/>
			</g>
			<g id="XMLID_454_">
				<rect id="XMLID_201_" x="201.2" y="181.3" class="st4" width="57" height="22.7"/>
			</g>
		</g>
		<g id="XMLID_429_">
			<g id="XMLID_158_">
				<rect id="XMLID_581_" x="64.5" y="106.1" class="st4" width="48.8" height="4.6"/>
			</g>
			<g id="XMLID_157_">
				<rect id="XMLID_579_" x="148" y="107.9" class="st4" width="12.9" height="3"/>
			</g>
			<g id="XMLID_156_">
				<rect id="XMLID_577_" x="177.2" y="107.9" class="st4" width="18.8" height="3"/>
			</g>
			<g id="XMLID_155_">
				<rect id="XMLID_575_" x="209.4" y="107.9" class="st4" width="18.8" height="3"/>
			</g>
			<g id="XMLID_154_">
				<rect id="XMLID_573_" x="241.7" y="107.9" class="st4" width="18.8" height="3"/>
			</g>
		</g>
		<g id="XMLID_399_">
			<g id="XMLID_152_">
				<g id="XMLID_153_">
					<rect id="XMLID_200_" x="64.5" y="152" class="st4" width="12.8" height="2.5"/>
				</g>
			</g>
			<g id="XMLID_141_">
				<g id="XMLID_150_">
					<g id="XMLID_151_">
						<rect id="XMLID_199_" x="64.5" y="157.2" class="st4" width="74.9" height="2.9"/>
					</g>
				</g>
				<g id="XMLID_148_">
					<g id="XMLID_149_">
						<rect id="XMLID_188_" x="64.5" y="162.2" class="st4" width="74.9" height="2.9"/>
					</g>
				</g>
				<g id="XMLID_144_">
					<g id="XMLID_147_">
						<rect id="XMLID_187_" x="64.5" y="167.3" class="st4" width="40.1" height="2.9"/>
					</g>
				</g>
			</g>
		</g>
		<g id="XMLID_395_">
			<path id="XMLID_196_" class="st5" d="M17.7,105.4c-3.3,0-5.9-2.7-5.9-5.9s2.7-5.9,5.9-5.9s5.9,2.7,5.9,5.9S21,105.4,17.7,105.4z
				 M17.7,97.7c-1,0-1.8,0.8-1.8,1.8c0,1,0.8,1.8,1.8,1.8c1,0,1.8-0.8,1.8-1.8C19.5,98.5,18.7,97.7,17.7,97.7z"/>
		</g>
		<g id="XMLID_392_">
			<path id="XMLID_193_" class="st6" d="M295.1,244.9c-2.7,0-4.9-2.2-4.9-4.9s2.2-4.9,4.9-4.9c2.7,0,4.9,2.2,4.9,4.9
				S297.8,244.9,295.1,244.9z M295.1,237.1c-1.6,0-2.8,1.3-2.8,2.8c0,1.6,1.3,2.8,2.8,2.8c1.6,0,2.8-1.3,2.8-2.8
				C297.9,238.4,296.7,237.1,295.1,237.1z"/>
		</g>
		<g id="XMLID_391_">
			<circle id="XMLID_548_" class="st4" cx="30.1" cy="107.8" r="3.3"/>
		</g>
		<g id="XMLID_384_">
			<g id="XMLID_388_">
				<path id="XMLID_192_" class="st7" d="M102.2,78.4c-1.1,0-2.1-0.9-2.1-2.1v-6.6c0-1.1,0.9-2.1,2.1-2.1c1.1,0,2.1,0.9,2.1,2.1v6.6
					C104.3,77.5,103.3,78.4,102.2,78.4z"/>
			</g>
			<g id="XMLID_385_">
				<path id="XMLID_191_" class="st7" d="M105.5,75.1h-6.6c-1.1,0-2.1-0.9-2.1-2.1c0-1.1,0.9-2.1,2.1-2.1h6.6c1.1,0,2.1,0.9,2.1,2.1
					C107.6,74.2,106.7,75.1,105.5,75.1z"/>
			</g>
		</g>
		<g id="XMLID_377_">
			<g id="XMLID_381_">
				<path id="XMLID_190_" class="st8" d="M93,248.6c-1.1,0-2.1-0.9-2.1-2.1v-6.6c0-1.1,0.9-2.1,2.1-2.1c1.1,0,2.1,0.9,2.1,2.1v6.6
					C95.1,247.7,94.1,248.6,93,248.6z"/>
			</g>
			<g id="XMLID_378_">
				<path id="XMLID_189_" class="st8" d="M96.3,245.3h-6.6c-1.1,0-2.1-0.9-2.1-2.1s0.9-2.1,2.1-2.1h6.6c1.1,0,2.1,0.9,2.1,2.1
					S97.5,245.3,96.3,245.3z"/>
			</g>
		</g>
		<g id="XMLID_346_">
			<circle id="XMLID_186_" class="st3" cx="106.4" cy="239.2" r="1.8"/>
		</g>
		<g id="XMLID_343_">
			<circle id="XMLID_185_" class="st3" cx="114.4" cy="242.2" r="1.1"/>
		</g>
		<g id="XMLID_342_">
			<circle id="XMLID_532_" class="st3" cx="282.9" cy="244.8" r="3.4"/>
		</g>
		<g id="XMLID_336_">
			<g id="XMLID_341_">
				<circle id="XMLID_530_" class="st3" cx="90.7" cy="65" r="2.3"/>
			</g>
			<g id="XMLID_340_">
				<circle id="XMLID_528_" class="st3" cx="112.4" cy="77.2" r="2"/>
			</g>
			<g id="XMLID_337_">
				<circle id="XMLID_184_" class="st9" cx="115.8" cy="71.1" r="1.4"/>
			</g>
		</g>
		<g id="XMLID_321_">
			<g id="XMLID_323_">
				<g id="XMLID_145_">
					<path id="XMLID_522_" class="st10" d="M63.3,73.7h13.6c0.6,0,1.1,0.5,1.1,1.1v12c0,0.6-0.5,1.1-1.1,1.1h-4l-2.8,2.8l-2.8-2.8
						h-4c-0.6,0-1.1-0.5-1.1-1.1v-12C62.2,74.1,62.7,73.7,63.3,73.7z"/>
				</g>
			</g>
			<g id="XMLID_322_">
				<path id="XMLID_519_" class="st11" d="M73.2,79.2c-0.7-0.7-1.8-0.7-2.5,0l-0.6,0.6l-0.6-0.6c-0.7-0.7-1.8-0.7-2.5,0
					c-0.7,0.7-0.7,1.8,0,2.5l3,3l3-3C73.8,81,73.8,79.9,73.2,79.2z"/>
			</g>
		</g>
		<g id="XMLID_248_">
			<g id="XMLID_320_">
				<circle id="XMLID_183_" class="st12" cx="253.7" cy="239.2" r="11.3"/>
			</g>
			<g id="XMLID_249_">
				<path id="XMLID_512_" class="st3" d="M253.7,231.8c-4.1,0-7.4,3.3-7.4,7.4c0,1.4,0.4,2.8,1.2,4.1c0.1,0.2,0.2,0.5,0.1,0.7
					l-0.8,2.1l2.1-0.8c0.2-0.1,0.5-0.1,0.7,0.1c1.2,0.8,2.6,1.2,4.1,1.2c4.1,0,7.4-3.3,7.4-7.4C261.2,235.1,257.8,231.8,253.7,231.8
					z M254.3,241l-1.3-1.3l-2.7,1.3l2.8-3.5l1.4,1.7l2.6-1.7L254.3,241z"/>
			</g>
		</g>
		<g id="XMLID_107_">
			<g id="XMLID_245_">
				<path id="XMLID_182_" class="st10" d="M289.1,127H171.9c-2.3,0-4.1-1.8-4.1-4.1V4.1c0-2.3,1.8-4.1,4.1-4.1h117.3
					c2.3,0,4.1,1.8,4.1,4.1v118.8C293.2,125.2,291.4,127,289.1,127z"/>
			</g>
			<g id="XMLID_242_">
				<path id="XMLID_181_" class="st13" d="M264.3,157.4h-67.6c-2.3,0-4.1-1.8-4.1-4.1V84.5c0-2.3,1.8-4.1,4.1-4.1h67.6
					c2.3,0,4.1,1.8,4.1,4.1v68.7C268.4,155.6,266.6,157.4,264.3,157.4z"/>
			</g>
			<g id="XMLID_143_">
				<g id="XMLID_389_">
					<g id="XMLID_418_">
						<g id="XMLID_420_">
							<rect id="XMLID_180_" x="202.6" y="89.4" class="st10" width="6.3" height="1.9"/>
						</g>
					</g>
					<g id="XMLID_414_">
						<g id="XMLID_417_">
							<rect id="XMLID_179_" x="212.3" y="89.4" class="st3" width="25.4" height="1.9"/>
						</g>
					</g>
					<g id="XMLID_413_">
						<rect id="XMLID_498_" x="212.3" y="92.7" class="st3" width="4.2" height="1.9"/>
					</g>
					<g id="XMLID_411_">
						<g id="XMLID_412_">
							<rect id="XMLID_178_" x="234.8" y="96" class="st10" width="23.6" height="1.9"/>
						</g>
					</g>
					<g id="XMLID_409_">
						<rect id="XMLID_490_" x="217.4" y="92.7" class="st3" width="13.1" height="1.9"/>
					</g>
					<g id="XMLID_397_">
						<rect id="XMLID_488_" x="212.3" y="102.7" class="st3" width="4.2" height="1.9"/>
					</g>
					<g id="XMLID_396_">
						<rect id="XMLID_177_" x="217.4" y="102.7" class="st14" width="4.7" height="1.9"/>
					</g>
					<g id="XMLID_393_">
						<g id="XMLID_394_">
							<rect id="XMLID_176_" x="212.3" y="96" class="st10" width="21.6" height="1.9"/>
						</g>
					</g>
					<g id="XMLID_390_">
						<rect id="XMLID_479_" x="212.3" y="99.4" class="st3" width="46.2" height="1.9"/>
					</g>
				</g>
				<g id="XMLID_331_">
					<g id="XMLID_383_">
						<g id="XMLID_386_">
							<rect id="XMLID_175_" x="202.6" y="111.3" class="st10" width="6.3" height="1.9"/>
						</g>
					</g>
					<g id="XMLID_380_">
						<g id="XMLID_382_">
							<rect id="XMLID_174_" x="212.3" y="111.3" class="st3" width="25.4" height="1.9"/>
						</g>
					</g>
					<g id="XMLID_379_">
						<rect id="XMLID_460_" x="212.3" y="114.7" class="st3" width="4.2" height="1.9"/>
					</g>
					<g id="XMLID_375_">
						<g id="XMLID_376_">
							<rect id="XMLID_173_" x="234.8" y="118" class="st10" width="23.6" height="1.9"/>
						</g>
					</g>
					<g id="XMLID_345_">
						<rect id="XMLID_446_" x="217.4" y="114.7" class="st3" width="13.1" height="1.9"/>
					</g>
					<g id="XMLID_344_">
						<rect id="XMLID_441_" x="212.3" y="124.6" class="st3" width="4.2" height="1.9"/>
					</g>
					<g id="XMLID_339_">
						<rect id="XMLID_172_" x="217.4" y="124.6" class="st14" width="4.7" height="1.9"/>
					</g>
					<g id="XMLID_334_">
						<g id="XMLID_338_">
							<rect id="XMLID_171_" x="212.3" y="118" class="st10" width="21.6" height="1.9"/>
						</g>
					</g>
					<g id="XMLID_333_">
						<rect id="XMLID_431_" x="212.3" y="121.3" class="st3" width="46.2" height="1.9"/>
					</g>
				</g>
				<g id="XMLID_110_">
					<g id="XMLID_136_">
						<g id="XMLID_142_">
							<rect id="XMLID_170_" x="202.6" y="133.3" class="st10" width="6.3" height="1.9"/>
						</g>
					</g>
					<g id="XMLID_133_">
						<g id="XMLID_135_">
							<rect id="XMLID_169_" x="212.3" y="133.3" class="st3" width="25.4" height="1.9"/>
						</g>
					</g>
					<g id="XMLID_132_">
						<rect id="XMLID_416_" x="212.3" y="136.6" class="st3" width="4.2" height="1.9"/>
					</g>
					<g id="XMLID_121_">
						<g id="XMLID_122_">
							<rect id="XMLID_168_" x="234.8" y="139.9" class="st10" width="23.6" height="1.9"/>
						</g>
					</g>
					<g id="XMLID_119_">
						<rect id="XMLID_402_" x="217.4" y="136.6" class="st3" width="13.1" height="1.9"/>
					</g>
					<g id="XMLID_118_">
						<rect id="XMLID_400_" x="212.3" y="146.5" class="st3" width="4.2" height="1.9"/>
					</g>
					<g id="XMLID_115_">
						<rect id="XMLID_167_" x="217.4" y="146.5" class="st14" width="4.7" height="1.9"/>
					</g>
					<g id="XMLID_113_">
						<g id="XMLID_114_">
							<rect id="XMLID_166_" x="212.3" y="139.9" class="st10" width="21.6" height="1.9"/>
						</g>
					</g>
					<g id="XMLID_112_">
						<rect id="XMLID_327_" x="212.3" y="143.2" class="st3" width="46.2" height="1.9"/>
					</g>
				</g>
			</g>
			<g id="XMLID_123_">
				<g id="XMLID_140_">
					<path id="XMLID_165_" class="st3" d="M254.4,69.4h-44.1c-1.7,0-3.1-1.4-3.1-3.1V22.2c0-1.7,1.4-3.1,3.1-3.1h44.1
						c1.7,0,3.1,1.4,3.1,3.1v44.1C257.5,68.1,256.1,69.4,254.4,69.4z"/>
				</g>
				<g id="XMLID_124_">
					<g id="XMLID_130_">
						<g id="XMLID_139_">
							<rect id="XMLID_164_" x="218.1" y="49.1" class="st15" width="4.4" height="8.2"/>
						</g>
						<g id="XMLID_138_">
							<rect id="XMLID_163_" x="224.3" y="38.6" class="st14" width="4.4" height="18.7"/>
						</g>
						<g id="XMLID_137_">
							<rect id="XMLID_239_" x="230.5" y="45" class="st16" width="4.4" height="12.3"/>
						</g>
						<g id="XMLID_134_">
							<rect id="XMLID_160_" x="236.7" y="32.7" class="st17" width="4.4" height="24.6"/>
						</g>
						<g id="XMLID_131_">
							<rect id="XMLID_159_" x="242.9" y="29.2" class="st17" width="4.4" height="28.1"/>
						</g>
					</g>
					<g id="XMLID_129_">
						<rect id="XMLID_232_" x="218.1" y="59.9" class="st4" width="4.4" height="0.9"/>
					</g>
					<g id="XMLID_128_">
						<rect id="XMLID_230_" x="224.3" y="59.9" class="st4" width="4.4" height="0.9"/>
					</g>
					<g id="XMLID_127_">
						<rect id="XMLID_228_" x="230.5" y="59.9" class="st4" width="4.4" height="0.9"/>
					</g>
					<g id="XMLID_126_">
						<rect id="XMLID_226_" x="236.7" y="59.9" class="st4" width="4.4" height="0.9"/>
					</g>
					<g id="XMLID_125_">
						<rect id="XMLID_224_" x="242.9" y="59.9" class="st4" width="4.4" height="0.9"/>
					</g>
				</g>
			</g>
			<g id="XMLID_116_">
				<g id="XMLID_120_">
					<path id="XMLID_162_" class="st18" d="M280.8,148.6c-1.1,0-2.1-0.9-2.1-2.1v-6.6c0-1.1,0.9-2.1,2.1-2.1c1.1,0,2.1,0.9,2.1,2.1
						v6.6C282.9,147.7,282,148.6,280.8,148.6z"/>
				</g>
				<g id="XMLID_117_">
					<path id="XMLID_161_" class="st18" d="M284.1,145.3h-6.6c-1.1,0-2.1-0.9-2.1-2.1s0.9-2.1,2.1-2.1h6.6c1.1,0,2.1,0.9,2.1,2.1
						S285.3,145.3,284.1,145.3z"/>
				</g>
			</g>
			<g id="XMLID_108_">
				<g id="XMLID_111_">
					<path id="XMLID_109_" class="st19" d="M184.1,57.4l-6,6.2c-0.1,0.1-0.2,0.2-0.2,0.4v5.5c0,0.3,0.2,0.6,0.6,0.6h4.1
						c0.3,0,0.6-0.2,0.6-0.6v-2.7c0-0.8,0.6-1.4,1.4-1.4l0,0c0.8,0,1.4,0.6,1.4,1.4v2.7c0,0.3,0.2,0.6,0.6,0.6h4.1
						c0.3,0,0.6-0.2,0.6-0.6V64c0-0.1-0.1-0.3-0.2-0.4l-6-6.2C184.7,57.2,184.3,57.2,184.1,57.4z"/>
				</g>
			</g>
		</g>
	</g>
</g>
</svg>
