<?xml version="1.0" encoding="utf-8"?>
<!-- Generator: Adobe Illustrator 19.0.0, SVG Export Plug-In . SVG Version: 6.00 Build 0)  -->
<svg version="1.1" id="Layer_1" xmlns="http://www.w3.org/2000/svg" xmlns:xlink="http://www.w3.org/1999/xlink" x="0px" y="0px"
	 viewBox="0 0 150 150" style="enable-background:new 0 0 150 150;" xml:space="preserve">
<style type="text/css">
	.st0{fill:#FFFFFF;}
</style>
<g id="XMLID_1_">
	<g id="XMLID_46_">
		<g id="XMLID_49_">
			<path id="XMLID_50_" class="st0" d="M117.4,129.4c18,0,32.6-14.6,32.6-32.6c0-18-14.6-32.6-32.6-32.6c-1,0-1.9-0.6-2.4-1.5
				c-1-1.9-3.2-14.8,8.6-32.9c-3.1-3.1-5.1-5.2-6.6-6.7c-1.2-1.2-2.1-2.1-2.8-2.8c-7.5,7.2-32.4,34.4-29.3,76.2
				C86.2,115.6,99.9,129.4,117.4,129.4z"/>
		</g>
		<g id="XMLID_47_">
			<path id="XMLID_48_" class="st0" d="M0.3,96.7c1.4,19,15.1,32.8,32.6,32.8c18,0,32.6-14.6,32.6-32.6c0-18-14.6-32.6-32.6-32.6
				c-1,0-1.9-0.6-2.4-1.5c-1-1.9-3.2-14.8,8.6-32.9c-3.1-3.1-5.1-5.2-6.6-6.7c-1.2-1.3-2.1-2.1-2.8-2.8C22.1,27.6-2.8,54.8,0.3,96.7
				L0.3,96.7z"/>
		</g>
	</g>
</g>
</svg>
