<?xml version="1.0" encoding="utf-8"?>
<!-- Generator: Adobe Illustrator 23.1.0, SVG Export Plug-In . SVG Version: 6.00 Build 0)  -->
<svg version="1.1" id="Layer_1" xmlns="http://www.w3.org/2000/svg" xmlns:xlink="http://www.w3.org/1999/xlink" x="0px" y="0px"
	 viewBox="0 0 196 490" style="enable-background:new 0 0 196 490;" xml:space="preserve">
<style type="text/css">
	.st0{fill:#1E1E1E;}
</style>
<path id="XMLID_1_" class="st0" d="M3.7,108.2c4.4,4.4,11.4,4.4,15.8,0l67.4-67.4v185.7v6.4V360v2.8V478c0,6,4.9,11.1,11.2,11.1
	c6.2,0,11.3-5,11.3-11.3V362.9v-2.8V233v-6.4V40.8l67.4,67.4c4.4,4.4,11.4,4.4,15.8,0c4.4-4.4,4.4-11.4,0-15.8L106.1,5.9
	c-4.4-4.4-11.4-4.4-15.8,0L3.8,92.4c-2.2,2.2-3.3,5-3.3,8C0.4,103.2,1.5,106,3.7,108.2z"/>
</svg>
