<?xml version="1.0" encoding="utf-8"?>
<!-- Generator: Adobe Illustrator 19.0.0, SVG Export Plug-In . SVG Version: 6.00 Build 0)  -->
<svg version="1.1" id="Layer_1" xmlns="http://www.w3.org/2000/svg" xmlns:xlink="http://www.w3.org/1999/xlink" x="0px" y="0px"
	 viewBox="0 0 196 490" style="enable-background:new 0 0 196 490;" xml:space="preserve">
<style type="text/css">
	.st0{fill:#FFFFFF;}
</style>
<path id="XMLID_1_" class="st0" d="M192.7,383.5c-4.4-4.4-11.4-4.4-15.8,0l-67.4,67.4V265.2v-6.4V131.7v-2.8V13.7
	c0-6-4.9-11.1-11.2-11.1c-6.2,0-11.3,5-11.3,11.3v114.9v2.8v127.1v6.4v185.8l-67.4-67.4c-4.4-4.4-11.4-4.4-15.8,0
	c-4.4,4.4-4.4,11.4,0,15.8l86.5,86.5c4.4,4.4,11.4,4.4,15.8,0l86.5-86.5c2.2-2.2,3.3-5,3.3-8C196,388.5,194.9,385.7,192.7,383.5z"/>
</svg>
